<?xml version="1.0" encoding="utf-8"?>
<svg version="1.1" xmlns:xlink="http://www.w3.org/1999/xlink" width="12px" height="14px" xmlns="http://www.w3.org/2000/svg">
  <defs>
    <pattern id="BGPattern" patternUnits="userSpaceOnUse" alignment="0 0" imageRepeat="None" />
    <mask fill="white" id="Clip334">
      <path d="M 3.971590909090909 2.8900240384615383  C 4.034090909090909 2.954527243589742  4.110795454545455 2.986778846153846  4.201704545454546 2.986778846153846  C 4.292613636363637 2.986778846153846  4.370738636363637 2.954527243589742  4.436079545454546 2.8900240384615383  C 4.501420454545455 2.825520833333333  4.534090909090909 2.748397435897434  4.534090909090909 2.658653846153846  C 4.534090909090909 2.568910256410255  4.501420454545455 2.4917868589743577  4.436079545454546 2.427283653846154  C 4.370738636363637 2.362780448717949  4.292613636363637 2.330528846153846  4.201704545454546 2.330528846153846  C 4.110795454545455 2.330528846153846  4.034090909090909 2.362780448717949  3.971590909090909 2.427283653846154  C 3.909090909090909 2.4917868589743577  3.877840909090909 2.568910256410255  3.877840909090909 2.658653846153846  C 3.877840909090909 2.748397435897434  3.909090909090909 2.825520833333333  3.971590909090909 2.8900240384615383  Z M 7.563920454545455 2.8900240384615383  C 7.629261363636365 2.954527243589742  7.707386363636364 2.986778846153846  7.798295454545455 2.986778846153846  C 7.889204545454546 2.986778846153846  7.965909090909092 2.954527243589742  8.028409090909092 2.8900240384615383  C 8.090909090909092 2.825520833333333  8.122159090909092 2.748397435897434  8.122159090909092 2.658653846153846  C 8.122159090909092 2.568910256410255  8.090909090909092 2.4917868589743577  8.028409090909092 2.427283653846154  C 7.965909090909092 2.362780448717949  7.889204545454546 2.330528846153846  7.798295454545455 2.330528846153846  C 7.707386363636364 2.330528846153846  7.629261363636365 2.362780448717949  7.563920454545455 2.427283653846154  C 7.498579545454547 2.4917868589743577  7.465909090909092 2.568910256410255  7.465909090909092 2.658653846153846  C 7.465909090909092 2.748397435897434  7.498579545454547 2.825520833333333  7.563920454545455 2.8900240384615383  Z M 0.2556818181818182 4.787259615384616  C 0.42613636363636365 4.618990384615384  0.6335227272727274 4.53485576923077  0.8778409090909091 4.53485576923077  C 1.1164772727272727 4.53485576923077  1.3210227272727273 4.618990384615384  1.4914772727272727 4.787259615384616  C 1.6619318181818181 4.955528846153846  1.7471590909090908 5.157451923076923  1.7471590909090908 5.393028846153846  L 1.7471590909090908 9.010817307692308  C 1.7471590909090908 9.252003205128204  1.663352272727273 9.456730769230768  1.4957386363636365 9.625  C 1.328125 9.793269230769232  1.122159090909091 9.877403846153847  0.8778409090909091 9.877403846153847  C 0.6335227272727274 9.877403846153847  0.42613636363636365 9.793269230769232  0.2556818181818182 9.625  C 0.08522727272727272 9.456730769230768  0 9.252003205128204  0 9.010817307692308  L 0 5.393028846153846  C 0 5.157451923076923  0.08522727272727272 4.955528846153846  0.2556818181818182 4.787259615384616  Z M 2.0880681818181817 4.694711538461538  L 9.911931818181818 4.694711538461538  L 9.911931818181818 10.298076923076923  C 9.911931818181818 10.556089743589745  9.821022727272728 10.774839743589745  9.639204545454545 10.954326923076923  C 9.457386363636365 11.133814102564102  9.238636363636363 11.223557692307692  8.982954545454545 11.223557692307692  L 8.34375 11.223557692307692  L 8.34375 13.133413461538462  C 8.34375 13.37459935897436  8.258522727272727 13.579326923076923  8.088068181818182 13.747596153846153  C 7.917613636363637 13.915865384615383  7.710227272727273 14  7.465909090909092 14  C 7.221590909090909 14  7.014204545454545 13.915865384615383  6.84375 13.747596153846153  C 6.673295454545455 13.579326923076923  6.588068181818182 13.37459935897436  6.588068181818182 13.133413461538462  L 6.588068181818182 11.223557692307692  L 5.411931818181818 11.223557692307692  L 5.411931818181818 13.133413461538462  C 5.411931818181818 13.37459935897436  5.326704545454546 13.579326923076923  5.15625 13.747596153846153  C 4.985795454545454 13.915865384615383  4.778409090909092 14  4.534090909090909 14  C 4.295454545454546 14  4.090909090909091 13.915865384615383  3.920454545454546 13.747596153846153  C 3.75 13.579326923076923  3.6647727272727275 13.37459935897436  3.6647727272727275 13.133413461538462  L 3.65625 11.223557692307692  L 3.0255681818181817 11.223557692307692  C 2.764204545454546 11.223557692307692  2.5426136363636367 11.133814102564102  2.3607954545454546 10.954326923076923  C 2.178977272727273 10.774839743589745  2.0880681818181817 10.556089743589745  2.0880681818181817 10.298076923076923  L 2.0880681818181817 4.694711538461538  Z M 8.539772727272727 0.18509615384615397  L 7.934659090909092 1.2872596153846159  C 8.542613636363638 1.5957532051282037  9.028409090909092 2.026241987179487  9.392045454545455 2.5787259615384617  C 9.755681818181818 3.131209935897434  9.9375 3.735576923076924  9.9375 4.391826923076923  L 2.053977272727273 4.391826923076923  C 2.053977272727273 3.735576923076924  2.235795454545455 3.131209935897434  2.5994318181818183 2.5787259615384617  C 2.963068181818182 2.026241987179487  3.451704545454546 1.5957532051282037  4.065340909090909 1.2872596153846159  L 3.4602272727272725 0.18509615384615397  C 3.420454545454546 0.11217948717948678  3.4346590909090913 0.056089743589741836  3.502840909090909 0.016826923076923794  C 3.576704545454546 -0.016826923076923794  3.6335227272727275 0  3.673295454545454 0.06730769230769207  L 4.286931818181818 1.1778846153846159  C 4.826704545454546 0.9423076923076921  5.397727272727273 0.8245192307692302  6 0.8245192307692302  C 6.602272727272728 0.8245192307692302  7.173295454545455 0.9423076923076921  7.713068181818182 1.1778846153846159  L 8.326704545454545 0.06730769230769207  C 8.366477272727273 0  8.423295454545455 -0.016826923076923794  8.497159090909092 0.016826923076923794  C 8.565340909090908 0.056089743589741836  8.579545454545455 0.11217948717948678  8.539772727272727 0.18509615384615397  Z M 11.744318181818182 4.783052884615384  C 11.914772727272727 4.948517628205128  12 5.151842948717949  12 5.393028846153846  L 12 9.010817307692308  C 12 9.252003205128204  11.914772727272727 9.456730769230768  11.744318181818182 9.625  C 11.573863636363637 9.793269230769232  11.366477272727273 9.877403846153847  11.122159090909092 9.877403846153847  C 10.883522727272727 9.877403846153847  10.678977272727273 9.793269230769232  10.508522727272727 9.625  C 10.338068181818182 9.456730769230768  10.252840909090908 9.252003205128204  10.252840909090908 9.010817307692308  L 10.252840909090908 5.393028846153846  C 10.252840909090908 5.151842948717949  10.338068181818182 4.948517628205128  10.508522727272727 4.783052884615384  C 10.678977272727273 4.6175881410256405  10.883522727272727 4.53485576923077  11.122159090909092 4.53485576923077  C 11.366477272727273 4.53485576923077  11.573863636363637 4.6175881410256405  11.744318181818182 4.783052884615384  Z " fill-rule="evenodd" />
    </mask>
  </defs>
  <g transform="matrix(1 0 0 1 -6 -10 )">
    <path d="M 3.971590909090909 2.8900240384615383  C 4.034090909090909 2.954527243589742  4.110795454545455 2.986778846153846  4.201704545454546 2.986778846153846  C 4.292613636363637 2.986778846153846  4.370738636363637 2.954527243589742  4.436079545454546 2.8900240384615383  C 4.501420454545455 2.825520833333333  4.534090909090909 2.748397435897434  4.534090909090909 2.658653846153846  C 4.534090909090909 2.568910256410255  4.501420454545455 2.4917868589743577  4.436079545454546 2.427283653846154  C 4.370738636363637 2.362780448717949  4.292613636363637 2.330528846153846  4.201704545454546 2.330528846153846  C 4.110795454545455 2.330528846153846  4.034090909090909 2.362780448717949  3.971590909090909 2.427283653846154  C 3.909090909090909 2.4917868589743577  3.877840909090909 2.568910256410255  3.877840909090909 2.658653846153846  C 3.877840909090909 2.748397435897434  3.909090909090909 2.825520833333333  3.971590909090909 2.8900240384615383  Z M 7.563920454545455 2.8900240384615383  C 7.629261363636365 2.954527243589742  7.707386363636364 2.986778846153846  7.798295454545455 2.986778846153846  C 7.889204545454546 2.986778846153846  7.965909090909092 2.954527243589742  8.028409090909092 2.8900240384615383  C 8.090909090909092 2.825520833333333  8.122159090909092 2.748397435897434  8.122159090909092 2.658653846153846  C 8.122159090909092 2.568910256410255  8.090909090909092 2.4917868589743577  8.028409090909092 2.427283653846154  C 7.965909090909092 2.362780448717949  7.889204545454546 2.330528846153846  7.798295454545455 2.330528846153846  C 7.707386363636364 2.330528846153846  7.629261363636365 2.362780448717949  7.563920454545455 2.427283653846154  C 7.498579545454547 2.4917868589743577  7.465909090909092 2.568910256410255  7.465909090909092 2.658653846153846  C 7.465909090909092 2.748397435897434  7.498579545454547 2.825520833333333  7.563920454545455 2.8900240384615383  Z M 0.2556818181818182 4.787259615384616  C 0.42613636363636365 4.618990384615384  0.6335227272727274 4.53485576923077  0.8778409090909091 4.53485576923077  C 1.1164772727272727 4.53485576923077  1.3210227272727273 4.618990384615384  1.4914772727272727 4.787259615384616  C 1.6619318181818181 4.955528846153846  1.7471590909090908 5.157451923076923  1.7471590909090908 5.393028846153846  L 1.7471590909090908 9.010817307692308  C 1.7471590909090908 9.252003205128204  1.663352272727273 9.456730769230768  1.4957386363636365 9.625  C 1.328125 9.793269230769232  1.122159090909091 9.877403846153847  0.8778409090909091 9.877403846153847  C 0.6335227272727274 9.877403846153847  0.42613636363636365 9.793269230769232  0.2556818181818182 9.625  C 0.08522727272727272 9.456730769230768  0 9.252003205128204  0 9.010817307692308  L 0 5.393028846153846  C 0 5.157451923076923  0.08522727272727272 4.955528846153846  0.2556818181818182 4.787259615384616  Z M 2.0880681818181817 4.694711538461538  L 9.911931818181818 4.694711538461538  L 9.911931818181818 10.298076923076923  C 9.911931818181818 10.556089743589745  9.821022727272728 10.774839743589745  9.639204545454545 10.954326923076923  C 9.457386363636365 11.133814102564102  9.238636363636363 11.223557692307692  8.982954545454545 11.223557692307692  L 8.34375 11.223557692307692  L 8.34375 13.133413461538462  C 8.34375 13.37459935897436  8.258522727272727 13.579326923076923  8.088068181818182 13.747596153846153  C 7.917613636363637 13.915865384615383  7.710227272727273 14  7.465909090909092 14  C 7.221590909090909 14  7.014204545454545 13.915865384615383  6.84375 13.747596153846153  C 6.673295454545455 13.579326923076923  6.588068181818182 13.37459935897436  6.588068181818182 13.133413461538462  L 6.588068181818182 11.223557692307692  L 5.411931818181818 11.223557692307692  L 5.411931818181818 13.133413461538462  C 5.411931818181818 13.37459935897436  5.326704545454546 13.579326923076923  5.15625 13.747596153846153  C 4.985795454545454 13.915865384615383  4.778409090909092 14  4.534090909090909 14  C 4.295454545454546 14  4.090909090909091 13.915865384615383  3.920454545454546 13.747596153846153  C 3.75 13.579326923076923  3.6647727272727275 13.37459935897436  3.6647727272727275 13.133413461538462  L 3.65625 11.223557692307692  L 3.0255681818181817 11.223557692307692  C 2.764204545454546 11.223557692307692  2.5426136363636367 11.133814102564102  2.3607954545454546 10.954326923076923  C 2.178977272727273 10.774839743589745  2.0880681818181817 10.556089743589745  2.0880681818181817 10.298076923076923  L 2.0880681818181817 4.694711538461538  Z M 8.539772727272727 0.18509615384615397  L 7.934659090909092 1.2872596153846159  C 8.542613636363638 1.5957532051282037  9.028409090909092 2.026241987179487  9.392045454545455 2.5787259615384617  C 9.755681818181818 3.131209935897434  9.9375 3.735576923076924  9.9375 4.391826923076923  L 2.053977272727273 4.391826923076923  C 2.053977272727273 3.735576923076924  2.235795454545455 3.131209935897434  2.5994318181818183 2.5787259615384617  C 2.963068181818182 2.026241987179487  3.451704545454546 1.5957532051282037  4.065340909090909 1.2872596153846159  L 3.4602272727272725 0.18509615384615397  C 3.420454545454546 0.11217948717948678  3.4346590909090913 0.056089743589741836  3.502840909090909 0.016826923076923794  C 3.576704545454546 -0.016826923076923794  3.6335227272727275 0  3.673295454545454 0.06730769230769207  L 4.286931818181818 1.1778846153846159  C 4.826704545454546 0.9423076923076921  5.397727272727273 0.8245192307692302  6 0.8245192307692302  C 6.602272727272728 0.8245192307692302  7.173295454545455 0.9423076923076921  7.713068181818182 1.1778846153846159  L 8.326704545454545 0.06730769230769207  C 8.366477272727273 0  8.423295454545455 -0.016826923076923794  8.497159090909092 0.016826923076923794  C 8.565340909090908 0.056089743589741836  8.579545454545455 0.11217948717948678  8.539772727272727 0.18509615384615397  Z M 11.744318181818182 4.783052884615384  C 11.914772727272727 4.948517628205128  12 5.151842948717949  12 5.393028846153846  L 12 9.010817307692308  C 12 9.252003205128204  11.914772727272727 9.456730769230768  11.744318181818182 9.625  C 11.573863636363637 9.793269230769232  11.366477272727273 9.877403846153847  11.122159090909092 9.877403846153847  C 10.883522727272727 9.877403846153847  10.678977272727273 9.793269230769232  10.508522727272727 9.625  C 10.338068181818182 9.456730769230768  10.252840909090908 9.252003205128204  10.252840909090908 9.010817307692308  L 10.252840909090908 5.393028846153846  C 10.252840909090908 5.151842948717949  10.338068181818182 4.948517628205128  10.508522727272727 4.783052884615384  C 10.678977272727273 4.6175881410256405  10.883522727272727 4.53485576923077  11.122159090909092 4.53485576923077  C 11.366477272727273 4.53485576923077  11.573863636363637 4.6175881410256405  11.744318181818182 4.783052884615384  Z " fill-rule="nonzero" fill="rgba(154, 154, 157, 1)" stroke="none" transform="matrix(1 0 0 1 6 10 )" class="fill" />
    <path d="M 3.971590909090909 2.8900240384615383  C 4.034090909090909 2.954527243589742  4.110795454545455 2.986778846153846  4.201704545454546 2.986778846153846  C 4.292613636363637 2.986778846153846  4.370738636363637 2.954527243589742  4.436079545454546 2.8900240384615383  C 4.501420454545455 2.825520833333333  4.534090909090909 2.748397435897434  4.534090909090909 2.658653846153846  C 4.534090909090909 2.568910256410255  4.501420454545455 2.4917868589743577  4.436079545454546 2.427283653846154  C 4.370738636363637 2.362780448717949  4.292613636363637 2.330528846153846  4.201704545454546 2.330528846153846  C 4.110795454545455 2.330528846153846  4.034090909090909 2.362780448717949  3.971590909090909 2.427283653846154  C 3.909090909090909 2.4917868589743577  3.877840909090909 2.568910256410255  3.877840909090909 2.658653846153846  C 3.877840909090909 2.748397435897434  3.909090909090909 2.825520833333333  3.971590909090909 2.8900240384615383  Z " stroke-width="0" stroke-dasharray="0" stroke="rgba(255, 255, 255, 0)" fill="none" transform="matrix(1 0 0 1 6 10 )" class="stroke" mask="url(#Clip334)" />
    <path d="M 7.563920454545455 2.8900240384615383  C 7.629261363636365 2.954527243589742  7.707386363636364 2.986778846153846  7.798295454545455 2.986778846153846  C 7.889204545454546 2.986778846153846  7.965909090909092 2.954527243589742  8.028409090909092 2.8900240384615383  C 8.090909090909092 2.825520833333333  8.122159090909092 2.748397435897434  8.122159090909092 2.658653846153846  C 8.122159090909092 2.568910256410255  8.090909090909092 2.4917868589743577  8.028409090909092 2.427283653846154  C 7.965909090909092 2.362780448717949  7.889204545454546 2.330528846153846  7.798295454545455 2.330528846153846  C 7.707386363636364 2.330528846153846  7.629261363636365 2.362780448717949  7.563920454545455 2.427283653846154  C 7.498579545454547 2.4917868589743577  7.465909090909092 2.568910256410255  7.465909090909092 2.658653846153846  C 7.465909090909092 2.748397435897434  7.498579545454547 2.825520833333333  7.563920454545455 2.8900240384615383  Z " stroke-width="0" stroke-dasharray="0" stroke="rgba(255, 255, 255, 0)" fill="none" transform="matrix(1 0 0 1 6 10 )" class="stroke" mask="url(#Clip334)" />
    <path d="M 0.2556818181818182 4.787259615384616  C 0.42613636363636365 4.618990384615384  0.6335227272727274 4.53485576923077  0.8778409090909091 4.53485576923077  C 1.1164772727272727 4.53485576923077  1.3210227272727273 4.618990384615384  1.4914772727272727 4.787259615384616  C 1.6619318181818181 4.955528846153846  1.7471590909090908 5.157451923076923  1.7471590909090908 5.393028846153846  L 1.7471590909090908 9.010817307692308  C 1.7471590909090908 9.252003205128204  1.663352272727273 9.456730769230768  1.4957386363636365 9.625  C 1.328125 9.793269230769232  1.122159090909091 9.877403846153847  0.8778409090909091 9.877403846153847  C 0.6335227272727274 9.877403846153847  0.42613636363636365 9.793269230769232  0.2556818181818182 9.625  C 0.08522727272727272 9.456730769230768  0 9.252003205128204  0 9.010817307692308  L 0 5.393028846153846  C 0 5.157451923076923  0.08522727272727272 4.955528846153846  0.2556818181818182 4.787259615384616  Z " stroke-width="0" stroke-dasharray="0" stroke="rgba(255, 255, 255, 0)" fill="none" transform="matrix(1 0 0 1 6 10 )" class="stroke" mask="url(#Clip334)" />
    <path d="M 2.0880681818181817 4.694711538461538  L 9.911931818181818 4.694711538461538  L 9.911931818181818 10.298076923076923  C 9.911931818181818 10.556089743589745  9.821022727272728 10.774839743589745  9.639204545454545 10.954326923076923  C 9.457386363636365 11.133814102564102  9.238636363636363 11.223557692307692  8.982954545454545 11.223557692307692  L 8.34375 11.223557692307692  L 8.34375 13.133413461538462  C 8.34375 13.37459935897436  8.258522727272727 13.579326923076923  8.088068181818182 13.747596153846153  C 7.917613636363637 13.915865384615383  7.710227272727273 14  7.465909090909092 14  C 7.221590909090909 14  7.014204545454545 13.915865384615383  6.84375 13.747596153846153  C 6.673295454545455 13.579326923076923  6.588068181818182 13.37459935897436  6.588068181818182 13.133413461538462  L 6.588068181818182 11.223557692307692  L 5.411931818181818 11.223557692307692  L 5.411931818181818 13.133413461538462  C 5.411931818181818 13.37459935897436  5.326704545454546 13.579326923076923  5.15625 13.747596153846153  C 4.985795454545454 13.915865384615383  4.778409090909092 14  4.534090909090909 14  C 4.295454545454546 14  4.090909090909091 13.915865384615383  3.920454545454546 13.747596153846153  C 3.75 13.579326923076923  3.6647727272727275 13.37459935897436  3.6647727272727275 13.133413461538462  L 3.65625 11.223557692307692  L 3.0255681818181817 11.223557692307692  C 2.764204545454546 11.223557692307692  2.5426136363636367 11.133814102564102  2.3607954545454546 10.954326923076923  C 2.178977272727273 10.774839743589745  2.0880681818181817 10.556089743589745  2.0880681818181817 10.298076923076923  L 2.0880681818181817 4.694711538461538  Z " stroke-width="0" stroke-dasharray="0" stroke="rgba(255, 255, 255, 0)" fill="none" transform="matrix(1 0 0 1 6 10 )" class="stroke" mask="url(#Clip334)" />
    <path d="M 8.539772727272727 0.18509615384615397  L 7.934659090909092 1.2872596153846159  C 8.542613636363638 1.5957532051282037  9.028409090909092 2.026241987179487  9.392045454545455 2.5787259615384617  C 9.755681818181818 3.131209935897434  9.9375 3.735576923076924  9.9375 4.391826923076923  L 2.053977272727273 4.391826923076923  C 2.053977272727273 3.735576923076924  2.235795454545455 3.131209935897434  2.5994318181818183 2.5787259615384617  C 2.963068181818182 2.026241987179487  3.451704545454546 1.5957532051282037  4.065340909090909 1.2872596153846159  L 3.4602272727272725 0.18509615384615397  C 3.420454545454546 0.11217948717948678  3.4346590909090913 0.056089743589741836  3.502840909090909 0.016826923076923794  C 3.576704545454546 -0.016826923076923794  3.6335227272727275 0  3.673295454545454 0.06730769230769207  L 4.286931818181818 1.1778846153846159  C 4.826704545454546 0.9423076923076921  5.397727272727273 0.8245192307692302  6 0.8245192307692302  C 6.602272727272728 0.8245192307692302  7.173295454545455 0.9423076923076921  7.713068181818182 1.1778846153846159  L 8.326704545454545 0.06730769230769207  C 8.366477272727273 0  8.423295454545455 -0.016826923076923794  8.497159090909092 0.016826923076923794  C 8.565340909090908 0.056089743589741836  8.579545454545455 0.11217948717948678  8.539772727272727 0.18509615384615397  Z " stroke-width="0" stroke-dasharray="0" stroke="rgba(255, 255, 255, 0)" fill="none" transform="matrix(1 0 0 1 6 10 )" class="stroke" mask="url(#Clip334)" />
    <path d="M 11.744318181818182 4.783052884615384  C 11.914772727272727 4.948517628205128  12 5.151842948717949  12 5.393028846153846  L 12 9.010817307692308  C 12 9.252003205128204  11.914772727272727 9.456730769230768  11.744318181818182 9.625  C 11.573863636363637 9.793269230769232  11.366477272727273 9.877403846153847  11.122159090909092 9.877403846153847  C 10.883522727272727 9.877403846153847  10.678977272727273 9.793269230769232  10.508522727272727 9.625  C 10.338068181818182 9.456730769230768  10.252840909090908 9.252003205128204  10.252840909090908 9.010817307692308  L 10.252840909090908 5.393028846153846  C 10.252840909090908 5.151842948717949  10.338068181818182 4.948517628205128  10.508522727272727 4.783052884615384  C 10.678977272727273 4.6175881410256405  10.883522727272727 4.53485576923077  11.122159090909092 4.53485576923077  C 11.366477272727273 4.53485576923077  11.573863636363637 4.6175881410256405  11.744318181818182 4.783052884615384  Z " stroke-width="0" stroke-dasharray="0" stroke="rgba(255, 255, 255, 0)" fill="none" transform="matrix(1 0 0 1 6 10 )" class="stroke" mask="url(#Clip334)" />
  </g>
</svg>