<?xml version="1.0" encoding="utf-8"?>
<svg version="1.1" xmlns:xlink="http://www.w3.org/1999/xlink" width="12px" height="12px" xmlns="http://www.w3.org/2000/svg">
  <defs>
    <pattern id="BGPattern" patternUnits="userSpaceOnUse" alignment="0 0" imageRepeat="None" />
    <mask fill="white" id="Clip866">
      <path d="M 7.105590062111801 5.7234468937875755  C 7.188405797101451 5.803607214428857  7.229813664596273 5.895791583166332  7.229813664596273 6  C 7.229813664596273 6.104208416833666  7.188405797101451 6.196392785571142  7.105590062111801 6.2765531062124245  L 1.3167701863354038 11.879759519038076  C 1.2339544513457559 11.959919839679358  1.1387163561076605 12  1.031055900621118 12  C 0.9233954451345757 12  0.8281573498964803 11.959919839679358  0.7453416149068323 11.879759519038076  L 0.12422360248447205 11.278557114228457  C 0.041407867494824044 11.198396793587174  0 11.1062124248497  0 11.002004008016032  C 0 10.897795591182364  0.041407867494824044 10.80561122244489  0.12422360248447205 10.725450901803608  L 5.0062111801242235 6  L 0.12422360248447205 1.2745490981963927  C 0.041407867494824044 1.1943887775551096  0 1.1022044088176348  0 0.9979959919839683  C 0 0.893787575150299  0.041407867494824044 0.8016032064128242  0.12422360248447205 0.7214428857715425  L 0.7453416149068323 0.12024048096192397  C 0.8281573498964803 0.04008016032064088  0.9233954451345757 0  1.031055900621118 0  C 1.1387163561076605 0  1.2339544513457559 0.04008016032064088  1.3167701863354038 0.12024048096192397  L 7.105590062111801 5.7234468937875755  Z M 11.875776397515528 5.7234468937875755  C 11.958592132505178 5.803607214428857  12 5.895791583166332  12 6  C 12 6.104208416833666  11.958592132505178 6.196392785571142  11.875776397515528 6.2765531062124245  L 6.086956521739131 11.879759519038076  C 6.004140786749483 11.959919839679358  5.908902691511387 12  5.801242236024844 12  C 5.693581780538302 12  5.5983436853002075 11.959919839679358  5.515527950310559 11.879759519038076  L 4.894409937888199 11.278557114228457  C 4.811594202898552 11.198396793587174  4.770186335403727 11.1062124248497  4.770186335403727 11.002004008016032  C 4.770186335403727 10.897795591182364  4.811594202898552 10.80561122244489  4.894409937888199 10.725450901803608  L 9.77639751552795 6  L 4.894409937888199 1.2745490981963927  C 4.811594202898552 1.1943887775551096  4.770186335403727 1.1022044088176348  4.770186335403727 0.9979959919839683  C 4.770186335403727 0.893787575150299  4.811594202898552 0.8016032064128242  4.894409937888199 0.7214428857715425  L 5.515527950310559 0.12024048096192397  C 5.5983436853002075 0.04008016032064088  5.693581780538302 0  5.801242236024844 0  C 5.908902691511387 0  6.004140786749483 0.04008016032064088  6.086956521739131 0.12024048096192397  L 11.875776397515528 5.7234468937875755  Z " fill-rule="evenodd" />
    </mask>
  </defs>
  <g transform="matrix(1 0 0 1 -126 -6 )">
    <path d="M 7.105590062111801 5.7234468937875755  C 7.188405797101451 5.803607214428857  7.229813664596273 5.895791583166332  7.229813664596273 6  C 7.229813664596273 6.104208416833666  7.188405797101451 6.196392785571142  7.105590062111801 6.2765531062124245  L 1.3167701863354038 11.879759519038076  C 1.2339544513457559 11.959919839679358  1.1387163561076605 12  1.031055900621118 12  C 0.9233954451345757 12  0.8281573498964803 11.959919839679358  0.7453416149068323 11.879759519038076  L 0.12422360248447205 11.278557114228457  C 0.041407867494824044 11.198396793587174  0 11.1062124248497  0 11.002004008016032  C 0 10.897795591182364  0.041407867494824044 10.80561122244489  0.12422360248447205 10.725450901803608  L 5.0062111801242235 6  L 0.12422360248447205 1.2745490981963927  C 0.041407867494824044 1.1943887775551096  0 1.1022044088176348  0 0.9979959919839683  C 0 0.893787575150299  0.041407867494824044 0.8016032064128242  0.12422360248447205 0.7214428857715425  L 0.7453416149068323 0.12024048096192397  C 0.8281573498964803 0.04008016032064088  0.9233954451345757 0  1.031055900621118 0  C 1.1387163561076605 0  1.2339544513457559 0.04008016032064088  1.3167701863354038 0.12024048096192397  L 7.105590062111801 5.7234468937875755  Z M 11.875776397515528 5.7234468937875755  C 11.958592132505178 5.803607214428857  12 5.895791583166332  12 6  C 12 6.104208416833666  11.958592132505178 6.196392785571142  11.875776397515528 6.2765531062124245  L 6.086956521739131 11.879759519038076  C 6.004140786749483 11.959919839679358  5.908902691511387 12  5.801242236024844 12  C 5.693581780538302 12  5.5983436853002075 11.959919839679358  5.515527950310559 11.879759519038076  L 4.894409937888199 11.278557114228457  C 4.811594202898552 11.198396793587174  4.770186335403727 11.1062124248497  4.770186335403727 11.002004008016032  C 4.770186335403727 10.897795591182364  4.811594202898552 10.80561122244489  4.894409937888199 10.725450901803608  L 9.77639751552795 6  L 4.894409937888199 1.2745490981963927  C 4.811594202898552 1.1943887775551096  4.770186335403727 1.1022044088176348  4.770186335403727 0.9979959919839683  C 4.770186335403727 0.893787575150299  4.811594202898552 0.8016032064128242  4.894409937888199 0.7214428857715425  L 5.515527950310559 0.12024048096192397  C 5.5983436853002075 0.04008016032064088  5.693581780538302 0  5.801242236024844 0  C 5.908902691511387 0  6.004140786749483 0.04008016032064088  6.086956521739131 0.12024048096192397  L 11.875776397515528 5.7234468937875755  Z " fill-rule="nonzero" fill="rgba(170, 170, 170, 1)" stroke="none" transform="matrix(1 0 0 1 126 6 )" class="fill" />
    <path d="M 7.105590062111801 5.7234468937875755  C 7.188405797101451 5.803607214428857  7.229813664596273 5.895791583166332  7.229813664596273 6  C 7.229813664596273 6.104208416833666  7.188405797101451 6.196392785571142  7.105590062111801 6.2765531062124245  L 1.3167701863354038 11.879759519038076  C 1.2339544513457559 11.959919839679358  1.1387163561076605 12  1.031055900621118 12  C 0.9233954451345757 12  0.8281573498964803 11.959919839679358  0.7453416149068323 11.879759519038076  L 0.12422360248447205 11.278557114228457  C 0.041407867494824044 11.198396793587174  0 11.1062124248497  0 11.002004008016032  C 0 10.897795591182364  0.041407867494824044 10.80561122244489  0.12422360248447205 10.725450901803608  L 5.0062111801242235 6  L 0.12422360248447205 1.2745490981963927  C 0.041407867494824044 1.1943887775551096  0 1.1022044088176348  0 0.9979959919839683  C 0 0.893787575150299  0.041407867494824044 0.8016032064128242  0.12422360248447205 0.7214428857715425  L 0.7453416149068323 0.12024048096192397  C 0.8281573498964803 0.04008016032064088  0.9233954451345757 0  1.031055900621118 0  C 1.1387163561076605 0  1.2339544513457559 0.04008016032064088  1.3167701863354038 0.12024048096192397  L 7.105590062111801 5.7234468937875755  Z " stroke-width="0" stroke-dasharray="0" stroke="rgba(255, 255, 255, 0)" fill="none" transform="matrix(1 0 0 1 126 6 )" class="stroke" mask="url(#Clip866)" />
    <path d="M 11.875776397515528 5.7234468937875755  C 11.958592132505178 5.803607214428857  12 5.895791583166332  12 6  C 12 6.104208416833666  11.958592132505178 6.196392785571142  11.875776397515528 6.2765531062124245  L 6.086956521739131 11.879759519038076  C 6.004140786749483 11.959919839679358  5.908902691511387 12  5.801242236024844 12  C 5.693581780538302 12  5.5983436853002075 11.959919839679358  5.515527950310559 11.879759519038076  L 4.894409937888199 11.278557114228457  C 4.811594202898552 11.198396793587174  4.770186335403727 11.1062124248497  4.770186335403727 11.002004008016032  C 4.770186335403727 10.897795591182364  4.811594202898552 10.80561122244489  4.894409937888199 10.725450901803608  L 9.77639751552795 6  L 4.894409937888199 1.2745490981963927  C 4.811594202898552 1.1943887775551096  4.770186335403727 1.1022044088176348  4.770186335403727 0.9979959919839683  C 4.770186335403727 0.893787575150299  4.811594202898552 0.8016032064128242  4.894409937888199 0.7214428857715425  L 5.515527950310559 0.12024048096192397  C 5.5983436853002075 0.04008016032064088  5.693581780538302 0  5.801242236024844 0  C 5.908902691511387 0  6.004140786749483 0.04008016032064088  6.086956521739131 0.12024048096192397  L 11.875776397515528 5.7234468937875755  Z " stroke-width="0" stroke-dasharray="0" stroke="rgba(255, 255, 255, 0)" fill="none" transform="matrix(1 0 0 1 126 6 )" class="stroke" mask="url(#Clip866)" />
  </g>
</svg>