<?xml version="1.0" encoding="utf-8"?>
<svg version="1.1" xmlns:xlink="http://www.w3.org/1999/xlink" width="25px" height="87px" xmlns="http://www.w3.org/2000/svg">
  <defs>
    <pattern id="BGPattern" patternUnits="userSpaceOnUse" alignment="0 0" imageRepeat="None" />
    <mask fill="white" id="Clip492">
      <path d="M 5 87  L 25 87  L 25 5  L 22.5 5  L 22.5 2.5  L 20 2.5  L 20 0  L 0 0  L 0 82  L 2.5 82  L 2.5 84.5  L 5 84.5  L 5 87  Z " fill-rule="evenodd" />
    </mask>
  </defs>
  <g>
    <path d="M 5 87  L 25 87  L 25 5  L 22.5 5  L 22.5 2.5  L 20 2.5  L 20 0  L 0 0  L 0 82  L 2.5 82  L 2.5 84.5  L 5 84.5  L 5 87  Z M 22 6  L 6.000000000000001 84.5  L 22 84.5  L 22 6  Z M 19.5 3.5  L 3.5000000000000004 81.5  L 19.5 81.5  L 19.5 3.5  Z " fill-rule="nonzero" fill="rgba(149, 242, 4, 1)" stroke="none" class="fill" />
    <path d="M 5 87  L 25 87  L 25 5  L 22.5 5  L 22.5 2.5  L 20 2.5  L 20 0  L 0 0  L 0 82  L 2.5 82  L 2.5 84.5  L 5 84.5  L 5 87  Z " stroke-width="2" stroke-dasharray="0" stroke="rgba(99, 161, 3, 1)" fill="none" class="stroke" mask="url(#Clip492)" />
    <path d="M 6.000000000000001 84.5  L 22 84.5  L 22 6  M 3.5000000000000004 81.5  L 19.5 81.5  L 19.5 3.5  " stroke-width="1" stroke-dasharray="0" stroke="rgba(99, 161, 3, 1)" fill="none" class="stroke" />
  </g>
</svg>