<?xml version="1.0" encoding="utf-8"?>
<svg version="1.1" xmlns:xlink="http://www.w3.org/1999/xlink" width="14px" height="11px" xmlns="http://www.w3.org/2000/svg">
  <defs>
    <pattern id="BGPattern" patternUnits="userSpaceOnUse" alignment="0 0" imageRepeat="None" />
    <mask fill="white" id="Clip504">
      <path d="M 2.625 5.5  L 4.375 5.5  L 4.375 9.166666666666668  L 2.625 9.166666666666668  L 2.625 5.5  Z M 5.25 1.833333333333333  L 7 1.833333333333333  L 7 9.166666666666668  L 5.25 9.166666666666668  L 5.25 1.833333333333333  Z M 1 10  L 14 10  L 14 11  L 0 11  L 0 0  L 1 0  L 1 10  Z M 7.875 3.666666666666667  L 9.625 3.666666666666667  L 9.625 9.166666666666668  L 7.875 9.166666666666668  L 7.875 3.666666666666667  Z M 10.5 0.9166666666666671  L 12.25 0.9166666666666671  L 12.25 9.166666666666668  L 10.5 9.166666666666668  L 10.5 0.9166666666666671  Z " fill-rule="evenodd" />
    </mask>
  </defs>
  <g transform="matrix(1 0 0 1 -6 -12 )">
    <path d="M 2.625 5.5  L 4.375 5.5  L 4.375 9.166666666666668  L 2.625 9.166666666666668  L 2.625 5.5  Z M 5.25 1.833333333333333  L 7 1.833333333333333  L 7 9.166666666666668  L 5.25 9.166666666666668  L 5.25 1.833333333333333  Z M 1 10  L 14 10  L 14 11  L 0 11  L 0 0  L 1 0  L 1 10  Z M 7.875 3.666666666666667  L 9.625 3.666666666666667  L 9.625 9.166666666666668  L 7.875 9.166666666666668  L 7.875 3.666666666666667  Z M 10.5 0.9166666666666671  L 12.25 0.9166666666666671  L 12.25 9.166666666666668  L 10.5 9.166666666666668  L 10.5 0.9166666666666671  Z " fill-rule="nonzero" fill="rgba(255, 255, 255, 1)" stroke="none" transform="matrix(1 0 0 1 6 12 )" class="fill" />
    <path d="M 2.625 5.5  L 4.375 5.5  L 4.375 9.166666666666668  L 2.625 9.166666666666668  L 2.625 5.5  Z " stroke-width="0" stroke-dasharray="0" stroke="rgba(255, 255, 255, 0)" fill="none" transform="matrix(1 0 0 1 6 12 )" class="stroke" mask="url(#Clip504)" />
    <path d="M 5.25 1.833333333333333  L 7 1.833333333333333  L 7 9.166666666666668  L 5.25 9.166666666666668  L 5.25 1.833333333333333  Z " stroke-width="0" stroke-dasharray="0" stroke="rgba(255, 255, 255, 0)" fill="none" transform="matrix(1 0 0 1 6 12 )" class="stroke" mask="url(#Clip504)" />
    <path d="M 1 10  L 14 10  L 14 11  L 0 11  L 0 0  L 1 0  L 1 10  Z " stroke-width="0" stroke-dasharray="0" stroke="rgba(255, 255, 255, 0)" fill="none" transform="matrix(1 0 0 1 6 12 )" class="stroke" mask="url(#Clip504)" />
    <path d="M 7.875 3.666666666666667  L 9.625 3.666666666666667  L 9.625 9.166666666666668  L 7.875 9.166666666666668  L 7.875 3.666666666666667  Z " stroke-width="0" stroke-dasharray="0" stroke="rgba(255, 255, 255, 0)" fill="none" transform="matrix(1 0 0 1 6 12 )" class="stroke" mask="url(#Clip504)" />
    <path d="M 10.5 0.9166666666666671  L 12.25 0.9166666666666671  L 12.25 9.166666666666668  L 10.5 9.166666666666668  L 10.5 0.9166666666666671  Z " stroke-width="0" stroke-dasharray="0" stroke="rgba(255, 255, 255, 0)" fill="none" transform="matrix(1 0 0 1 6 12 )" class="stroke" mask="url(#Clip504)" />
  </g>
</svg>