<?xml version="1.0" encoding="utf-8"?>
<svg version="1.1" xmlns:xlink="http://www.w3.org/1999/xlink" width="14px" height="14px" xmlns="http://www.w3.org/2000/svg">
  <defs>
    <pattern id="BGPattern" patternUnits="userSpaceOnUse" alignment="0 0" imageRepeat="None" />
    <mask fill="white" id="Clip662">
      <path d="M 9.48828125 2.70703125  C 8.72873263888889 2.2634548611111107  7.899305555555556 2.041666666666667  7 2.041666666666667  C 6.100694444444445 2.041666666666667  5.271267361111112 2.2634548611111107  4.51171875 2.70703125  C 3.7521701388888893 3.1506076388888875  3.1506076388888893 3.7521701388888875  2.70703125 4.51171875  C 2.263454861111111 5.271267361111111  2.041666666666667 6.100694444444444  2.041666666666667 7  C 2.041666666666667 7.899305555555556  2.263454861111111 8.728732638888888  2.70703125 9.48828125  C 3.1506076388888893 10.247829861111109  3.7521701388888893 10.84939236111111  4.51171875 11.29296875  C 5.271267361111112 11.73654513888889  6.100694444444445 11.958333333333332  7 11.958333333333332  C 7.899305555555556 11.958333333333332  8.72873263888889 11.73654513888889  9.48828125 11.29296875  C 10.247829861111112 10.84939236111111  10.849392361111112 10.247829861111109  11.29296875 9.48828125  C 11.73654513888889 8.728732638888888  11.958333333333332 7.899305555555556  11.958333333333332 7  C 11.958333333333332 6.100694444444444  11.73654513888889 5.271267361111111  11.29296875 4.51171875  C 10.849392361111112 3.7521701388888875  10.247829861111112 3.1506076388888875  9.48828125 2.70703125  Z M 13.061197916666668 3.486328125  C 13.68706597222222 4.5588107638888875  14 5.7300347222222205  14 7  C 14 8.269965277777779  13.68706597222222 9.441189236111109  13.061197916666668 10.513671875  C 12.435329861111112 11.58615451388889  11.58615451388889 12.43532986111111  10.513671875 13.061197916666668  C 9.441189236111112 13.687065972222223  8.269965277777779 14  7 14  C 5.730034722222222 14  4.558810763888889 13.687065972222223  3.486328125 13.061197916666668  C 2.413845486111111 12.43532986111111  1.564670138888889 11.58615451388889  0.9388020833333334 10.513671875  C 0.31293402777777773 9.441189236111109  0 8.269965277777779  0 7  C 0 5.7300347222222205  0.31293402777777773 4.5588107638888875  0.9388020833333334 3.486328125  C 1.564670138888889 2.4138454861111107  2.413845486111111 1.5646701388888875  3.486328125 0.9388020833333328  C 4.558810763888889 0.31293402777777657  5.730034722222222 0  7 0  C 8.269965277777779 0  9.441189236111112 0.31293402777777657  10.513671875 0.9388020833333328  C 11.58615451388889 1.5646701388888875  12.435329861111112 2.4138454861111107  13.061197916666668 3.486328125  Z " fill-rule="evenodd" />
    </mask>
  </defs>
  <g transform="matrix(1 0 0 1 -5 -10 )">
    <path d="M 9.48828125 2.70703125  C 8.72873263888889 2.2634548611111107  7.899305555555556 2.041666666666667  7 2.041666666666667  C 6.100694444444445 2.041666666666667  5.271267361111112 2.2634548611111107  4.51171875 2.70703125  C 3.7521701388888893 3.1506076388888875  3.1506076388888893 3.7521701388888875  2.70703125 4.51171875  C 2.263454861111111 5.271267361111111  2.041666666666667 6.100694444444444  2.041666666666667 7  C 2.041666666666667 7.899305555555556  2.263454861111111 8.728732638888888  2.70703125 9.48828125  C 3.1506076388888893 10.247829861111109  3.7521701388888893 10.84939236111111  4.51171875 11.29296875  C 5.271267361111112 11.73654513888889  6.100694444444445 11.958333333333332  7 11.958333333333332  C 7.899305555555556 11.958333333333332  8.72873263888889 11.73654513888889  9.48828125 11.29296875  C 10.247829861111112 10.84939236111111  10.849392361111112 10.247829861111109  11.29296875 9.48828125  C 11.73654513888889 8.728732638888888  11.958333333333332 7.899305555555556  11.958333333333332 7  C 11.958333333333332 6.100694444444444  11.73654513888889 5.271267361111111  11.29296875 4.51171875  C 10.849392361111112 3.7521701388888875  10.247829861111112 3.1506076388888875  9.48828125 2.70703125  Z M 13.061197916666668 3.486328125  C 13.68706597222222 4.5588107638888875  14 5.7300347222222205  14 7  C 14 8.269965277777779  13.68706597222222 9.441189236111109  13.061197916666668 10.513671875  C 12.435329861111112 11.58615451388889  11.58615451388889 12.43532986111111  10.513671875 13.061197916666668  C 9.441189236111112 13.687065972222223  8.269965277777779 14  7 14  C 5.730034722222222 14  4.558810763888889 13.687065972222223  3.486328125 13.061197916666668  C 2.413845486111111 12.43532986111111  1.564670138888889 11.58615451388889  0.9388020833333334 10.513671875  C 0.31293402777777773 9.441189236111109  0 8.269965277777779  0 7  C 0 5.7300347222222205  0.31293402777777773 4.5588107638888875  0.9388020833333334 3.486328125  C 1.564670138888889 2.4138454861111107  2.413845486111111 1.5646701388888875  3.486328125 0.9388020833333328  C 4.558810763888889 0.31293402777777657  5.730034722222222 0  7 0  C 8.269965277777779 0  9.441189236111112 0.31293402777777657  10.513671875 0.9388020833333328  C 11.58615451388889 1.5646701388888875  12.435329861111112 2.4138454861111107  13.061197916666668 3.486328125  Z " fill-rule="nonzero" fill="rgba(215, 215, 215, 1)" stroke="none" transform="matrix(1 0 0 1 5 10 )" class="fill" />
    <path d="M 9.48828125 2.70703125  C 8.72873263888889 2.2634548611111107  7.899305555555556 2.041666666666667  7 2.041666666666667  C 6.100694444444445 2.041666666666667  5.271267361111112 2.2634548611111107  4.51171875 2.70703125  C 3.7521701388888893 3.1506076388888875  3.1506076388888893 3.7521701388888875  2.70703125 4.51171875  C 2.263454861111111 5.271267361111111  2.041666666666667 6.100694444444444  2.041666666666667 7  C 2.041666666666667 7.899305555555556  2.263454861111111 8.728732638888888  2.70703125 9.48828125  C 3.1506076388888893 10.247829861111109  3.7521701388888893 10.84939236111111  4.51171875 11.29296875  C 5.271267361111112 11.73654513888889  6.100694444444445 11.958333333333332  7 11.958333333333332  C 7.899305555555556 11.958333333333332  8.72873263888889 11.73654513888889  9.48828125 11.29296875  C 10.247829861111112 10.84939236111111  10.849392361111112 10.247829861111109  11.29296875 9.48828125  C 11.73654513888889 8.728732638888888  11.958333333333332 7.899305555555556  11.958333333333332 7  C 11.958333333333332 6.100694444444444  11.73654513888889 5.271267361111111  11.29296875 4.51171875  C 10.849392361111112 3.7521701388888875  10.247829861111112 3.1506076388888875  9.48828125 2.70703125  Z " stroke-width="0" stroke-dasharray="0" stroke="rgba(255, 255, 255, 0)" fill="none" transform="matrix(1 0 0 1 5 10 )" class="stroke" mask="url(#Clip662)" />
    <path d="M 13.061197916666668 3.486328125  C 13.68706597222222 4.5588107638888875  14 5.7300347222222205  14 7  C 14 8.269965277777779  13.68706597222222 9.441189236111109  13.061197916666668 10.513671875  C 12.435329861111112 11.58615451388889  11.58615451388889 12.43532986111111  10.513671875 13.061197916666668  C 9.441189236111112 13.687065972222223  8.269965277777779 14  7 14  C 5.730034722222222 14  4.558810763888889 13.687065972222223  3.486328125 13.061197916666668  C 2.413845486111111 12.43532986111111  1.564670138888889 11.58615451388889  0.9388020833333334 10.513671875  C 0.31293402777777773 9.441189236111109  0 8.269965277777779  0 7  C 0 5.7300347222222205  0.31293402777777773 4.5588107638888875  0.9388020833333334 3.486328125  C 1.564670138888889 2.4138454861111107  2.413845486111111 1.5646701388888875  3.486328125 0.9388020833333328  C 4.558810763888889 0.31293402777777657  5.730034722222222 0  7 0  C 8.269965277777779 0  9.441189236111112 0.31293402777777657  10.513671875 0.9388020833333328  C 11.58615451388889 1.5646701388888875  12.435329861111112 2.4138454861111107  13.061197916666668 3.486328125  Z " stroke-width="0" stroke-dasharray="0" stroke="rgba(255, 255, 255, 0)" fill="none" transform="matrix(1 0 0 1 5 10 )" class="stroke" mask="url(#Clip662)" />
  </g>
</svg>