<?xml version="1.0" encoding="utf-8"?>
<svg version="1.1" xmlns:xlink="http://www.w3.org/1999/xlink" width="14px" height="11px" xmlns="http://www.w3.org/2000/svg">
  <defs>
    <pattern id="BGPattern" patternUnits="userSpaceOnUse" alignment="0 0" imageRepeat="None" />
    <mask fill="white" id="Clip855">
      <path d="M 2.92578125 3.0742187499999996  C 2.9752604166666665 3.123697916666666  3 3.1822916666666656  3 3.2499999999999996  L 3 7.75  C 3 7.817708333333332  2.9752604166666665 7.876302083333331  2.92578125 7.925781249999999  C 2.8763020833333335 7.975260416666668  2.8177083333333335 8  2.75 8  C 2.6770833333333335 8  2.6171875 7.9765625  2.5703125 7.929687500000001  L 0.3203125 5.6796875  C 0.2734375 5.6328125  0.25 5.572916666666666  0.25 5.5  C 0.25 5.427083333333332  0.2734375 5.3671875  0.3203125 5.3203125  L 2.5703125 3.0703125000000004  C 2.6171875 3.0234375000000004  2.6770833333333335 3  2.75 3  C 2.8177083333333335 3  2.8763020833333335 3.0247395833333326  2.92578125 3.0742187499999996  Z M 13.92578125 9.07421875  C 13.975260416666668 9.123697916666666  14 9.182291666666666  14 9.25  L 14 10.75  C 14 10.817708333333334  13.975260416666668 10.876302083333334  13.92578125 10.92578125  C 13.876302083333336 10.975260416666666  13.817708333333336 11  13.75 11  L 0.25 11  C 0.18229166666666669 11  0.12369791666666666 10.975260416666666  0.07421875 10.92578125  C 0.024739583333333332 10.876302083333334  0 10.817708333333334  0 10.75  L 0 9.25  C 0 9.182291666666666  0.024739583333333332 9.123697916666666  0.07421875 9.07421875  C 0.12369791666666666 9.024739583333334  0.18229166666666669 9  0.25 9  L 13.75 9  C 13.817708333333336 9  13.876302083333336 9.024739583333334  13.92578125 9.07421875  Z M 13.92578125 6.07421875  C 13.975260416666668 6.123697916666666  14 6.182291666666666  14 6.249999999999999  L 14 7.75  C 14 7.817708333333332  13.975260416666668 7.876302083333331  13.92578125 7.925781249999999  C 13.876302083333336 7.975260416666668  13.817708333333336 8  13.75 8  L 5.25 8  C 5.182291666666667 8  5.123697916666667 7.975260416666668  5.07421875 7.925781249999999  C 5.024739583333334 7.876302083333331  5 7.817708333333332  5 7.75  L 5 6.249999999999999  C 5 6.182291666666666  5.024739583333334 6.123697916666666  5.07421875 6.07421875  C 5.123697916666667 6.024739583333332  5.182291666666667 6  5.25 6  L 13.75 6  C 13.817708333333336 6  13.876302083333336 6.024739583333332  13.92578125 6.07421875  Z M 13.92578125 3.0742187499999996  C 13.975260416666668 3.123697916666666  14 3.1822916666666656  14 3.2499999999999996  L 14 4.749999999999999  C 14 4.817708333333334  13.975260416666668 4.876302083333333  13.92578125 4.92578125  C 13.876302083333336 4.975260416666666  13.817708333333336 5  13.75 5  L 5.25 5  C 5.182291666666667 5  5.123697916666667 4.975260416666666  5.07421875 4.92578125  C 5.024739583333334 4.876302083333333  5 4.817708333333334  5 4.749999999999999  L 5 3.2499999999999996  C 5 3.1822916666666656  5.024739583333334 3.123697916666666  5.07421875 3.0742187499999996  C 5.123697916666667 3.0247395833333326  5.182291666666667 3  5.25 3  L 13.75 3  C 13.817708333333336 3  13.876302083333336 3.0247395833333326  13.92578125 3.0742187499999996  Z M 13.92578125 0.07421874999999967  C 13.975260416666668 0.12369791666666652  14 0.18229166666666574  14 0.24999999999999978  L 14 1.7499999999999996  C 14 1.8177083333333326  13.975260416666668 1.8763020833333317  13.92578125 1.9257812499999998  C 13.876302083333336 1.9752604166666665  13.817708333333336 1.9999999999999996  13.75 2  L 0.25 2  C 0.18229166666666669 1.9999999999999996  0.12369791666666666 1.9752604166666665  0.07421875 1.9257812499999998  C 0.024739583333333332 1.8763020833333317  0 1.8177083333333326  0 1.7499999999999996  L 0 0.24999999999999978  C 0 0.18229166666666574  0.024739583333333332 0.12369791666666652  0.07421875 0.07421874999999967  C 0.12369791666666666 0.024739583333331594  0.18229166666666669 0  0.25 0  L 13.75 0  C 13.817708333333336 0  13.876302083333336 0.024739583333331594  13.92578125 0.07421874999999967  Z " fill-rule="evenodd" />
    </mask>
  </defs>
  <g transform="matrix(1 0 0 1 -237 -649 )">
    <path d="M 2.92578125 3.0742187499999996  C 2.9752604166666665 3.123697916666666  3 3.1822916666666656  3 3.2499999999999996  L 3 7.75  C 3 7.817708333333332  2.9752604166666665 7.876302083333331  2.92578125 7.925781249999999  C 2.8763020833333335 7.975260416666668  2.8177083333333335 8  2.75 8  C 2.6770833333333335 8  2.6171875 7.9765625  2.5703125 7.929687500000001  L 0.3203125 5.6796875  C 0.2734375 5.6328125  0.25 5.572916666666666  0.25 5.5  C 0.25 5.427083333333332  0.2734375 5.3671875  0.3203125 5.3203125  L 2.5703125 3.0703125000000004  C 2.6171875 3.0234375000000004  2.6770833333333335 3  2.75 3  C 2.8177083333333335 3  2.8763020833333335 3.0247395833333326  2.92578125 3.0742187499999996  Z M 13.92578125 9.07421875  C 13.975260416666668 9.123697916666666  14 9.182291666666666  14 9.25  L 14 10.75  C 14 10.817708333333334  13.975260416666668 10.876302083333334  13.92578125 10.92578125  C 13.876302083333336 10.975260416666666  13.817708333333336 11  13.75 11  L 0.25 11  C 0.18229166666666669 11  0.12369791666666666 10.975260416666666  0.07421875 10.92578125  C 0.024739583333333332 10.876302083333334  0 10.817708333333334  0 10.75  L 0 9.25  C 0 9.182291666666666  0.024739583333333332 9.123697916666666  0.07421875 9.07421875  C 0.12369791666666666 9.024739583333334  0.18229166666666669 9  0.25 9  L 13.75 9  C 13.817708333333336 9  13.876302083333336 9.024739583333334  13.92578125 9.07421875  Z M 13.92578125 6.07421875  C 13.975260416666668 6.123697916666666  14 6.182291666666666  14 6.249999999999999  L 14 7.75  C 14 7.817708333333332  13.975260416666668 7.876302083333331  13.92578125 7.925781249999999  C 13.876302083333336 7.975260416666668  13.817708333333336 8  13.75 8  L 5.25 8  C 5.182291666666667 8  5.123697916666667 7.975260416666668  5.07421875 7.925781249999999  C 5.024739583333334 7.876302083333331  5 7.817708333333332  5 7.75  L 5 6.249999999999999  C 5 6.182291666666666  5.024739583333334 6.123697916666666  5.07421875 6.07421875  C 5.123697916666667 6.024739583333332  5.182291666666667 6  5.25 6  L 13.75 6  C 13.817708333333336 6  13.876302083333336 6.024739583333332  13.92578125 6.07421875  Z M 13.92578125 3.0742187499999996  C 13.975260416666668 3.123697916666666  14 3.1822916666666656  14 3.2499999999999996  L 14 4.749999999999999  C 14 4.817708333333334  13.975260416666668 4.876302083333333  13.92578125 4.92578125  C 13.876302083333336 4.975260416666666  13.817708333333336 5  13.75 5  L 5.25 5  C 5.182291666666667 5  5.123697916666667 4.975260416666666  5.07421875 4.92578125  C 5.024739583333334 4.876302083333333  5 4.817708333333334  5 4.749999999999999  L 5 3.2499999999999996  C 5 3.1822916666666656  5.024739583333334 3.123697916666666  5.07421875 3.0742187499999996  C 5.123697916666667 3.0247395833333326  5.182291666666667 3  5.25 3  L 13.75 3  C 13.817708333333336 3  13.876302083333336 3.0247395833333326  13.92578125 3.0742187499999996  Z M 13.92578125 0.07421874999999967  C 13.975260416666668 0.12369791666666652  14 0.18229166666666574  14 0.24999999999999978  L 14 1.7499999999999996  C 14 1.8177083333333326  13.975260416666668 1.8763020833333317  13.92578125 1.9257812499999998  C 13.876302083333336 1.9752604166666665  13.817708333333336 1.9999999999999996  13.75 2  L 0.25 2  C 0.18229166666666669 1.9999999999999996  0.12369791666666666 1.9752604166666665  0.07421875 1.9257812499999998  C 0.024739583333333332 1.8763020833333317  0 1.8177083333333326  0 1.7499999999999996  L 0 0.24999999999999978  C 0 0.18229166666666574  0.024739583333333332 0.12369791666666652  0.07421875 0.07421874999999967  C 0.12369791666666666 0.024739583333331594  0.18229166666666669 0  0.25 0  L 13.75 0  C 13.817708333333336 0  13.876302083333336 0.024739583333331594  13.92578125 0.07421874999999967  Z " fill-rule="nonzero" fill="rgba(0, 0, 0, 1)" stroke="none" transform="matrix(1 0 0 1 237 649 )" class="fill" />
    <path d="M 2.92578125 3.0742187499999996  C 2.9752604166666665 3.123697916666666  3 3.1822916666666656  3 3.2499999999999996  L 3 7.75  C 3 7.817708333333332  2.9752604166666665 7.876302083333331  2.92578125 7.925781249999999  C 2.8763020833333335 7.975260416666668  2.8177083333333335 8  2.75 8  C 2.6770833333333335 8  2.6171875 7.9765625  2.5703125 7.929687500000001  L 0.3203125 5.6796875  C 0.2734375 5.6328125  0.25 5.572916666666666  0.25 5.5  C 0.25 5.427083333333332  0.2734375 5.3671875  0.3203125 5.3203125  L 2.5703125 3.0703125000000004  C 2.6171875 3.0234375000000004  2.6770833333333335 3  2.75 3  C 2.8177083333333335 3  2.8763020833333335 3.0247395833333326  2.92578125 3.0742187499999996  Z " stroke-width="0" stroke-dasharray="0" stroke="rgba(255, 255, 255, 0)" fill="none" transform="matrix(1 0 0 1 237 649 )" class="stroke" mask="url(#Clip855)" />
    <path d="M 13.92578125 9.07421875  C 13.975260416666668 9.123697916666666  14 9.182291666666666  14 9.25  L 14 10.75  C 14 10.817708333333334  13.975260416666668 10.876302083333334  13.92578125 10.92578125  C 13.876302083333336 10.975260416666666  13.817708333333336 11  13.75 11  L 0.25 11  C 0.18229166666666669 11  0.12369791666666666 10.975260416666666  0.07421875 10.92578125  C 0.024739583333333332 10.876302083333334  0 10.817708333333334  0 10.75  L 0 9.25  C 0 9.182291666666666  0.024739583333333332 9.123697916666666  0.07421875 9.07421875  C 0.12369791666666666 9.024739583333334  0.18229166666666669 9  0.25 9  L 13.75 9  C 13.817708333333336 9  13.876302083333336 9.024739583333334  13.92578125 9.07421875  Z " stroke-width="0" stroke-dasharray="0" stroke="rgba(255, 255, 255, 0)" fill="none" transform="matrix(1 0 0 1 237 649 )" class="stroke" mask="url(#Clip855)" />
    <path d="M 13.92578125 6.07421875  C 13.975260416666668 6.123697916666666  14 6.182291666666666  14 6.249999999999999  L 14 7.75  C 14 7.817708333333332  13.975260416666668 7.876302083333331  13.92578125 7.925781249999999  C 13.876302083333336 7.975260416666668  13.817708333333336 8  13.75 8  L 5.25 8  C 5.182291666666667 8  5.123697916666667 7.975260416666668  5.07421875 7.925781249999999  C 5.024739583333334 7.876302083333331  5 7.817708333333332  5 7.75  L 5 6.249999999999999  C 5 6.182291666666666  5.024739583333334 6.123697916666666  5.07421875 6.07421875  C 5.123697916666667 6.024739583333332  5.182291666666667 6  5.25 6  L 13.75 6  C 13.817708333333336 6  13.876302083333336 6.024739583333332  13.92578125 6.07421875  Z " stroke-width="0" stroke-dasharray="0" stroke="rgba(255, 255, 255, 0)" fill="none" transform="matrix(1 0 0 1 237 649 )" class="stroke" mask="url(#Clip855)" />
    <path d="M 13.92578125 3.0742187499999996  C 13.975260416666668 3.123697916666666  14 3.1822916666666656  14 3.2499999999999996  L 14 4.749999999999999  C 14 4.817708333333334  13.975260416666668 4.876302083333333  13.92578125 4.92578125  C 13.876302083333336 4.975260416666666  13.817708333333336 5  13.75 5  L 5.25 5  C 5.182291666666667 5  5.123697916666667 4.975260416666666  5.07421875 4.92578125  C 5.024739583333334 4.876302083333333  5 4.817708333333334  5 4.749999999999999  L 5 3.2499999999999996  C 5 3.1822916666666656  5.024739583333334 3.123697916666666  5.07421875 3.0742187499999996  C 5.123697916666667 3.0247395833333326  5.182291666666667 3  5.25 3  L 13.75 3  C 13.817708333333336 3  13.876302083333336 3.0247395833333326  13.92578125 3.0742187499999996  Z " stroke-width="0" stroke-dasharray="0" stroke="rgba(255, 255, 255, 0)" fill="none" transform="matrix(1 0 0 1 237 649 )" class="stroke" mask="url(#Clip855)" />
    <path d="M 13.92578125 0.07421874999999967  C 13.975260416666668 0.12369791666666652  14 0.18229166666666574  14 0.24999999999999978  L 14 1.7499999999999996  C 14 1.8177083333333326  13.975260416666668 1.8763020833333317  13.92578125 1.9257812499999998  C 13.876302083333336 1.9752604166666665  13.817708333333336 1.9999999999999996  13.75 2  L 0.25 2  C 0.18229166666666669 1.9999999999999996  0.12369791666666666 1.9752604166666665  0.07421875 1.9257812499999998  C 0.024739583333333332 1.8763020833333317  0 1.8177083333333326  0 1.7499999999999996  L 0 0.24999999999999978  C 0 0.18229166666666574  0.024739583333333332 0.12369791666666652  0.07421875 0.07421874999999967  C 0.12369791666666666 0.024739583333331594  0.18229166666666669 0  0.25 0  L 13.75 0  C 13.817708333333336 0  13.876302083333336 0.024739583333331594  13.92578125 0.07421874999999967  Z " stroke-width="0" stroke-dasharray="0" stroke="rgba(255, 255, 255, 0)" fill="none" transform="matrix(1 0 0 1 237 649 )" class="stroke" mask="url(#Clip855)" />
  </g>
</svg>