<?xml version="1.0" encoding="utf-8"?>
<svg version="1.1" xmlns:xlink="http://www.w3.org/1999/xlink" width="20px" height="20px" preserveAspectRatio="xMinYMid meet" viewBox="614 461 20 18" xmlns="http://www.w3.org/2000/svg">
  <path d="M 740 530  L 740 475  A 5 5 0 0 0 735 470 L 624 470  " stroke-width="2" stroke-dasharray="0" stroke="rgba(0, 0, 170, 1)" fill="none" class="stroke" />
  <path d="M 740 525  A 3.5 3.5 0 0 0 736.5 528.5 A 3.5 3.5 0 0 0 740 532 A 3.5 3.5 0 0 0 743.5 528.5 A 3.5 3.5 0 0 0 740 525 Z M 629.1071067811865 474.29289321881345  L 624.8142135623731 470  L 629.1071067811865 465.70710678118655  L 627.6928932188134 464.29289321881345  L 622.6928932188134 469.29289321881345  L 621.9857864376269 470  L 622.6928932188134 470.70710678118655  L 627.6928932188134 475.70710678118655  L 629.1071067811865 474.29289321881345  Z " fill-rule="nonzero" fill="rgba(0, 0, 170, 1)" stroke="none" class="fill" />
</svg>