<?xml version="1.0" encoding="utf-8"?>
<svg version="1.1" xmlns:xlink="http://www.w3.org/1999/xlink" width="84px" height="30px" xmlns="http://www.w3.org/2000/svg">
  <defs>
    <linearGradient gradientUnits="userSpaceOnUse" x1="42" y1="0" x2="42" y2="30" id="LinearGradient547">
      <stop id="Stop548" stop-color="#f5eb7d" offset="0" />
      <stop id="Stop549" stop-color="#e7c95a" offset="1" />
    </linearGradient>
    <pattern id="BGPattern" patternUnits="userSpaceOnUse" alignment="0 0" imageRepeat="None" />
    <mask fill="white" id="Clip550">
      <path d="M 0 25  L 0 5  C 0 2.1999999999999997  2.1999999999999993 0  5 0  L 79 0  C 81.8 0  84 2.1999999999999997  84 5  L 84 25  C 84 27.8  81.8 30  79 30  L 5 30  C 2.1999999999999993 30  0 27.8  0 25  Z " fill-rule="evenodd" />
    </mask>
  </defs>
  <g transform="matrix(1 0 0 1 -78 -104 )">
    <path d="M 0 25  L 0 5  C 0 2.1999999999999997  2.1999999999999993 0  5 0  L 79 0  C 81.8 0  84 2.1999999999999997  84 5  L 84 25  C 84 27.8  81.8 30  79 30  L 5 30  C 2.1999999999999993 30  0 27.8  0 25  Z " fill-rule="nonzero" fill="url(#LinearGradient547)" stroke="none" transform="matrix(1 0 0 1 78 104 )" class="fill" />
    <path d="M 0 25  L 0 5  C 0 2.1999999999999997  2.1999999999999993 0  5 0  L 79 0  C 81.8 0  84 2.1999999999999997  84 5  L 84 25  C 84 27.8  81.8 30  79 30  L 5 30  C 2.1999999999999993 30  0 27.8  0 25  Z " stroke-width="0" stroke-dasharray="0" stroke="rgba(121, 121, 121, 1)" fill="none" transform="matrix(1 0 0 1 78 104 )" class="stroke" mask="url(#Clip550)" />
  </g>
</svg>