<?xml version="1.0" encoding="utf-8"?>
<svg version="1.1" xmlns:xlink="http://www.w3.org/1999/xlink" width="11px" height="19px" xmlns="http://www.w3.org/2000/svg">
  <defs>
    <radialGradient cx="5.5413455133694915" cy="4.2903225806451575" r="9.024999999999993" gradientTransform="matrix(-0.5789473684210531 1.8698493046318437E-15 -3.229739708000455E-15 -1 8.749492915846583 8.580645161290304 )" gradientUnits="userSpaceOnUse" id="RadialGradient1321">
      <stop id="Stop1322" stop-color="#f4e494" offset="0" />
      <stop id="Stop1323" stop-color="#e1b766" offset="1" />
    </radialGradient>
    <pattern id="BGPattern" patternUnits="userSpaceOnUse" alignment="0 0" imageRepeat="None" />
    <mask fill="white" id="Clip1324">
      <path d="M 6.309244791666667 17.938671875  C 6.533637152777779 17.706119791666666  6.645833333333333 17.4265625  6.645833333333333 17.1  C 6.645833333333333 16.7734375  6.533637152777779 16.493880208333334  6.309244791666667 16.261328125  C 6.084852430555555 16.028776041666664  5.815104166666667 15.9125  5.5 15.9125  C 5.184895833333334 15.9125  4.915147569444445 16.028776041666664  4.690755208333334 16.261328125  C 4.466362847222223 16.493880208333334  4.354166666666666 16.7734375  4.354166666666666 17.1  C 4.354166666666666 17.4265625  4.466362847222223 17.706119791666666  4.690755208333334 17.938671875  C 4.915147569444445 18.171223958333336  5.184895833333334 18.2875  5.5 18.2875  C 5.815104166666667 18.2875  6.084852430555555 18.171223958333336  6.309244791666667 17.938671875  Z M 9.488932291666668 15.058984375  C 9.579644097222223 14.964973958333331  9.625 14.853645833333331  9.625 14.725  L 9.625 4.2749999999999995  C 9.625 4.146354166666665  9.579644097222223 4.035026041666665  9.488932291666668 3.9410156249999995  C 9.398220486111112 3.847005208333332  9.290798611111112 3.799999999999999  9.166666666666668 3.799999999999999  L 1.8333333333333333 3.799999999999999  C 1.7092013888888888 3.799999999999999  1.6017795138888888 3.847005208333332  1.5110677083333333 3.9410156249999995  C 1.4203559027777775 4.035026041666665  1.375 4.146354166666665  1.375 4.2749999999999995  L 1.375 14.725  C 1.375 14.853645833333331  1.4203559027777775 14.964973958333331  1.5110677083333333 15.058984375  C 1.6017795138888888 15.152994791666666  1.7092013888888888 15.200000000000001  1.8333333333333333 15.200000000000001  L 9.166666666666668 15.200000000000001  C 9.290798611111112 15.200000000000001  9.398220486111112 15.152994791666666  9.488932291666668 15.058984375  Z M 6.645833333333333 2.375  C 6.7986111111111125 2.375  6.875000000000001 2.2958333333333316  6.875 2.137500000000001  C 6.875000000000001 1.979166666666666  6.7986111111111125 1.8999999999999995  6.645833333333333 1.8999999999999995  L 4.354166666666666 1.8999999999999995  C 4.201388888888889 1.8999999999999995  4.125 1.979166666666666  4.125 2.137500000000001  C 4.125 2.2958333333333316  4.201388888888889 2.375  4.354166666666666 2.375  L 6.645833333333333 2.375  Z M 10.455729166666668 0.5640624999999996  C 10.818576388888888 0.940104166666666  11 1.385416666666666  11 1.8999999999999995  L 11 17.1  C 11 17.614583333333336  10.818576388888888 18.059895833333336  10.455729166666668 18.4359375  C 10.092881944444446 18.811979166666664  9.663194444444446 19  9.166666666666668 19  L 1.8333333333333333 19  C 1.3368055555555558 19  0.9071180555555556 18.811979166666664  0.5442708333333333 18.4359375  C 0.1814236111111111 18.059895833333336  0 17.614583333333336  0 17.1  L 0 1.8999999999999995  C 0 1.385416666666666  0.1814236111111111 0.940104166666666  0.5442708333333333 0.5640624999999996  C 0.9071180555555556 0.18802083333333108  1.3368055555555558 0  1.8333333333333333 0  L 9.166666666666668 0  C 9.663194444444446 0  10.092881944444446 0.18802083333333108  10.455729166666668 0.5640624999999996  Z " fill-rule="evenodd" />
    </mask>
  </defs>
  <g transform="matrix(1 0 0 1 -171 -472 )">
    <path d="M 6.309244791666667 17.938671875  C 6.533637152777779 17.706119791666666  6.645833333333333 17.4265625  6.645833333333333 17.1  C 6.645833333333333 16.7734375  6.533637152777779 16.493880208333334  6.309244791666667 16.261328125  C 6.084852430555555 16.028776041666664  5.815104166666667 15.9125  5.5 15.9125  C 5.184895833333334 15.9125  4.915147569444445 16.028776041666664  4.690755208333334 16.261328125  C 4.466362847222223 16.493880208333334  4.354166666666666 16.7734375  4.354166666666666 17.1  C 4.354166666666666 17.4265625  4.466362847222223 17.706119791666666  4.690755208333334 17.938671875  C 4.915147569444445 18.171223958333336  5.184895833333334 18.2875  5.5 18.2875  C 5.815104166666667 18.2875  6.084852430555555 18.171223958333336  6.309244791666667 17.938671875  Z M 9.488932291666668 15.058984375  C 9.579644097222223 14.964973958333331  9.625 14.853645833333331  9.625 14.725  L 9.625 4.2749999999999995  C 9.625 4.146354166666665  9.579644097222223 4.035026041666665  9.488932291666668 3.9410156249999995  C 9.398220486111112 3.847005208333332  9.290798611111112 3.799999999999999  9.166666666666668 3.799999999999999  L 1.8333333333333333 3.799999999999999  C 1.7092013888888888 3.799999999999999  1.6017795138888888 3.847005208333332  1.5110677083333333 3.9410156249999995  C 1.4203559027777775 4.035026041666665  1.375 4.146354166666665  1.375 4.2749999999999995  L 1.375 14.725  C 1.375 14.853645833333331  1.4203559027777775 14.964973958333331  1.5110677083333333 15.058984375  C 1.6017795138888888 15.152994791666666  1.7092013888888888 15.200000000000001  1.8333333333333333 15.200000000000001  L 9.166666666666668 15.200000000000001  C 9.290798611111112 15.200000000000001  9.398220486111112 15.152994791666666  9.488932291666668 15.058984375  Z M 6.645833333333333 2.375  C 6.7986111111111125 2.375  6.875000000000001 2.2958333333333316  6.875 2.137500000000001  C 6.875000000000001 1.979166666666666  6.7986111111111125 1.8999999999999995  6.645833333333333 1.8999999999999995  L 4.354166666666666 1.8999999999999995  C 4.201388888888889 1.8999999999999995  4.125 1.979166666666666  4.125 2.137500000000001  C 4.125 2.2958333333333316  4.201388888888889 2.375  4.354166666666666 2.375  L 6.645833333333333 2.375  Z M 10.455729166666668 0.5640624999999996  C 10.818576388888888 0.940104166666666  11 1.385416666666666  11 1.8999999999999995  L 11 17.1  C 11 17.614583333333336  10.818576388888888 18.059895833333336  10.455729166666668 18.4359375  C 10.092881944444446 18.811979166666664  9.663194444444446 19  9.166666666666668 19  L 1.8333333333333333 19  C 1.3368055555555558 19  0.9071180555555556 18.811979166666664  0.5442708333333333 18.4359375  C 0.1814236111111111 18.059895833333336  0 17.614583333333336  0 17.1  L 0 1.8999999999999995  C 0 1.385416666666666  0.1814236111111111 0.940104166666666  0.5442708333333333 0.5640624999999996  C 0.9071180555555556 0.18802083333333108  1.3368055555555558 0  1.8333333333333333 0  L 9.166666666666668 0  C 9.663194444444446 0  10.092881944444446 0.18802083333333108  10.455729166666668 0.5640624999999996  Z " fill-rule="nonzero" fill="url(#RadialGradient1321)" stroke="none" transform="matrix(1 0 0 1 171 472 )" class="fill" />
    <path d="M 6.309244791666667 17.938671875  C 6.533637152777779 17.706119791666666  6.645833333333333 17.4265625  6.645833333333333 17.1  C 6.645833333333333 16.7734375  6.533637152777779 16.493880208333334  6.309244791666667 16.261328125  C 6.084852430555555 16.028776041666664  5.815104166666667 15.9125  5.5 15.9125  C 5.184895833333334 15.9125  4.915147569444445 16.028776041666664  4.690755208333334 16.261328125  C 4.466362847222223 16.493880208333334  4.354166666666666 16.7734375  4.354166666666666 17.1  C 4.354166666666666 17.4265625  4.466362847222223 17.706119791666666  4.690755208333334 17.938671875  C 4.915147569444445 18.171223958333336  5.184895833333334 18.2875  5.5 18.2875  C 5.815104166666667 18.2875  6.084852430555555 18.171223958333336  6.309244791666667 17.938671875  Z " stroke-width="0" stroke-dasharray="0" stroke="rgba(255, 255, 255, 0)" fill="none" transform="matrix(1 0 0 1 171 472 )" class="stroke" mask="url(#Clip1324)" />
    <path d="M 9.488932291666668 15.058984375  C 9.579644097222223 14.964973958333331  9.625 14.853645833333331  9.625 14.725  L 9.625 4.2749999999999995  C 9.625 4.146354166666665  9.579644097222223 4.035026041666665  9.488932291666668 3.9410156249999995  C 9.398220486111112 3.847005208333332  9.290798611111112 3.799999999999999  9.166666666666668 3.799999999999999  L 1.8333333333333333 3.799999999999999  C 1.7092013888888888 3.799999999999999  1.6017795138888888 3.847005208333332  1.5110677083333333 3.9410156249999995  C 1.4203559027777775 4.035026041666665  1.375 4.146354166666665  1.375 4.2749999999999995  L 1.375 14.725  C 1.375 14.853645833333331  1.4203559027777775 14.964973958333331  1.5110677083333333 15.058984375  C 1.6017795138888888 15.152994791666666  1.7092013888888888 15.200000000000001  1.8333333333333333 15.200000000000001  L 9.166666666666668 15.200000000000001  C 9.290798611111112 15.200000000000001  9.398220486111112 15.152994791666666  9.488932291666668 15.058984375  Z " stroke-width="0" stroke-dasharray="0" stroke="rgba(255, 255, 255, 0)" fill="none" transform="matrix(1 0 0 1 171 472 )" class="stroke" mask="url(#Clip1324)" />
    <path d="M 6.645833333333333 2.375  C 6.7986111111111125 2.375  6.875000000000001 2.2958333333333316  6.875 2.137500000000001  C 6.875000000000001 1.979166666666666  6.7986111111111125 1.8999999999999995  6.645833333333333 1.8999999999999995  L 4.354166666666666 1.8999999999999995  C 4.201388888888889 1.8999999999999995  4.125 1.979166666666666  4.125 2.137500000000001  C 4.125 2.2958333333333316  4.201388888888889 2.375  4.354166666666666 2.375  L 6.645833333333333 2.375  Z " stroke-width="0" stroke-dasharray="0" stroke="rgba(255, 255, 255, 0)" fill="none" transform="matrix(1 0 0 1 171 472 )" class="stroke" mask="url(#Clip1324)" />
    <path d="M 10.455729166666668 0.5640624999999996  C 10.818576388888888 0.940104166666666  11 1.385416666666666  11 1.8999999999999995  L 11 17.1  C 11 17.614583333333336  10.818576388888888 18.059895833333336  10.455729166666668 18.4359375  C 10.092881944444446 18.811979166666664  9.663194444444446 19  9.166666666666668 19  L 1.8333333333333333 19  C 1.3368055555555558 19  0.9071180555555556 18.811979166666664  0.5442708333333333 18.4359375  C 0.1814236111111111 18.059895833333336  0 17.614583333333336  0 17.1  L 0 1.8999999999999995  C 0 1.385416666666666  0.1814236111111111 0.940104166666666  0.5442708333333333 0.5640624999999996  C 0.9071180555555556 0.18802083333333108  1.3368055555555558 0  1.8333333333333333 0  L 9.166666666666668 0  C 9.663194444444446 0  10.092881944444446 0.18802083333333108  10.455729166666668 0.5640624999999996  Z " stroke-width="0" stroke-dasharray="0" stroke="rgba(255, 255, 255, 0)" fill="none" transform="matrix(1 0 0 1 171 472 )" class="stroke" mask="url(#Clip1324)" />
  </g>
</svg>