<?xml version="1.0" encoding="utf-8"?>
<svg version="1.1" xmlns:xlink="http://www.w3.org/1999/xlink" width="11px" height="10px" preserveAspectRatio="xMinYMid meet" viewBox="496 1660 11 8" xmlns="http://www.w3.org/2000/svg">
  <path d="M 502 1646  L 502 1663.5  A 0.5 0.5 0 0 1 501.5 1664 A 0.5 0.5 0 0 0 501 1664.5 L 501 1682  " stroke-width="2" stroke-dasharray="0" stroke="rgba(0, 0, 170, 1)" fill="none" class="stroke" />
  <path d="M 502 1644  A 3.5 3.5 0 0 0 498.5 1647.5 A 3.5 3.5 0 0 0 502 1651 A 3.5 3.5 0 0 0 505.5 1647.5 A 3.5 3.5 0 0 0 502 1644 Z M 501 1677  A 3.5 3.5 0 0 0 497.5 1680.5 A 3.5 3.5 0 0 0 501 1684 A 3.5 3.5 0 0 0 504.5 1680.5 A 3.5 3.5 0 0 0 501 1677 Z " fill-rule="nonzero" fill="rgba(0, 0, 170, 1)" stroke="none" class="fill" />
</svg>