<?xml version="1.0" encoding="utf-8"?>
<svg version="1.1" xmlns:xlink="http://www.w3.org/1999/xlink" width="10px" height="34px" preserveAspectRatio="xMidYMin meet" viewBox="799 1644 8 34" xmlns="http://www.w3.org/2000/svg">
  <path d="M 804 1700  L 804 1673.5  A 0.5 0.5 0 0 0 803.5 1673 A 0.5 0.5 0 0 1 803 1672.5 L 803 1646  " stroke-width="2" stroke-dasharray="0" stroke="rgba(0, 0, 170, 1)" fill="none" class="stroke" />
  <path d="M 808.2928932188134 1694.8928932188135  L 804 1699.185786437627  L 799.7071067811866 1694.8928932188135  L 798.2928932188134 1696.3071067811863  L 803.2928932188134 1701.3071067811863  L 804 1702.0142135623728  L 804.7071067811866 1701.3071067811863  L 809.7071067811866 1696.3071067811863  L 808.2928932188134 1694.8928932188135  Z M 803 1644  A 3.5 3.5 0 0 0 799.5 1647.5 A 3.5 3.5 0 0 0 803 1651 A 3.5 3.5 0 0 0 806.5 1647.5 A 3.5 3.5 0 0 0 803 1644 Z " fill-rule="nonzero" fill="rgba(0, 0, 170, 1)" stroke="none" class="fill" />
</svg>