<?xml version="1.0" encoding="utf-8"?>
<svg version="1.1" xmlns:xlink="http://www.w3.org/1999/xlink" width="110px" height="25px" xmlns="http://www.w3.org/2000/svg">
  <defs>
    <radialGradient cx="55.41345513369492" cy="5.645161290322576" r="52.25000000000001" gradientTransform="matrix(-1 4.2496575105269145E-16 -9.658312523924797E-17 -0.22727272727272707 110.82691026738983 6.928152492668591 )" gradientUnits="userSpaceOnUse" id="RadialGradient567">
      <stop id="Stop568" stop-color="#f4e494" offset="0" />
      <stop id="Stop569" stop-color="#e1b766" offset="1" />
    </radialGradient>
    <pattern id="BGPattern" patternUnits="userSpaceOnUse" alignment="0 0" imageRepeat="None" />
    <mask fill="white" id="Clip570">
      <path d="M 0 20  L 0 5  C 0 2.1999999999999997  2.1999999999999997 0  5 0  L 105 0  C 107.8 0  110 2.1999999999999997  110 5  L 110 20  C 110 22.8  107.8 25  105 25  L 5 25  C 2.1999999999999997 25  0 22.8  0 20  Z " fill-rule="evenodd" />
    </mask>
  </defs>
  <g>
    <path d="M 0 20  L 0 5  C 0 2.1999999999999997  2.1999999999999997 0  5 0  L 105 0  C 107.8 0  110 2.1999999999999997  110 5  L 110 20  C 110 22.8  107.8 25  105 25  L 5 25  C 2.1999999999999997 25  0 22.8  0 20  Z " fill-rule="nonzero" fill="url(#RadialGradient567)" stroke="none" class="fill" />
    <path d="M 0 20  L 0 5  C 0 2.1999999999999997  2.1999999999999997 0  5 0  L 105 0  C 107.8 0  110 2.1999999999999997  110 5  L 110 20  C 110 22.8  107.8 25  105 25  L 5 25  C 2.1999999999999997 25  0 22.8  0 20  Z " stroke-width="0" stroke-dasharray="0" stroke="rgba(121, 121, 121, 1)" fill="none" class="stroke" mask="url(#Clip570)" />
  </g>
</svg>