<?xml version="1.0" encoding="utf-8"?>
<svg version="1.1" xmlns:xlink="http://www.w3.org/1999/xlink" width="17px" height="13px" xmlns="http://www.w3.org/2000/svg">
  <defs>
    <radialGradient cx="8.458646616541328" cy="6.376382131799986" r="8.075000000000024" gradientTransform="matrix(-1 -2.287815619784836E-14 1.7495060621884302E-14 -0.7647058823529527 16.917293233082546 11.25243905611789 )" gradientUnits="userSpaceOnUse" id="RadialGradient720">
      <stop id="Stop721" stop-color="#f4e494" offset="0" />
      <stop id="Stop722" stop-color="#e1b766" offset="1" />
    </radialGradient>
    <pattern id="BGPattern" patternUnits="userSpaceOnUse" alignment="0 0" imageRepeat="None" />
    <mask fill="white" id="Clip723">
      <path d="M 16.051339285714285 4.99502840909091  C 16.411830357142858 4.75497159090909  16.728050595238095 4.48721590909091  17 4.191761363636363  L 17 11.522727272727273  C 17 11.928977272727273  16.85137648809524 12.276751893939394  16.554129464285715 12.566051136363637  C 16.256882440476193 12.855350378787877  15.899553571428575 13  15.482142857142858 13  L 1.5178571428571428 13  C 1.1004464285714286 13  0.7431175595238096 12.855350378787877  0.4458705357142858 12.566051136363637  C 0.14862351190476197 12.276751893939394  0 11.928977272727273  0 11.522727272727273  L 0 4.191761363636363  C 0.2782738095238096 4.493371212121211  0.5976562500000001 4.761126893939392  0.9581473214285714 4.99502840909091  C 3.247581845238096 6.509232954545455  4.819196428571429 7.5710227272727275  5.672991071428571 8.180397727272727  C 6.033482142857143 8.438920454545455  6.325985863095239 8.640506628787877  6.550502232142857 8.78515625  C 6.775018601190477 8.92980587121212  7.073846726190477 9.077533143939394  7.446986607142857 9.22833806818182  C 7.820126488095239 9.379142992424242  8.16796875 9.454545454545455  8.490513392857142 9.454545454545455  L 8.5 9.454545454545455  L 8.509486607142858 9.454545454545455  C 8.832031250000002 9.454545454545455  9.179873511904763 9.379142992424242  9.553013392857142 9.22833806818182  C 9.926153273809526 9.077533143939394  10.224981398809526 8.92980587121212  10.449497767857142 8.78515625  C 10.674014136904763 8.640506628787877  10.966517857142858 8.438920454545455  11.327008928571429 8.180397727272727  C 12.402157738095239 7.423295454545455  13.976934523809526 6.3615056818181825  16.051339285714285 4.99502840909091  Z M 16.549386160714285 0.433948863636363  C 16.849795386904763 0.723248106060605  17 1.0710227272727275  17 1.4772727272727275  C 17 1.9635416666666647  16.845052083333336 2.428267045454545  16.53515625 2.871448863636363  C 16.225260416666668 3.314630681818182  15.839471726190478 3.693181818181818  15.377790178571429 4.0071022727272725  C 12.999813988095239 5.613636363636363  11.519903273809526 6.613873106060606  10.938058035714286 7.0078125  C 10.874813988095239 7.050899621212121  10.740420386904763 7.144767992424242  10.534877232142858 7.289417613636364  C 10.329334077380954 7.434067234848484  10.158575148809526 7.551017992424242  10.022600446428571 7.640269886363636  C 9.886625744047619 7.729521780303029  9.722191220238097 7.829545454545455  9.529296875 7.94034090909091  C 9.336402529761905 8.051136363636365  9.154575892857142 8.134232954545455  8.983816964285714 8.18963068181818  C 8.813058035714286 8.24502840909091  8.654947916666668 8.272727272727273  8.509486607142858 8.272727272727273  L 8.5 8.272727272727273  L 8.490513392857142 8.272727272727273  C 8.345052083333334 8.272727272727273  8.186941964285715 8.24502840909091  8.016183035714285 8.18963068181818  C 7.845424107142857 8.134232954545455  7.663597470238096 8.051136363636365  7.470703125 7.94034090909091  C 7.277808779761905 7.829545454545455  7.113374255952381 7.729521780303029  6.977399553571429 7.640269886363636  C 6.841424851190477 7.551017992424242  6.670665922619048 7.434067234848484  6.465122767857143 7.289417613636364  C 6.259579613095239 7.144767992424242  6.125186011904763 7.050899621212121  6.061941964285714 7.0078125  C 5.486421130952381 6.613873106060606  4.657924107142857 6.052201704545455  3.576450892857143 5.322798295454545  C 2.4949776785714284 4.593394886363636  1.8467261904761907 4.154829545454544  1.6316964285714286 4.0071022727272725  C 1.2395833333333335 3.7485795454545436  0.869605654761905 3.393110795454545  0.5217633928571429 2.9406960227272725  C 0.17392113095238101 2.48828125  0 2.068181818181818  0 1.6803977272727275  C 0 1.2002840909090904  0.13123139880952386 0.8001893939393921  0.3936941964285715 0.480113636363637  C 0.6561569940476192 0.16003787878787756  1.0308779761904765 0  1.5178571428571428 0  L 15.482142857142858 0  C 15.893229166666668 0  16.24897693452381 0.14464962121211955  16.549386160714285 0.433948863636363  Z " fill-rule="evenodd" />
    </mask>
  </defs>
  <g transform="matrix(1 0 0 1 -194 -2077 )">
    <path d="M 16.051339285714285 4.99502840909091  C 16.411830357142858 4.75497159090909  16.728050595238095 4.48721590909091  17 4.191761363636363  L 17 11.522727272727273  C 17 11.928977272727273  16.85137648809524 12.276751893939394  16.554129464285715 12.566051136363637  C 16.256882440476193 12.855350378787877  15.899553571428575 13  15.482142857142858 13  L 1.5178571428571428 13  C 1.1004464285714286 13  0.7431175595238096 12.855350378787877  0.4458705357142858 12.566051136363637  C 0.14862351190476197 12.276751893939394  0 11.928977272727273  0 11.522727272727273  L 0 4.191761363636363  C 0.2782738095238096 4.493371212121211  0.5976562500000001 4.761126893939392  0.9581473214285714 4.99502840909091  C 3.247581845238096 6.509232954545455  4.819196428571429 7.5710227272727275  5.672991071428571 8.180397727272727  C 6.033482142857143 8.438920454545455  6.325985863095239 8.640506628787877  6.550502232142857 8.78515625  C 6.775018601190477 8.92980587121212  7.073846726190477 9.077533143939394  7.446986607142857 9.22833806818182  C 7.820126488095239 9.379142992424242  8.16796875 9.454545454545455  8.490513392857142 9.454545454545455  L 8.5 9.454545454545455  L 8.509486607142858 9.454545454545455  C 8.832031250000002 9.454545454545455  9.179873511904763 9.379142992424242  9.553013392857142 9.22833806818182  C 9.926153273809526 9.077533143939394  10.224981398809526 8.92980587121212  10.449497767857142 8.78515625  C 10.674014136904763 8.640506628787877  10.966517857142858 8.438920454545455  11.327008928571429 8.180397727272727  C 12.402157738095239 7.423295454545455  13.976934523809526 6.3615056818181825  16.051339285714285 4.99502840909091  Z M 16.549386160714285 0.433948863636363  C 16.849795386904763 0.723248106060605  17 1.0710227272727275  17 1.4772727272727275  C 17 1.9635416666666647  16.845052083333336 2.428267045454545  16.53515625 2.871448863636363  C 16.225260416666668 3.314630681818182  15.839471726190478 3.693181818181818  15.377790178571429 4.0071022727272725  C 12.999813988095239 5.613636363636363  11.519903273809526 6.613873106060606  10.938058035714286 7.0078125  C 10.874813988095239 7.050899621212121  10.740420386904763 7.144767992424242  10.534877232142858 7.289417613636364  C 10.329334077380954 7.434067234848484  10.158575148809526 7.551017992424242  10.022600446428571 7.640269886363636  C 9.886625744047619 7.729521780303029  9.722191220238097 7.829545454545455  9.529296875 7.94034090909091  C 9.336402529761905 8.051136363636365  9.154575892857142 8.134232954545455  8.983816964285714 8.18963068181818  C 8.813058035714286 8.24502840909091  8.654947916666668 8.272727272727273  8.509486607142858 8.272727272727273  L 8.5 8.272727272727273  L 8.490513392857142 8.272727272727273  C 8.345052083333334 8.272727272727273  8.186941964285715 8.24502840909091  8.016183035714285 8.18963068181818  C 7.845424107142857 8.134232954545455  7.663597470238096 8.051136363636365  7.470703125 7.94034090909091  C 7.277808779761905 7.829545454545455  7.113374255952381 7.729521780303029  6.977399553571429 7.640269886363636  C 6.841424851190477 7.551017992424242  6.670665922619048 7.434067234848484  6.465122767857143 7.289417613636364  C 6.259579613095239 7.144767992424242  6.125186011904763 7.050899621212121  6.061941964285714 7.0078125  C 5.486421130952381 6.613873106060606  4.657924107142857 6.052201704545455  3.576450892857143 5.322798295454545  C 2.4949776785714284 4.593394886363636  1.8467261904761907 4.154829545454544  1.6316964285714286 4.0071022727272725  C 1.2395833333333335 3.7485795454545436  0.869605654761905 3.393110795454545  0.5217633928571429 2.9406960227272725  C 0.17392113095238101 2.48828125  0 2.068181818181818  0 1.6803977272727275  C 0 1.2002840909090904  0.13123139880952386 0.8001893939393921  0.3936941964285715 0.480113636363637  C 0.6561569940476192 0.16003787878787756  1.0308779761904765 0  1.5178571428571428 0  L 15.482142857142858 0  C 15.893229166666668 0  16.24897693452381 0.14464962121211955  16.549386160714285 0.433948863636363  Z " fill-rule="nonzero" fill="url(#RadialGradient720)" stroke="none" transform="matrix(1 0 0 1 194 2077 )" class="fill" />
    <path d="M 16.051339285714285 4.99502840909091  C 16.411830357142858 4.75497159090909  16.728050595238095 4.48721590909091  17 4.191761363636363  L 17 11.522727272727273  C 17 11.928977272727273  16.85137648809524 12.276751893939394  16.554129464285715 12.566051136363637  C 16.256882440476193 12.855350378787877  15.899553571428575 13  15.482142857142858 13  L 1.5178571428571428 13  C 1.1004464285714286 13  0.7431175595238096 12.855350378787877  0.4458705357142858 12.566051136363637  C 0.14862351190476197 12.276751893939394  0 11.928977272727273  0 11.522727272727273  L 0 4.191761363636363  C 0.2782738095238096 4.493371212121211  0.5976562500000001 4.761126893939392  0.9581473214285714 4.99502840909091  C 3.247581845238096 6.509232954545455  4.819196428571429 7.5710227272727275  5.672991071428571 8.180397727272727  C 6.033482142857143 8.438920454545455  6.325985863095239 8.640506628787877  6.550502232142857 8.78515625  C 6.775018601190477 8.92980587121212  7.073846726190477 9.077533143939394  7.446986607142857 9.22833806818182  C 7.820126488095239 9.379142992424242  8.16796875 9.454545454545455  8.490513392857142 9.454545454545455  L 8.5 9.454545454545455  L 8.509486607142858 9.454545454545455  C 8.832031250000002 9.454545454545455  9.179873511904763 9.379142992424242  9.553013392857142 9.22833806818182  C 9.926153273809526 9.077533143939394  10.224981398809526 8.92980587121212  10.449497767857142 8.78515625  C 10.674014136904763 8.640506628787877  10.966517857142858 8.438920454545455  11.327008928571429 8.180397727272727  C 12.402157738095239 7.423295454545455  13.976934523809526 6.3615056818181825  16.051339285714285 4.99502840909091  Z " stroke-width="0" stroke-dasharray="0" stroke="rgba(255, 255, 255, 0)" fill="none" transform="matrix(1 0 0 1 194 2077 )" class="stroke" mask="url(#Clip723)" />
    <path d="M 16.549386160714285 0.433948863636363  C 16.849795386904763 0.723248106060605  17 1.0710227272727275  17 1.4772727272727275  C 17 1.9635416666666647  16.845052083333336 2.428267045454545  16.53515625 2.871448863636363  C 16.225260416666668 3.314630681818182  15.839471726190478 3.693181818181818  15.377790178571429 4.0071022727272725  C 12.999813988095239 5.613636363636363  11.519903273809526 6.613873106060606  10.938058035714286 7.0078125  C 10.874813988095239 7.050899621212121  10.740420386904763 7.144767992424242  10.534877232142858 7.289417613636364  C 10.329334077380954 7.434067234848484  10.158575148809526 7.551017992424242  10.022600446428571 7.640269886363636  C 9.886625744047619 7.729521780303029  9.722191220238097 7.829545454545455  9.529296875 7.94034090909091  C 9.336402529761905 8.051136363636365  9.154575892857142 8.134232954545455  8.983816964285714 8.18963068181818  C 8.813058035714286 8.24502840909091  8.654947916666668 8.272727272727273  8.509486607142858 8.272727272727273  L 8.5 8.272727272727273  L 8.490513392857142 8.272727272727273  C 8.345052083333334 8.272727272727273  8.186941964285715 8.24502840909091  8.016183035714285 8.18963068181818  C 7.845424107142857 8.134232954545455  7.663597470238096 8.051136363636365  7.470703125 7.94034090909091  C 7.277808779761905 7.829545454545455  7.113374255952381 7.729521780303029  6.977399553571429 7.640269886363636  C 6.841424851190477 7.551017992424242  6.670665922619048 7.434067234848484  6.465122767857143 7.289417613636364  C 6.259579613095239 7.144767992424242  6.125186011904763 7.050899621212121  6.061941964285714 7.0078125  C 5.486421130952381 6.613873106060606  4.657924107142857 6.052201704545455  3.576450892857143 5.322798295454545  C 2.4949776785714284 4.593394886363636  1.8467261904761907 4.154829545454544  1.6316964285714286 4.0071022727272725  C 1.2395833333333335 3.7485795454545436  0.869605654761905 3.393110795454545  0.5217633928571429 2.9406960227272725  C 0.17392113095238101 2.48828125  0 2.068181818181818  0 1.6803977272727275  C 0 1.2002840909090904  0.13123139880952386 0.8001893939393921  0.3936941964285715 0.480113636363637  C 0.6561569940476192 0.16003787878787756  1.0308779761904765 0  1.5178571428571428 0  L 15.482142857142858 0  C 15.893229166666668 0  16.24897693452381 0.14464962121211955  16.549386160714285 0.433948863636363  Z " stroke-width="0" stroke-dasharray="0" stroke="rgba(255, 255, 255, 0)" fill="none" transform="matrix(1 0 0 1 194 2077 )" class="stroke" mask="url(#Clip723)" />
  </g>
</svg>