<?xml version="1.0" encoding="utf-8"?>
<svg version="1.1" xmlns:xlink="http://www.w3.org/1999/xlink" width="13px" height="13px" xmlns="http://www.w3.org/2000/svg">
  <defs>
    <radialGradient cx="6.468376824413957" cy="6.376382131799986" r="6.175000000000111" gradientTransform="matrix(-0.999999999999985 -2.9917588874108943E-14 2.991758887410939E-14 -1 12.936753648827626 12.752764263600165 )" gradientUnits="userSpaceOnUse" id="RadialGradient781">
      <stop id="Stop782" stop-color="#f4e494" offset="0" />
      <stop id="Stop783" stop-color="#e1b766" offset="1" />
    </radialGradient>
    <pattern id="BGPattern" patternUnits="userSpaceOnUse" alignment="0 0" imageRepeat="None" />
  </defs>
  <g transform="matrix(1 0 0 1 -119 -2212 )">
    <path d="M 0 4.000000000000001  A 4 4 0 0 1 3.999999999999999 0 L 9 0  A 4 4 0 0 1 13 4 L 13 9  A 4 4 0 0 1 9 13 L 4 13  A 4 4 0 0 1 0 9 L 0 4  Z " fill-rule="nonzero" fill="url(#RadialGradient781)" stroke="none" transform="matrix(1 0 0 1 119 2212 )" class="fill" />
    <path d="M 0 4.000000000000001  A 4 4 0 0 1 3.999999999999999 0 L 9 0  A 4 4 0 0 1 13 4 L 13 9  A 4 4 0 0 1 9 13 L 4 13  A 4 4 0 0 1 0 9 L 0 4  Z " stroke-width="0" stroke-dasharray="0" stroke="rgba(121, 121, 121, 1)" fill="none" transform="matrix(1 0 0 1 119 2212 )" class="stroke" />
    <path d="M 2.7857142857142856 6.5  L 5.571428571428571 9.285714285714286  L 10.214285714285715 2.7857142857142856  " stroke-width="2.7857142857142856" stroke-dasharray="0" stroke="rgba(121, 121, 121, 1)" fill="none" transform="matrix(1 0 0 1 119 2212 )" class="stroke btn_check" />
  </g>
</svg>