<?xml version="1.0" encoding="utf-8"?>
<svg version="1.1" xmlns:xlink="http://www.w3.org/1999/xlink" width="10px" height="25px" preserveAspectRatio="xMidYMin meet" viewBox="194 1659 8 25" xmlns="http://www.w3.org/2000/svg">
  <path d="M 199 1646  L 199 1663.5  A 0.5 0.5 0 0 1 198.5 1664 A 0.5 0.5 0 0 0 198 1664.5 L 198 1682  " stroke-width="2" stroke-dasharray="0" stroke="rgba(0, 0, 170, 1)" fill="none" class="stroke" />
  <path d="M 199 1644  A 3.5 3.5 0 0 0 195.5 1647.5 A 3.5 3.5 0 0 0 199 1651 A 3.5 3.5 0 0 0 202.5 1647.5 A 3.5 3.5 0 0 0 199 1644 Z M 198 1677  A 3.5 3.5 0 0 0 194.5 1680.5 A 3.5 3.5 0 0 0 198 1684 A 3.5 3.5 0 0 0 201.5 1680.5 A 3.5 3.5 0 0 0 198 1677 Z " fill-rule="nonzero" fill="rgba(0, 0, 170, 1)" stroke="none" class="fill" />
</svg>