<?xml version="1.0" encoding="utf-8"?>
<svg version="1.1" xmlns:xlink="http://www.w3.org/1999/xlink" width="17px" height="17px" xmlns="http://www.w3.org/2000/svg">
  <defs>
    <radialGradient cx="8.458646616541328" cy="8.33834586466152" r="8.075000000000145" gradientTransform="matrix(-0.999999999999985 -2.9917588874108943E-14 2.991758887410939E-14 -1 16.917293233082283 16.67669172932329 )" gradientUnits="userSpaceOnUse" id="RadialGradient1349">
      <stop id="Stop1350" stop-color="#f4e494" offset="0" />
      <stop id="Stop1351" stop-color="#e1b766" offset="1" />
    </radialGradient>
    <pattern id="BGPattern" patternUnits="userSpaceOnUse" alignment="0 0" imageRepeat="None" />
    <mask fill="white" id="Clip1352">
      <path d="M 5.198660714285714 0.6735491071428569  C 6.248511904761905 0.22451636904761896  7.348958333333334 0  8.5 0  C 9.651041666666668 0  10.751488095238097 0.22451636904761896  11.801339285714286 0.6735491071428569  C 12.851190476190478 1.122581845238095  13.755580357142858 1.7265625  14.514508928571429 2.4854910714285707  C 15.273437500000002 3.2444196428571432  15.877418154761907 4.148809523809522  16.326450892857142 5.1986607142857135  C 16.775483630952383 6.248511904761903  17 7.348958333333333  17 8.5  C 17 9.644717261904763  16.777064732142858 10.742001488095237  16.33119419642857 11.791852678571427  C 15.885323660714286 12.84170386904762  15.282924107142858 13.74609375  14.523995535714286 14.505022321428573  C 13.765066964285714 15.263950892857142  12.860677083333334 15.869512648809522  11.810825892857142 16.321707589285715  C 10.760974702380954 16.773902529761905  9.657366071428571 17  8.5 17  C 7.342633928571429 17  6.239025297619048 16.77548363095238  5.189174107142857 16.326450892857142  C 4.139322916666667 15.877418154761905  3.236514136904762 15.271856398809522  2.480747767857143 14.509765625  C 1.7249813988095237 13.747674851190476  1.1225818452380953 12.843284970238095  0.6735491071428571 11.796595982142858  C 0.224516369047619 10.749906994047617  0 9.651041666666666  0 8.5  C 0 7.348958333333333  0.224516369047619 6.248511904761903  0.6735491071428571 5.1986607142857135  C 1.1225818452380953 4.148809523809522  1.7265625 3.2444196428571432  2.4854910714285716 2.4854910714285707  C 3.244419642857143 1.7265625  4.148809523809524 1.122581845238095  5.198660714285714 0.6735491071428569  Z M 11.469308035714286 9.714285714285714  C 12.987165178571429 9.714285714285714  13.954799107142858 10.748325892857142  14.372209821428571 12.81640625  C 15.314546130952383 11.519903273809524  15.785714285714286 10.08110119047619  15.785714285714286 8.5  C 15.785714285714286 7.513392857142857  15.592819940476192 6.571056547619047  15.20703125 5.67299107142857  C 14.82124255952381 4.774925595238095  14.302641369047622 4.00018601190476  13.651227678571429 3.3487723214285707  C 12.999813988095239 2.697358630952381  12.225074404761905 2.17875744047619  11.327008928571429 1.79296875  C 10.428943452380954 1.4071800595238084  9.486607142857142 1.2142857142857137  8.5 1.2142857142857137  C 7.513392857142857 1.2142857142857137  6.571056547619048 1.4071800595238084  5.672991071428571 1.79296875  C 4.774925595238096 2.17875744047619  4.000186011904763 2.697358630952381  3.3487723214285716 3.3487723214285707  C 2.6973586309523814 4.00018601190476  2.1787574404761907 4.774925595238095  1.79296875 5.67299107142857  C 1.4071800595238098 6.571056547619047  1.2142857142857142 7.513392857142857  1.2142857142857142 8.5  C 1.2142857142857142 10.08110119047619  1.6854538690476193 11.519903273809524  2.6277901785714284 12.81640625  C 3.045200892857143 10.748325892857142  4.012834821428571 9.714285714285714  5.530691964285714 9.714285714285714  C 6.359188988095239 10.523809523809524  7.348958333333334 10.928571428571427  8.5 10.928571428571427  C 9.651041666666668 10.928571428571427  10.640811011904763 10.523809523809524  11.469308035714286 9.714285714285714  Z M 11.075613839285714 9.254185267857142  C 11.787109375 8.542689732142858  12.142857142857142 7.6841517857142865  12.142857142857142 6.67857142857143  C 12.142857142857142 5.67299107142857  11.787109375 4.814453125  11.075613839285714 4.1029575892857135  C 10.364118303571429 3.3914620535714293  9.505580357142858 3.0357142857142865  8.5 3.0357142857142865  C 7.494419642857143 3.0357142857142865  6.635881696428571 3.3914620535714293  5.924386160714286 4.1029575892857135  C 5.212890625 4.814453125  4.857142857142857 5.67299107142857  4.857142857142857 6.67857142857143  C 4.857142857142857 7.6841517857142865  5.212890625 8.542689732142858  5.924386160714286 9.254185267857142  C 6.635881696428571 9.965680803571427  7.494419642857143 10.321428571428573  8.5 10.321428571428573  C 9.505580357142858 10.321428571428573  10.364118303571429 9.965680803571427  11.075613839285714 9.254185267857142  Z " fill-rule="evenodd" />
    </mask>
  </defs>
  <g transform="matrix(1 0 0 1 -194 -1977 )">
    <path d="M 5.198660714285714 0.6735491071428569  C 6.248511904761905 0.22451636904761896  7.348958333333334 0  8.5 0  C 9.651041666666668 0  10.751488095238097 0.22451636904761896  11.801339285714286 0.6735491071428569  C 12.851190476190478 1.122581845238095  13.755580357142858 1.7265625  14.514508928571429 2.4854910714285707  C 15.273437500000002 3.2444196428571432  15.877418154761907 4.148809523809522  16.326450892857142 5.1986607142857135  C 16.775483630952383 6.248511904761903  17 7.348958333333333  17 8.5  C 17 9.644717261904763  16.777064732142858 10.742001488095237  16.33119419642857 11.791852678571427  C 15.885323660714286 12.84170386904762  15.282924107142858 13.74609375  14.523995535714286 14.505022321428573  C 13.765066964285714 15.263950892857142  12.860677083333334 15.869512648809522  11.810825892857142 16.321707589285715  C 10.760974702380954 16.773902529761905  9.657366071428571 17  8.5 17  C 7.342633928571429 17  6.239025297619048 16.77548363095238  5.189174107142857 16.326450892857142  C 4.139322916666667 15.877418154761905  3.236514136904762 15.271856398809522  2.480747767857143 14.509765625  C 1.7249813988095237 13.747674851190476  1.1225818452380953 12.843284970238095  0.6735491071428571 11.796595982142858  C 0.224516369047619 10.749906994047617  0 9.651041666666666  0 8.5  C 0 7.348958333333333  0.224516369047619 6.248511904761903  0.6735491071428571 5.1986607142857135  C 1.1225818452380953 4.148809523809522  1.7265625 3.2444196428571432  2.4854910714285716 2.4854910714285707  C 3.244419642857143 1.7265625  4.148809523809524 1.122581845238095  5.198660714285714 0.6735491071428569  Z M 11.469308035714286 9.714285714285714  C 12.987165178571429 9.714285714285714  13.954799107142858 10.748325892857142  14.372209821428571 12.81640625  C 15.314546130952383 11.519903273809524  15.785714285714286 10.08110119047619  15.785714285714286 8.5  C 15.785714285714286 7.513392857142857  15.592819940476192 6.571056547619047  15.20703125 5.67299107142857  C 14.82124255952381 4.774925595238095  14.302641369047622 4.00018601190476  13.651227678571429 3.3487723214285707  C 12.999813988095239 2.697358630952381  12.225074404761905 2.17875744047619  11.327008928571429 1.79296875  C 10.428943452380954 1.4071800595238084  9.486607142857142 1.2142857142857137  8.5 1.2142857142857137  C 7.513392857142857 1.2142857142857137  6.571056547619048 1.4071800595238084  5.672991071428571 1.79296875  C 4.774925595238096 2.17875744047619  4.000186011904763 2.697358630952381  3.3487723214285716 3.3487723214285707  C 2.6973586309523814 4.00018601190476  2.1787574404761907 4.774925595238095  1.79296875 5.67299107142857  C 1.4071800595238098 6.571056547619047  1.2142857142857142 7.513392857142857  1.2142857142857142 8.5  C 1.2142857142857142 10.08110119047619  1.6854538690476193 11.519903273809524  2.6277901785714284 12.81640625  C 3.045200892857143 10.748325892857142  4.012834821428571 9.714285714285714  5.530691964285714 9.714285714285714  C 6.359188988095239 10.523809523809524  7.348958333333334 10.928571428571427  8.5 10.928571428571427  C 9.651041666666668 10.928571428571427  10.640811011904763 10.523809523809524  11.469308035714286 9.714285714285714  Z M 11.075613839285714 9.254185267857142  C 11.787109375 8.542689732142858  12.142857142857142 7.6841517857142865  12.142857142857142 6.67857142857143  C 12.142857142857142 5.67299107142857  11.787109375 4.814453125  11.075613839285714 4.1029575892857135  C 10.364118303571429 3.3914620535714293  9.505580357142858 3.0357142857142865  8.5 3.0357142857142865  C 7.494419642857143 3.0357142857142865  6.635881696428571 3.3914620535714293  5.924386160714286 4.1029575892857135  C 5.212890625 4.814453125  4.857142857142857 5.67299107142857  4.857142857142857 6.67857142857143  C 4.857142857142857 7.6841517857142865  5.212890625 8.542689732142858  5.924386160714286 9.254185267857142  C 6.635881696428571 9.965680803571427  7.494419642857143 10.321428571428573  8.5 10.321428571428573  C 9.505580357142858 10.321428571428573  10.364118303571429 9.965680803571427  11.075613839285714 9.254185267857142  Z " fill-rule="nonzero" fill="url(#RadialGradient1349)" stroke="none" transform="matrix(1 0 0 1 194 1977 )" class="fill" />
    <path d="M 5.198660714285714 0.6735491071428569  C 6.248511904761905 0.22451636904761896  7.348958333333334 0  8.5 0  C 9.651041666666668 0  10.751488095238097 0.22451636904761896  11.801339285714286 0.6735491071428569  C 12.851190476190478 1.122581845238095  13.755580357142858 1.7265625  14.514508928571429 2.4854910714285707  C 15.273437500000002 3.2444196428571432  15.877418154761907 4.148809523809522  16.326450892857142 5.1986607142857135  C 16.775483630952383 6.248511904761903  17 7.348958333333333  17 8.5  C 17 9.644717261904763  16.777064732142858 10.742001488095237  16.33119419642857 11.791852678571427  C 15.885323660714286 12.84170386904762  15.282924107142858 13.74609375  14.523995535714286 14.505022321428573  C 13.765066964285714 15.263950892857142  12.860677083333334 15.869512648809522  11.810825892857142 16.321707589285715  C 10.760974702380954 16.773902529761905  9.657366071428571 17  8.5 17  C 7.342633928571429 17  6.239025297619048 16.77548363095238  5.189174107142857 16.326450892857142  C 4.139322916666667 15.877418154761905  3.236514136904762 15.271856398809522  2.480747767857143 14.509765625  C 1.7249813988095237 13.747674851190476  1.1225818452380953 12.843284970238095  0.6735491071428571 11.796595982142858  C 0.224516369047619 10.749906994047617  0 9.651041666666666  0 8.5  C 0 7.348958333333333  0.224516369047619 6.248511904761903  0.6735491071428571 5.1986607142857135  C 1.1225818452380953 4.148809523809522  1.7265625 3.2444196428571432  2.4854910714285716 2.4854910714285707  C 3.244419642857143 1.7265625  4.148809523809524 1.122581845238095  5.198660714285714 0.6735491071428569  Z " stroke-width="0" stroke-dasharray="0" stroke="rgba(255, 255, 255, 0)" fill="none" transform="matrix(1 0 0 1 194 1977 )" class="stroke" mask="url(#Clip1352)" />
    <path d="M 11.469308035714286 9.714285714285714  C 12.987165178571429 9.714285714285714  13.954799107142858 10.748325892857142  14.372209821428571 12.81640625  C 15.314546130952383 11.519903273809524  15.785714285714286 10.08110119047619  15.785714285714286 8.5  C 15.785714285714286 7.513392857142857  15.592819940476192 6.571056547619047  15.20703125 5.67299107142857  C 14.82124255952381 4.774925595238095  14.302641369047622 4.00018601190476  13.651227678571429 3.3487723214285707  C 12.999813988095239 2.697358630952381  12.225074404761905 2.17875744047619  11.327008928571429 1.79296875  C 10.428943452380954 1.4071800595238084  9.486607142857142 1.2142857142857137  8.5 1.2142857142857137  C 7.513392857142857 1.2142857142857137  6.571056547619048 1.4071800595238084  5.672991071428571 1.79296875  C 4.774925595238096 2.17875744047619  4.000186011904763 2.697358630952381  3.3487723214285716 3.3487723214285707  C 2.6973586309523814 4.00018601190476  2.1787574404761907 4.774925595238095  1.79296875 5.67299107142857  C 1.4071800595238098 6.571056547619047  1.2142857142857142 7.513392857142857  1.2142857142857142 8.5  C 1.2142857142857142 10.08110119047619  1.6854538690476193 11.519903273809524  2.6277901785714284 12.81640625  C 3.045200892857143 10.748325892857142  4.012834821428571 9.714285714285714  5.530691964285714 9.714285714285714  C 6.359188988095239 10.523809523809524  7.348958333333334 10.928571428571427  8.5 10.928571428571427  C 9.651041666666668 10.928571428571427  10.640811011904763 10.523809523809524  11.469308035714286 9.714285714285714  Z " stroke-width="0" stroke-dasharray="0" stroke="rgba(255, 255, 255, 0)" fill="none" transform="matrix(1 0 0 1 194 1977 )" class="stroke" mask="url(#Clip1352)" />
    <path d="M 11.075613839285714 9.254185267857142  C 11.787109375 8.542689732142858  12.142857142857142 7.6841517857142865  12.142857142857142 6.67857142857143  C 12.142857142857142 5.67299107142857  11.787109375 4.814453125  11.075613839285714 4.1029575892857135  C 10.364118303571429 3.3914620535714293  9.505580357142858 3.0357142857142865  8.5 3.0357142857142865  C 7.494419642857143 3.0357142857142865  6.635881696428571 3.3914620535714293  5.924386160714286 4.1029575892857135  C 5.212890625 4.814453125  4.857142857142857 5.67299107142857  4.857142857142857 6.67857142857143  C 4.857142857142857 7.6841517857142865  5.212890625 8.542689732142858  5.924386160714286 9.254185267857142  C 6.635881696428571 9.965680803571427  7.494419642857143 10.321428571428573  8.5 10.321428571428573  C 9.505580357142858 10.321428571428573  10.364118303571429 9.965680803571427  11.075613839285714 9.254185267857142  Z " stroke-width="0" stroke-dasharray="0" stroke="rgba(255, 255, 255, 0)" fill="none" transform="matrix(1 0 0 1 194 1977 )" class="stroke" mask="url(#Clip1352)" />
  </g>
</svg>