<?xml version="1.0" encoding="utf-8"?>
<svg version="1.1" xmlns:xlink="http://www.w3.org/1999/xlink" width="13px" height="13px" xmlns="http://www.w3.org/2000/svg">
  <defs>
    <pattern id="BGPattern" patternUnits="userSpaceOnUse" alignment="0 0" imageRepeat="None" />
  </defs>
  <g transform="matrix(1 0 0 1 -119 -2212 )">
    <path d="M 0 4.000000000000001  A 4 4 0 0 1 3.999999999999999 0 L 9 0  A 4 4 0 0 1 13 4 L 13 9  A 4 4 0 0 1 9 13 L 4 13  A 4 4 0 0 1 0 9 L 0 4  Z " fill-rule="nonzero" fill="rgba(240, 240, 240, 1)" stroke="none" transform="matrix(1 0 0 1 119 2212 )" class="fill" />
    <path d="M 0 4.000000000000001  A 4 4 0 0 1 3.999999999999999 0 L 9 0  A 4 4 0 0 1 13 4 L 13 9  A 4 4 0 0 1 9 13 L 4 13  A 4 4 0 0 1 0 9 L 0 4  Z " stroke-width="0" stroke-dasharray="0" stroke="rgba(121, 121, 121, 1)" fill="none" transform="matrix(1 0 0 1 119 2212 )" class="stroke" />
  </g>
</svg>