<?xml version="1.0" encoding="utf-8"?>
<svg version="1.1" xmlns:xlink="http://www.w3.org/1999/xlink" width="10px" height="10px" xmlns="http://www.w3.org/2000/svg">
  <defs>
    <pattern id="BGPattern" patternUnits="userSpaceOnUse" alignment="0 0" imageRepeat="None" />
    <mask fill="white" id="Clip224">
      <path d="M 7.20703125 6.041666666666668  C 7.20703125 6.098090277777777  7.185329861111112 6.148003472222221  7.141927083333334 6.19140625  L 6.19140625 7.141927083333332  C 6.148003472222222 7.185329861111109  6.098090277777778 7.20703125  6.041666666666666 7.20703125  C 5.985243055555557 7.20703125  5.935329861111112 7.185329861111109  5.891927083333334 7.141927083333332  L 5 6.25  L 4.108072916666667 7.141927083333332  C 4.064670138888889 7.185329861111109  4.014756944444445 7.20703125  3.958333333333333 7.20703125  C 3.9019097222222228 7.20703125  3.8519965277777786 7.185329861111109  3.80859375 7.141927083333332  L 2.858072916666667 6.19140625  C 2.814670138888889 6.148003472222221  2.7929687500000004 6.098090277777777  2.79296875 6.041666666666668  C 2.7929687500000004 5.985243055555555  2.814670138888889 5.935329861111112  2.858072916666667 5.891927083333332  L 3.75 5  L 2.858072916666667 4.108072916666666  C 2.814670138888889 4.064670138888888  2.7929687500000004 4.014756944444445  2.79296875 3.958333333333334  C 2.7929687500000004 3.9019097222222223  2.814670138888889 3.851996527777777  2.858072916666667 3.80859375  L 3.80859375 2.858072916666666  C 3.8519965277777786 2.8146701388888884  3.9019097222222228 2.79296875  3.958333333333333 2.79296875  C 4.014756944444445 2.79296875  4.064670138888889 2.8146701388888884  4.108072916666667 2.858072916666666  L 5 3.75  L 5.891927083333334 2.858072916666666  C 5.935329861111112 2.8146701388888884  5.985243055555557 2.79296875  6.041666666666666 2.79296875  C 6.098090277777778 2.79296875  6.148003472222222 2.8146701388888884  6.19140625 2.858072916666666  L 7.141927083333334 3.80859375  C 7.185329861111112 3.851996527777777  7.20703125 3.9019097222222223  7.20703125 3.958333333333334  C 7.20703125 4.014756944444445  7.185329861111112 4.064670138888888  7.141927083333334 4.108072916666666  L 6.25 5  L 7.141927083333334 5.891927083333332  C 7.185329861111112 5.935329861111112  7.20703125 5.985243055555555  7.20703125 6.041666666666668  Z M 8.06640625 6.77734375  C 8.383246527777779 6.234809027777777  8.541666666666666 5.642361111111112  8.541666666666666 5  C 8.541666666666666 4.357638888888888  8.383246527777779 3.7651909722222223  8.06640625 3.22265625  C 7.749565972222223 2.680121527777777  7.319878472222223 2.250434027777777  6.77734375 1.93359375  C 6.234809027777778 1.616753472222222  5.642361111111112 1.4583333333333337  5 1.4583333333333337  C 4.357638888888889 1.4583333333333337  3.7651909722222228 1.616753472222222  3.22265625 1.93359375  C 2.6801215277777777 2.250434027777777  2.2504340277777777 2.680121527777777  1.93359375 3.22265625  C 1.6167534722222223 3.7651909722222223  1.4583333333333335 4.357638888888888  1.4583333333333335 5  C 1.4583333333333335 5.642361111111112  1.6167534722222223 6.234809027777777  1.93359375 6.77734375  C 2.2504340277777777 7.319878472222221  2.6801215277777777 7.749565972222222  3.22265625 8.06640625  C 3.7651909722222228 8.383246527777779  4.357638888888889 8.541666666666666  5 8.541666666666666  C 5.642361111111112 8.541666666666666  6.234809027777778 8.383246527777779  6.77734375 8.06640625  C 7.319878472222223 7.749565972222222  7.749565972222223 7.319878472222221  8.06640625 6.77734375  Z M 9.329427083333334 2.490234375  C 9.776475694444443 3.256293402777777  10 4.092881944444443  10 5  C 10 5.907118055555555  9.776475694444443 6.743706597222221  9.329427083333334 7.509765625  C 8.882378472222223 8.275824652777779  8.275824652777779 8.882378472222221  7.509765625 9.329427083333334  C 6.743706597222223 9.776475694444445  5.907118055555555 10  5 10  C 4.092881944444445 10  3.2562934027777777 9.776475694444445  2.490234375 9.329427083333334  C 1.7241753472222223 8.882378472222221  1.117621527777778 8.275824652777779  0.6705729166666667 7.509765625  C 0.22352430555555552 6.743706597222221  0 5.907118055555555  0 5  C 0 4.092881944444443  0.22352430555555552 3.256293402777777  0.6705729166666667 2.490234375  C 1.117621527777778 1.724175347222222  1.7241753472222223 1.1176215277777768  2.490234375 0.6705729166666663  C 3.2562934027777777 0.2235243055555547  4.092881944444445 0  5 0  C 5.907118055555555 0  6.743706597222223 0.2235243055555547  7.509765625 0.6705729166666663  C 8.275824652777779 1.1176215277777768  8.882378472222223 1.724175347222222  9.329427083333334 2.490234375  Z " fill-rule="evenodd" />
    </mask>
  </defs>
  <g transform="matrix(1 0 0 1 0 -4 )">
    <path d="M 7.20703125 6.041666666666668  C 7.20703125 6.098090277777777  7.185329861111112 6.148003472222221  7.141927083333334 6.19140625  L 6.19140625 7.141927083333332  C 6.148003472222222 7.185329861111109  6.098090277777778 7.20703125  6.041666666666666 7.20703125  C 5.985243055555557 7.20703125  5.935329861111112 7.185329861111109  5.891927083333334 7.141927083333332  L 5 6.25  L 4.108072916666667 7.141927083333332  C 4.064670138888889 7.185329861111109  4.014756944444445 7.20703125  3.958333333333333 7.20703125  C 3.9019097222222228 7.20703125  3.8519965277777786 7.185329861111109  3.80859375 7.141927083333332  L 2.858072916666667 6.19140625  C 2.814670138888889 6.148003472222221  2.7929687500000004 6.098090277777777  2.79296875 6.041666666666668  C 2.7929687500000004 5.985243055555555  2.814670138888889 5.935329861111112  2.858072916666667 5.891927083333332  L 3.75 5  L 2.858072916666667 4.108072916666666  C 2.814670138888889 4.064670138888888  2.7929687500000004 4.014756944444445  2.79296875 3.958333333333334  C 2.7929687500000004 3.9019097222222223  2.814670138888889 3.851996527777777  2.858072916666667 3.80859375  L 3.80859375 2.858072916666666  C 3.8519965277777786 2.8146701388888884  3.9019097222222228 2.79296875  3.958333333333333 2.79296875  C 4.014756944444445 2.79296875  4.064670138888889 2.8146701388888884  4.108072916666667 2.858072916666666  L 5 3.75  L 5.891927083333334 2.858072916666666  C 5.935329861111112 2.8146701388888884  5.985243055555557 2.79296875  6.041666666666666 2.79296875  C 6.098090277777778 2.79296875  6.148003472222222 2.8146701388888884  6.19140625 2.858072916666666  L 7.141927083333334 3.80859375  C 7.185329861111112 3.851996527777777  7.20703125 3.9019097222222223  7.20703125 3.958333333333334  C 7.20703125 4.014756944444445  7.185329861111112 4.064670138888888  7.141927083333334 4.108072916666666  L 6.25 5  L 7.141927083333334 5.891927083333332  C 7.185329861111112 5.935329861111112  7.20703125 5.985243055555555  7.20703125 6.041666666666668  Z M 8.06640625 6.77734375  C 8.383246527777779 6.234809027777777  8.541666666666666 5.642361111111112  8.541666666666666 5  C 8.541666666666666 4.357638888888888  8.383246527777779 3.7651909722222223  8.06640625 3.22265625  C 7.749565972222223 2.680121527777777  7.319878472222223 2.250434027777777  6.77734375 1.93359375  C 6.234809027777778 1.616753472222222  5.642361111111112 1.4583333333333337  5 1.4583333333333337  C 4.357638888888889 1.4583333333333337  3.7651909722222228 1.616753472222222  3.22265625 1.93359375  C 2.6801215277777777 2.250434027777777  2.2504340277777777 2.680121527777777  1.93359375 3.22265625  C 1.6167534722222223 3.7651909722222223  1.4583333333333335 4.357638888888888  1.4583333333333335 5  C 1.4583333333333335 5.642361111111112  1.6167534722222223 6.234809027777777  1.93359375 6.77734375  C 2.2504340277777777 7.319878472222221  2.6801215277777777 7.749565972222222  3.22265625 8.06640625  C 3.7651909722222228 8.383246527777779  4.357638888888889 8.541666666666666  5 8.541666666666666  C 5.642361111111112 8.541666666666666  6.234809027777778 8.383246527777779  6.77734375 8.06640625  C 7.319878472222223 7.749565972222222  7.749565972222223 7.319878472222221  8.06640625 6.77734375  Z M 9.329427083333334 2.490234375  C 9.776475694444443 3.256293402777777  10 4.092881944444443  10 5  C 10 5.907118055555555  9.776475694444443 6.743706597222221  9.329427083333334 7.509765625  C 8.882378472222223 8.275824652777779  8.275824652777779 8.882378472222221  7.509765625 9.329427083333334  C 6.743706597222223 9.776475694444445  5.907118055555555 10  5 10  C 4.092881944444445 10  3.2562934027777777 9.776475694444445  2.490234375 9.329427083333334  C 1.7241753472222223 8.882378472222221  1.117621527777778 8.275824652777779  0.6705729166666667 7.509765625  C 0.22352430555555552 6.743706597222221  0 5.907118055555555  0 5  C 0 4.092881944444443  0.22352430555555552 3.256293402777777  0.6705729166666667 2.490234375  C 1.117621527777778 1.724175347222222  1.7241753472222223 1.1176215277777768  2.490234375 0.6705729166666663  C 3.2562934027777777 0.2235243055555547  4.092881944444445 0  5 0  C 5.907118055555555 0  6.743706597222223 0.2235243055555547  7.509765625 0.6705729166666663  C 8.275824652777779 1.1176215277777768  8.882378472222223 1.724175347222222  9.329427083333334 2.490234375  Z " fill-rule="nonzero" fill="rgba(217, 0, 27, 1)" stroke="none" transform="matrix(1 0 0 1 0 4 )" class="fill" />
    <path d="M 7.20703125 6.041666666666668  C 7.20703125 6.098090277777777  7.185329861111112 6.148003472222221  7.141927083333334 6.19140625  L 6.19140625 7.141927083333332  C 6.148003472222222 7.185329861111109  6.098090277777778 7.20703125  6.041666666666666 7.20703125  C 5.985243055555557 7.20703125  5.935329861111112 7.185329861111109  5.891927083333334 7.141927083333332  L 5 6.25  L 4.108072916666667 7.141927083333332  C 4.064670138888889 7.185329861111109  4.014756944444445 7.20703125  3.958333333333333 7.20703125  C 3.9019097222222228 7.20703125  3.8519965277777786 7.185329861111109  3.80859375 7.141927083333332  L 2.858072916666667 6.19140625  C 2.814670138888889 6.148003472222221  2.7929687500000004 6.098090277777777  2.79296875 6.041666666666668  C 2.7929687500000004 5.985243055555555  2.814670138888889 5.935329861111112  2.858072916666667 5.891927083333332  L 3.75 5  L 2.858072916666667 4.108072916666666  C 2.814670138888889 4.064670138888888  2.7929687500000004 4.014756944444445  2.79296875 3.958333333333334  C 2.7929687500000004 3.9019097222222223  2.814670138888889 3.851996527777777  2.858072916666667 3.80859375  L 3.80859375 2.858072916666666  C 3.8519965277777786 2.8146701388888884  3.9019097222222228 2.79296875  3.958333333333333 2.79296875  C 4.014756944444445 2.79296875  4.064670138888889 2.8146701388888884  4.108072916666667 2.858072916666666  L 5 3.75  L 5.891927083333334 2.858072916666666  C 5.935329861111112 2.8146701388888884  5.985243055555557 2.79296875  6.041666666666666 2.79296875  C 6.098090277777778 2.79296875  6.148003472222222 2.8146701388888884  6.19140625 2.858072916666666  L 7.141927083333334 3.80859375  C 7.185329861111112 3.851996527777777  7.20703125 3.9019097222222223  7.20703125 3.958333333333334  C 7.20703125 4.014756944444445  7.185329861111112 4.064670138888888  7.141927083333334 4.108072916666666  L 6.25 5  L 7.141927083333334 5.891927083333332  C 7.185329861111112 5.935329861111112  7.20703125 5.985243055555555  7.20703125 6.041666666666668  Z " stroke-width="0" stroke-dasharray="0" stroke="rgba(255, 255, 255, 0)" fill="none" transform="matrix(1 0 0 1 0 4 )" class="stroke" mask="url(#Clip224)" />
    <path d="M 8.06640625 6.77734375  C 8.383246527777779 6.234809027777777  8.541666666666666 5.642361111111112  8.541666666666666 5  C 8.541666666666666 4.357638888888888  8.383246527777779 3.7651909722222223  8.06640625 3.22265625  C 7.749565972222223 2.680121527777777  7.319878472222223 2.250434027777777  6.77734375 1.93359375  C 6.234809027777778 1.616753472222222  5.642361111111112 1.4583333333333337  5 1.4583333333333337  C 4.357638888888889 1.4583333333333337  3.7651909722222228 1.616753472222222  3.22265625 1.93359375  C 2.6801215277777777 2.250434027777777  2.2504340277777777 2.680121527777777  1.93359375 3.22265625  C 1.6167534722222223 3.7651909722222223  1.4583333333333335 4.357638888888888  1.4583333333333335 5  C 1.4583333333333335 5.642361111111112  1.6167534722222223 6.234809027777777  1.93359375 6.77734375  C 2.2504340277777777 7.319878472222221  2.6801215277777777 7.749565972222222  3.22265625 8.06640625  C 3.7651909722222228 8.383246527777779  4.357638888888889 8.541666666666666  5 8.541666666666666  C 5.642361111111112 8.541666666666666  6.234809027777778 8.383246527777779  6.77734375 8.06640625  C 7.319878472222223 7.749565972222222  7.749565972222223 7.319878472222221  8.06640625 6.77734375  Z " stroke-width="0" stroke-dasharray="0" stroke="rgba(255, 255, 255, 0)" fill="none" transform="matrix(1 0 0 1 0 4 )" class="stroke" mask="url(#Clip224)" />
    <path d="M 9.329427083333334 2.490234375  C 9.776475694444443 3.256293402777777  10 4.092881944444443  10 5  C 10 5.907118055555555  9.776475694444443 6.743706597222221  9.329427083333334 7.509765625  C 8.882378472222223 8.275824652777779  8.275824652777779 8.882378472222221  7.509765625 9.329427083333334  C 6.743706597222223 9.776475694444445  5.907118055555555 10  5 10  C 4.092881944444445 10  3.2562934027777777 9.776475694444445  2.490234375 9.329427083333334  C 1.7241753472222223 8.882378472222221  1.117621527777778 8.275824652777779  0.6705729166666667 7.509765625  C 0.22352430555555552 6.743706597222221  0 5.907118055555555  0 5  C 0 4.092881944444443  0.22352430555555552 3.256293402777777  0.6705729166666667 2.490234375  C 1.117621527777778 1.724175347222222  1.7241753472222223 1.1176215277777768  2.490234375 0.6705729166666663  C 3.2562934027777777 0.2235243055555547  4.092881944444445 0  5 0  C 5.907118055555555 0  6.743706597222223 0.2235243055555547  7.509765625 0.6705729166666663  C 8.275824652777779 1.1176215277777768  8.882378472222223 1.724175347222222  9.329427083333334 2.490234375  Z " stroke-width="0" stroke-dasharray="0" stroke="rgba(255, 255, 255, 0)" fill="none" transform="matrix(1 0 0 1 0 4 )" class="stroke" mask="url(#Clip224)" />
  </g>
</svg>