<?xml version="1.0" encoding="utf-8"?>
<svg version="1.1" xmlns:xlink="http://www.w3.org/1999/xlink" width="140px" height="40px" xmlns="http://www.w3.org/2000/svg">
  <defs>
    <linearGradient gradientUnits="userSpaceOnUse" x1="71.14285714285715" y1="40" x2="71.85714285714289" y2="0" id="LinearGradient892">
      <stop id="Stop893" stop-color="#f5eb7d" offset="0" />
      <stop id="Stop894" stop-color="#e7c95a" offset="1" />
    </linearGradient>
    <pattern id="BGPattern" patternUnits="userSpaceOnUse" alignment="0 0" imageRepeat="None" />
    <mask fill="white" id="Clip895">
      <path d="M 0 35  L 0 5  C 0 2.1999999999999997  2.1999999999999997 0  5 0  L 135 0  C 137.8 0  140 2.1999999999999997  140 5  L 140 35  C 140 37.800000000000004  137.8 40  135 40  L 5 40  C 2.1999999999999997 40  0 37.800000000000004  0 35  Z " fill-rule="evenodd" />
    </mask>
  </defs>
  <g transform="matrix(1 0 0 1 -321 -620 )">
    <path d="M 0 35  L 0 5  C 0 2.1999999999999997  2.1999999999999997 0  5 0  L 135 0  C 137.8 0  140 2.1999999999999997  140 5  L 140 35  C 140 37.800000000000004  137.8 40  135 40  L 5 40  C 2.1999999999999997 40  0 37.800000000000004  0 35  Z " fill-rule="nonzero" fill="url(#LinearGradient892)" stroke="none" transform="matrix(1 0 0 1 321 620 )" class="fill" />
    <path d="M 0 35  L 0 5  C 0 2.1999999999999997  2.1999999999999997 0  5 0  L 135 0  C 137.8 0  140 2.1999999999999997  140 5  L 140 35  C 140 37.800000000000004  137.8 40  135 40  L 5 40  C 2.1999999999999997 40  0 37.800000000000004  0 35  Z " stroke-width="0" stroke-dasharray="0" stroke="rgba(121, 121, 121, 1)" fill="none" transform="matrix(1 0 0 1 321 620 )" class="stroke" mask="url(#Clip895)" />
  </g>
</svg>