<?xml version="1.0" encoding="utf-8"?>
<svg version="1.1" xmlns:xlink="http://www.w3.org/1999/xlink" width="6px" height="8px" xmlns="http://www.w3.org/2000/svg">
  <defs>
    <pattern id="BGPattern" patternUnits="userSpaceOnUse" alignment="0 0" imageRepeat="None" />
    <mask fill="white" id="Clip230">
      <path d="M 5.888671875 4.835227272727273  C 5.962890625 4.907196969696969  6 4.992424242424242  6 5.090909090909091  C 6 5.1893939393939394  5.962890625 5.274621212121211  5.888671875 5.346590909090909  L 3.263671875 7.892045454545454  C 3.189453125 7.964015151515152  3.1015625 8  3 8  C 2.8984375000000004 8  2.8105468750000004 7.964015151515152  2.736328125 7.892045454545454  L 0.111328125 5.346590909090909  C 0.037109375 5.274621212121211  0 5.1893939393939394  0 5.090909090909091  C 0 4.992424242424242  0.037109375 4.907196969696969  0.111328125 4.835227272727273  C 0.185546875 4.763257575757575  0.2734375 4.727272727272727  0.375 4.727272727272727  L 5.625 4.727272727272727  C 5.7265625 4.727272727272727  5.814453125 4.763257575757575  5.888671875 4.835227272727273  Z M 5.888671875 2.653409090909091  C 5.962890625 2.725378787878787  6 2.8106060606060597  6 2.909090909090909  C 6 3.007575757575757  5.962890625 3.0928030303030303  5.888671875 3.1647727272727275  C 5.814453125 3.2367424242424248  5.7265625 3.2727272727272725  5.625 3.2727272727272725  L 0.375 3.2727272727272725  C 0.2734375 3.2727272727272725  0.185546875 3.2367424242424248  0.111328125 3.1647727272727275  C 0.037109375 3.0928030303030303  0 3.007575757575757  0 2.909090909090909  C 0 2.8106060606060597  0.037109375 2.725378787878787  0.111328125 2.653409090909091  L 2.736328125 0.10795454545454586  C 2.8105468750000004 0.03598484848484773  2.8984375000000004 0  3 0  C 3.1015625 0  3.189453125 0.03598484848484773  3.263671875 0.10795454545454586  L 5.888671875 2.653409090909091  Z " fill-rule="evenodd" />
    </mask>
  </defs>
  <g transform="matrix(1 0 0 1 -376 -14 )">
    <path d="M 5.888671875 4.835227272727273  C 5.962890625 4.907196969696969  6 4.992424242424242  6 5.090909090909091  C 6 5.1893939393939394  5.962890625 5.274621212121211  5.888671875 5.346590909090909  L 3.263671875 7.892045454545454  C 3.189453125 7.964015151515152  3.1015625 8  3 8  C 2.8984375000000004 8  2.8105468750000004 7.964015151515152  2.736328125 7.892045454545454  L 0.111328125 5.346590909090909  C 0.037109375 5.274621212121211  0 5.1893939393939394  0 5.090909090909091  C 0 4.992424242424242  0.037109375 4.907196969696969  0.111328125 4.835227272727273  C 0.185546875 4.763257575757575  0.2734375 4.727272727272727  0.375 4.727272727272727  L 5.625 4.727272727272727  C 5.7265625 4.727272727272727  5.814453125 4.763257575757575  5.888671875 4.835227272727273  Z M 5.888671875 2.653409090909091  C 5.962890625 2.725378787878787  6 2.8106060606060597  6 2.909090909090909  C 6 3.007575757575757  5.962890625 3.0928030303030303  5.888671875 3.1647727272727275  C 5.814453125 3.2367424242424248  5.7265625 3.2727272727272725  5.625 3.2727272727272725  L 0.375 3.2727272727272725  C 0.2734375 3.2727272727272725  0.185546875 3.2367424242424248  0.111328125 3.1647727272727275  C 0.037109375 3.0928030303030303  0 3.007575757575757  0 2.909090909090909  C 0 2.8106060606060597  0.037109375 2.725378787878787  0.111328125 2.653409090909091  L 2.736328125 0.10795454545454586  C 2.8105468750000004 0.03598484848484773  2.8984375000000004 0  3 0  C 3.1015625 0  3.189453125 0.03598484848484773  3.263671875 0.10795454545454586  L 5.888671875 2.653409090909091  Z " fill-rule="nonzero" fill="rgba(0, 0, 0, 1)" stroke="none" transform="matrix(1 0 0 1 376 14 )" class="fill" />
    <path d="M 5.888671875 4.835227272727273  C 5.962890625 4.907196969696969  6 4.992424242424242  6 5.090909090909091  C 6 5.1893939393939394  5.962890625 5.274621212121211  5.888671875 5.346590909090909  L 3.263671875 7.892045454545454  C 3.189453125 7.964015151515152  3.1015625 8  3 8  C 2.8984375000000004 8  2.8105468750000004 7.964015151515152  2.736328125 7.892045454545454  L 0.111328125 5.346590909090909  C 0.037109375 5.274621212121211  0 5.1893939393939394  0 5.090909090909091  C 0 4.992424242424242  0.037109375 4.907196969696969  0.111328125 4.835227272727273  C 0.185546875 4.763257575757575  0.2734375 4.727272727272727  0.375 4.727272727272727  L 5.625 4.727272727272727  C 5.7265625 4.727272727272727  5.814453125 4.763257575757575  5.888671875 4.835227272727273  Z " stroke-width="0" stroke-dasharray="0" stroke="rgba(255, 255, 255, 0)" fill="none" transform="matrix(1 0 0 1 376 14 )" class="stroke" mask="url(#Clip230)" />
    <path d="M 5.888671875 2.653409090909091  C 5.962890625 2.725378787878787  6 2.8106060606060597  6 2.909090909090909  C 6 3.007575757575757  5.962890625 3.0928030303030303  5.888671875 3.1647727272727275  C 5.814453125 3.2367424242424248  5.7265625 3.2727272727272725  5.625 3.2727272727272725  L 0.375 3.2727272727272725  C 0.2734375 3.2727272727272725  0.185546875 3.2367424242424248  0.111328125 3.1647727272727275  C 0.037109375 3.0928030303030303  0 3.007575757575757  0 2.909090909090909  C 0 2.8106060606060597  0.037109375 2.725378787878787  0.111328125 2.653409090909091  L 2.736328125 0.10795454545454586  C 2.8105468750000004 0.03598484848484773  2.8984375000000004 0  3 0  C 3.1015625 0  3.189453125 0.03598484848484773  3.263671875 0.10795454545454586  L 5.888671875 2.653409090909091  Z " stroke-width="0" stroke-dasharray="0" stroke="rgba(255, 255, 255, 0)" fill="none" transform="matrix(1 0 0 1 376 14 )" class="stroke" mask="url(#Clip230)" />
  </g>
</svg>