<?xml version="1.0" encoding="utf-8"?>
<svg version="1.1" xmlns:xlink="http://www.w3.org/1999/xlink" width="14px" height="13px" xmlns="http://www.w3.org/2000/svg">
  <defs>
    <pattern id="BGPattern" patternUnits="userSpaceOnUse" alignment="0 0" imageRepeat="None" />
    <mask fill="white" id="Clip329">
      <path d="M 6.222222222222221 0.9999999999999993  L 6.222222222222221 6.953124999999999  L 10.645833333333332 11.21875  C 10.073302469135804 11.78125  9.404899691358025 12.21875  8.640625 12.53125  C 7.876350308641976 12.84375  7.070216049382716 13  6.222222222222221 13  C 5.093364197530865 13  4.052276234567902 12.731770833333334  3.098958333333333 12.1953125  C 2.145640432098766 11.658854166666666  1.390817901234568 10.930989583333334  0.8344907407407407 10.01171875  C 0.27816358024691357 9.092447916666666  0 8.088541666666666  0 7  C 0 5.911458333333332  0.27816358024691357 4.907552083333331  0.8344907407407407 3.9882812500000004  C 1.390817901234568 3.0690104166666665  2.145640432098766 2.3411458333333326  3.098958333333333 1.8046875000000004  C 4.052276234567902 1.2682291666666654  5.093364197530865 0.9999999999999993  6.222222222222221 0.9999999999999993  Z M 12.152777777777779 11.265625  L 7.737268518518519 7  L 14 7  C 14.000000000000004 7.817708333333334  13.837962962962965 8.595052083333332  13.51388888888889 9.33203125  C 13.189814814814817 10.069010416666666  12.736111111111112 10.713541666666666  12.152777777777779 11.265625  Z M 12.64699074074074 2.9882812499999996  C 13.203317901234568 3.907552083333332  13.481481481481481 4.911458333333332  13.481481481481481 6  L 7.259259259259259 6  L 7.259259259259259 0  C 8.388117283950619 0  9.42920524691358 0.2682291666666675  10.382523148148149 0.8046874999999997  C 11.335841049382715 1.3411458333333317  12.090663580246915 2.0690104166666656  12.64699074074074 2.9882812499999996  Z " fill-rule="evenodd" />
    </mask>
  </defs>
  <g transform="matrix(1 0 0 1 -5 -11 )">
    <path d="M 6.222222222222221 0.9999999999999993  L 6.222222222222221 6.953124999999999  L 10.645833333333332 11.21875  C 10.073302469135804 11.78125  9.404899691358025 12.21875  8.640625 12.53125  C 7.876350308641976 12.84375  7.070216049382716 13  6.222222222222221 13  C 5.093364197530865 13  4.052276234567902 12.731770833333334  3.098958333333333 12.1953125  C 2.145640432098766 11.658854166666666  1.390817901234568 10.930989583333334  0.8344907407407407 10.01171875  C 0.27816358024691357 9.092447916666666  0 8.088541666666666  0 7  C 0 5.911458333333332  0.27816358024691357 4.907552083333331  0.8344907407407407 3.9882812500000004  C 1.390817901234568 3.0690104166666665  2.145640432098766 2.3411458333333326  3.098958333333333 1.8046875000000004  C 4.052276234567902 1.2682291666666654  5.093364197530865 0.9999999999999993  6.222222222222221 0.9999999999999993  Z M 12.152777777777779 11.265625  L 7.737268518518519 7  L 14 7  C 14.000000000000004 7.817708333333334  13.837962962962965 8.595052083333332  13.51388888888889 9.33203125  C 13.189814814814817 10.069010416666666  12.736111111111112 10.713541666666666  12.152777777777779 11.265625  Z M 12.64699074074074 2.9882812499999996  C 13.203317901234568 3.907552083333332  13.481481481481481 4.911458333333332  13.481481481481481 6  L 7.259259259259259 6  L 7.259259259259259 0  C 8.388117283950619 0  9.42920524691358 0.2682291666666675  10.382523148148149 0.8046874999999997  C 11.335841049382715 1.3411458333333317  12.090663580246915 2.0690104166666656  12.64699074074074 2.9882812499999996  Z " fill-rule="nonzero" fill="rgba(215, 215, 215, 1)" stroke="none" transform="matrix(1 0 0 1 5 11 )" class="fill" />
    <path d="M 6.222222222222221 0.9999999999999993  L 6.222222222222221 6.953124999999999  L 10.645833333333332 11.21875  C 10.073302469135804 11.78125  9.404899691358025 12.21875  8.640625 12.53125  C 7.876350308641976 12.84375  7.070216049382716 13  6.222222222222221 13  C 5.093364197530865 13  4.052276234567902 12.731770833333334  3.098958333333333 12.1953125  C 2.145640432098766 11.658854166666666  1.390817901234568 10.930989583333334  0.8344907407407407 10.01171875  C 0.27816358024691357 9.092447916666666  0 8.088541666666666  0 7  C 0 5.911458333333332  0.27816358024691357 4.907552083333331  0.8344907407407407 3.9882812500000004  C 1.390817901234568 3.0690104166666665  2.145640432098766 2.3411458333333326  3.098958333333333 1.8046875000000004  C 4.052276234567902 1.2682291666666654  5.093364197530865 0.9999999999999993  6.222222222222221 0.9999999999999993  Z " stroke-width="0" stroke-dasharray="0" stroke="rgba(255, 255, 255, 0)" fill="none" transform="matrix(1 0 0 1 5 11 )" class="stroke" mask="url(#Clip329)" />
    <path d="M 12.152777777777779 11.265625  L 7.737268518518519 7  L 14 7  C 14.000000000000004 7.817708333333334  13.837962962962965 8.595052083333332  13.51388888888889 9.33203125  C 13.189814814814817 10.069010416666666  12.736111111111112 10.713541666666666  12.152777777777779 11.265625  Z " stroke-width="0" stroke-dasharray="0" stroke="rgba(255, 255, 255, 0)" fill="none" transform="matrix(1 0 0 1 5 11 )" class="stroke" mask="url(#Clip329)" />
    <path d="M 12.64699074074074 2.9882812499999996  C 13.203317901234568 3.907552083333332  13.481481481481481 4.911458333333332  13.481481481481481 6  L 7.259259259259259 6  L 7.259259259259259 0  C 8.388117283950619 0  9.42920524691358 0.2682291666666675  10.382523148148149 0.8046874999999997  C 11.335841049382715 1.3411458333333317  12.090663580246915 2.0690104166666656  12.64699074074074 2.9882812499999996  Z " stroke-width="0" stroke-dasharray="0" stroke="rgba(255, 255, 255, 0)" fill="none" transform="matrix(1 0 0 1 5 11 )" class="stroke" mask="url(#Clip329)" />
  </g>
</svg>