<?xml version="1.0" encoding="utf-8"?>
<svg version="1.1" xmlns:xlink="http://www.w3.org/1999/xlink" width="16px" height="14px" xmlns="http://www.w3.org/2000/svg">
  <defs>
    <pattern id="BGPattern" patternUnits="userSpaceOnUse" alignment="0 0" imageRepeat="None" />
    <mask fill="white" id="Clip4">
      <path d="M 16 0  L 16 3  L 15 3  L 15 11  L 16 11  L 16 14  L 13 14  L 13 13  L 3 13  L 3 14  L 0 14  L 0 11  L 1 11  L 1 3  L 0 3  L 0 0  L 3 0  L 3 1  L 13 1  L 13 0  L 16 0  Z M 15 0.9999999999999996  L 14 0.9999999999999996  L 14 2.000000000000001  L 15 2.000000000000001  L 15 0.9999999999999996  Z M 2 0.9999999999999996  L 1 0.9999999999999996  L 1 2.000000000000001  L 2 2.000000000000001  L 2 0.9999999999999996  Z M 1 13  L 2 13  L 2 12  L 1 12  L 1 13  Z M 3 12  L 13 12  L 13 11  L 14 11  L 14 3  L 13 3  L 13 2  L 3 2  L 3 3  L 2 3  L 2 11  L 3 11  L 3 12  Z M 14 13  L 15 13  L 15 12  L 14 12  L 14 13  Z M 10 3  L 10 4.999999999999999  L 13 4.999999999999999  L 13 11  L 6 11  L 6 9  L 3 9  L 3 3  L 10 3  Z M 4 4  L 4 8  L 9 8  L 9 4  L 4 4  Z M 7 10  L 12 10  L 12 6  L 10 6  L 10 9  L 7 9  L 7 10  Z " fill-rule="evenodd" />
    </mask>
  </defs>
  <g transform="matrix(1 0 0 1 -4 -10 )">
    <path d="M 16 0  L 16 3  L 15 3  L 15 11  L 16 11  L 16 14  L 13 14  L 13 13  L 3 13  L 3 14  L 0 14  L 0 11  L 1 11  L 1 3  L 0 3  L 0 0  L 3 0  L 3 1  L 13 1  L 13 0  L 16 0  Z M 15 0.9999999999999996  L 14 0.9999999999999996  L 14 2.000000000000001  L 15 2.000000000000001  L 15 0.9999999999999996  Z M 2 0.9999999999999996  L 1 0.9999999999999996  L 1 2.000000000000001  L 2 2.000000000000001  L 2 0.9999999999999996  Z M 1 13  L 2 13  L 2 12  L 1 12  L 1 13  Z M 3 12  L 13 12  L 13 11  L 14 11  L 14 3  L 13 3  L 13 2  L 3 2  L 3 3  L 2 3  L 2 11  L 3 11  L 3 12  Z M 14 13  L 15 13  L 15 12  L 14 12  L 14 13  Z M 10 3  L 10 4.999999999999999  L 13 4.999999999999999  L 13 11  L 6 11  L 6 9  L 3 9  L 3 3  L 10 3  Z M 4 4  L 4 8  L 9 8  L 9 4  L 4 4  Z M 7 10  L 12 10  L 12 6  L 10 6  L 10 9  L 7 9  L 7 10  Z " fill-rule="nonzero" fill="rgba(154, 154, 157, 1)" stroke="none" transform="matrix(1 0 0 1 4 10 )" class="fill" />
    <path d="M 16 0  L 16 3  L 15 3  L 15 11  L 16 11  L 16 14  L 13 14  L 13 13  L 3 13  L 3 14  L 0 14  L 0 11  L 1 11  L 1 3  L 0 3  L 0 0  L 3 0  L 3 1  L 13 1  L 13 0  L 16 0  Z " stroke-width="0" stroke-dasharray="0" stroke="rgba(255, 255, 255, 0)" fill="none" transform="matrix(1 0 0 1 4 10 )" class="stroke" mask="url(#Clip4)" />
    <path d="M 15 0.9999999999999996  L 14 0.9999999999999996  L 14 2.000000000000001  L 15 2.000000000000001  L 15 0.9999999999999996  Z " stroke-width="0" stroke-dasharray="0" stroke="rgba(255, 255, 255, 0)" fill="none" transform="matrix(1 0 0 1 4 10 )" class="stroke" mask="url(#Clip4)" />
    <path d="M 2 0.9999999999999996  L 1 0.9999999999999996  L 1 2.000000000000001  L 2 2.000000000000001  L 2 0.9999999999999996  Z " stroke-width="0" stroke-dasharray="0" stroke="rgba(255, 255, 255, 0)" fill="none" transform="matrix(1 0 0 1 4 10 )" class="stroke" mask="url(#Clip4)" />
    <path d="M 1 13  L 2 13  L 2 12  L 1 12  L 1 13  Z " stroke-width="0" stroke-dasharray="0" stroke="rgba(255, 255, 255, 0)" fill="none" transform="matrix(1 0 0 1 4 10 )" class="stroke" mask="url(#Clip4)" />
    <path d="M 3 12  L 13 12  L 13 11  L 14 11  L 14 3  L 13 3  L 13 2  L 3 2  L 3 3  L 2 3  L 2 11  L 3 11  L 3 12  Z " stroke-width="0" stroke-dasharray="0" stroke="rgba(255, 255, 255, 0)" fill="none" transform="matrix(1 0 0 1 4 10 )" class="stroke" mask="url(#Clip4)" />
    <path d="M 14 13  L 15 13  L 15 12  L 14 12  L 14 13  Z " stroke-width="0" stroke-dasharray="0" stroke="rgba(255, 255, 255, 0)" fill="none" transform="matrix(1 0 0 1 4 10 )" class="stroke" mask="url(#Clip4)" />
    <path d="M 10 3  L 10 4.999999999999999  L 13 4.999999999999999  L 13 11  L 6 11  L 6 9  L 3 9  L 3 3  L 10 3  Z " stroke-width="0" stroke-dasharray="0" stroke="rgba(255, 255, 255, 0)" fill="none" transform="matrix(1 0 0 1 4 10 )" class="stroke" mask="url(#Clip4)" />
    <path d="M 4 4  L 4 8  L 9 8  L 9 4  L 4 4  Z " stroke-width="0" stroke-dasharray="0" stroke="rgba(255, 255, 255, 0)" fill="none" transform="matrix(1 0 0 1 4 10 )" class="stroke" mask="url(#Clip4)" />
    <path d="M 7 10  L 12 10  L 12 6  L 10 6  L 10 9  L 7 9  L 7 10  Z " stroke-width="0" stroke-dasharray="0" stroke="rgba(255, 255, 255, 0)" fill="none" transform="matrix(1 0 0 1 4 10 )" class="stroke" mask="url(#Clip4)" />
  </g>
</svg>