<?xml version="1.0" encoding="utf-8"?>
<svg version="1.1" xmlns:xlink="http://www.w3.org/1999/xlink" width="14px" height="11px" xmlns="http://www.w3.org/2000/svg">
  <defs>
    <pattern id="BGPattern" patternUnits="userSpaceOnUse" alignment="0 0" imageRepeat="None" />
    <mask fill="white" id="Clip44">
      <path d="M 2.92578125 8.07421875  C 2.9752604166666665 8.123697916666666  3 8.182291666666666  3 8.25  L 3 8.75  C 3 8.817708333333332  2.9752604166666665 8.876302083333332  2.92578125 8.92578125  C 2.8763020833333335 8.975260416666666  2.8177083333333335 9  2.75 9  L 2.25 9  C 2.182291666666667 9  2.123697916666667 8.975260416666666  2.07421875 8.92578125  C 2.0247395833333335 8.876302083333332  2 8.817708333333332  2 8.75  L 2 8.25  C 2 8.182291666666666  2.0247395833333335 8.123697916666666  2.07421875 8.07421875  C 2.123697916666667 8.024739583333332  2.182291666666667 8  2.25 8  L 2.75 8  C 2.8177083333333335 8  2.8763020833333335 8.024739583333332  2.92578125 8.07421875  Z M 2.92578125 6.07421875  C 2.9752604166666665 6.123697916666666  3 6.182291666666666  3 6.249999999999999  L 3 6.75  C 3 6.817708333333333  2.9752604166666665 6.876302083333332  2.92578125 6.92578125  C 2.8763020833333335 6.975260416666666  2.8177083333333335 7  2.75 7  L 2.25 7  C 2.182291666666667 7  2.123697916666667 6.975260416666666  2.07421875 6.92578125  C 2.0247395833333335 6.876302083333332  2 6.817708333333333  2 6.75  L 2 6.249999999999999  C 2 6.182291666666666  2.0247395833333335 6.123697916666666  2.07421875 6.07421875  C 2.123697916666667 6.024739583333332  2.182291666666667 6  2.25 6  L 2.75 6  C 2.8177083333333335 6  2.8763020833333335 6.024739583333332  2.92578125 6.07421875  Z M 2.92578125 4.07421875  C 2.9752604166666665 4.123697916666667  3 4.182291666666666  3 4.25  L 3 4.749999999999999  C 3 4.817708333333334  2.9752604166666665 4.876302083333333  2.92578125 4.92578125  C 2.8763020833333335 4.975260416666666  2.8177083333333335 5  2.75 5  L 2.25 5  C 2.182291666666667 5  2.123697916666667 4.975260416666666  2.07421875 4.92578125  C 2.0247395833333335 4.876302083333333  2 4.817708333333334  2 4.749999999999999  L 2 4.25  C 2 4.182291666666666  2.0247395833333335 4.123697916666667  2.07421875 4.07421875  C 2.123697916666667 4.024739583333333  2.182291666666667 4  2.25 4  L 2.75 4  C 2.8177083333333335 4  2.8763020833333335 4.024739583333333  2.92578125 4.07421875  Z M 11.92578125 8.07421875  C 11.975260416666666 8.123697916666666  12 8.182291666666666  12 8.25  L 12 8.75  C 12 8.817708333333332  11.975260416666666 8.876302083333332  11.92578125 8.92578125  C 11.876302083333334 8.975260416666666  11.817708333333334 9  11.75 9  L 4.25 9  C 4.182291666666667 9  4.123697916666667 8.975260416666666  4.07421875 8.92578125  C 4.024739583333334 8.876302083333332  4 8.817708333333332  4 8.75  L 4 8.25  C 4 8.182291666666666  4.024739583333334 8.123697916666666  4.07421875 8.07421875  C 4.123697916666667 8.024739583333332  4.182291666666667 8  4.25 8  L 11.75 8  C 11.817708333333334 8  11.876302083333334 8.024739583333332  11.92578125 8.07421875  Z M 11.92578125 6.07421875  C 11.975260416666666 6.123697916666666  12 6.182291666666666  12 6.249999999999999  L 12 6.75  C 12 6.817708333333333  11.975260416666666 6.876302083333332  11.92578125 6.92578125  C 11.876302083333334 6.975260416666666  11.817708333333334 7  11.75 7  L 4.25 7  C 4.182291666666667 7  4.123697916666667 6.975260416666666  4.07421875 6.92578125  C 4.024739583333334 6.876302083333332  4 6.817708333333333  4 6.75  L 4 6.249999999999999  C 4 6.182291666666666  4.024739583333334 6.123697916666666  4.07421875 6.07421875  C 4.123697916666667 6.024739583333332  4.182291666666667 6  4.25 6  L 11.75 6  C 11.817708333333334 6  11.876302083333334 6.024739583333332  11.92578125 6.07421875  Z M 11.92578125 4.07421875  C 11.975260416666666 4.123697916666667  12 4.182291666666666  12 4.25  L 12 4.749999999999999  C 12 4.817708333333334  11.975260416666666 4.876302083333333  11.92578125 4.92578125  C 11.876302083333334 4.975260416666666  11.817708333333334 5  11.75 5  L 4.25 5  C 4.182291666666667 5  4.123697916666667 4.975260416666666  4.07421875 4.92578125  C 4.024739583333334 4.876302083333333  4 4.817708333333334  4 4.749999999999999  L 4 4.25  C 4 4.182291666666666  4.024739583333334 4.123697916666667  4.07421875 4.07421875  C 4.123697916666667 4.024739583333333  4.182291666666667 4  4.25 4  L 11.75 4  C 11.817708333333334 4  11.876302083333334 4.024739583333333  11.92578125 4.07421875  Z M 12.92578125 9.92578125  C 12.975260416666668 9.876302083333334  13 9.817708333333334  13 9.75  L 13 3.2499999999999996  C 13 3.1822916666666656  12.975260416666668 3.123697916666666  12.92578125 3.0742187499999996  C 12.876302083333334 3.0247395833333326  12.817708333333334 3  12.75 3  L 1.25 3  C 1.1822916666666667 3  1.1236979166666667 3.0247395833333326  1.07421875 3.0742187499999996  C 1.0247395833333335 3.123697916666666  1 3.1822916666666656  1 3.2499999999999996  L 1 9.75  C 1 9.817708333333334  1.0247395833333335 9.876302083333334  1.07421875 9.92578125  C 1.1236979166666667 9.975260416666666  1.1822916666666667 10  1.25 10  L 12.75 10  C 12.817708333333334 10  12.876302083333334 9.975260416666666  12.92578125 9.92578125  Z M 13.6328125 0.36718749999999944  C 13.877604166666668 0.6119791666666657  14 0.9062500000000001  14 1.25  L 14 9.75  C 14 10.09375  13.877604166666668 10.388020833333334  13.6328125 10.6328125  C 13.388020833333336 10.877604166666666  13.093750000000002 11  12.75 11  L 1.25 11  C 0.9062500000000001 11  0.6119791666666667 10.877604166666666  0.3671875 10.6328125  C 0.12239583333333334 10.388020833333334  0 10.09375  0 9.75  L 0 1.25  C 0 0.9062500000000001  0.12239583333333334 0.6119791666666657  0.3671875 0.36718749999999944  C 0.6119791666666667 0.12239583333333193  0.9062500000000001 0  1.25 0  L 12.75 0  C 13.093750000000002 0  13.388020833333336 0.12239583333333193  13.6328125 0.36718749999999944  Z " fill-rule="evenodd" />
    </mask>
  </defs>
  <g transform="matrix(1 0 0 1 -5 -12 )">
    <path d="M 2.92578125 8.07421875  C 2.9752604166666665 8.123697916666666  3 8.182291666666666  3 8.25  L 3 8.75  C 3 8.817708333333332  2.9752604166666665 8.876302083333332  2.92578125 8.92578125  C 2.8763020833333335 8.975260416666666  2.8177083333333335 9  2.75 9  L 2.25 9  C 2.182291666666667 9  2.123697916666667 8.975260416666666  2.07421875 8.92578125  C 2.0247395833333335 8.876302083333332  2 8.817708333333332  2 8.75  L 2 8.25  C 2 8.182291666666666  2.0247395833333335 8.123697916666666  2.07421875 8.07421875  C 2.123697916666667 8.024739583333332  2.182291666666667 8  2.25 8  L 2.75 8  C 2.8177083333333335 8  2.8763020833333335 8.024739583333332  2.92578125 8.07421875  Z M 2.92578125 6.07421875  C 2.9752604166666665 6.123697916666666  3 6.182291666666666  3 6.249999999999999  L 3 6.75  C 3 6.817708333333333  2.9752604166666665 6.876302083333332  2.92578125 6.92578125  C 2.8763020833333335 6.975260416666666  2.8177083333333335 7  2.75 7  L 2.25 7  C 2.182291666666667 7  2.123697916666667 6.975260416666666  2.07421875 6.92578125  C 2.0247395833333335 6.876302083333332  2 6.817708333333333  2 6.75  L 2 6.249999999999999  C 2 6.182291666666666  2.0247395833333335 6.123697916666666  2.07421875 6.07421875  C 2.123697916666667 6.024739583333332  2.182291666666667 6  2.25 6  L 2.75 6  C 2.8177083333333335 6  2.8763020833333335 6.024739583333332  2.92578125 6.07421875  Z M 2.92578125 4.07421875  C 2.9752604166666665 4.123697916666667  3 4.182291666666666  3 4.25  L 3 4.749999999999999  C 3 4.817708333333334  2.9752604166666665 4.876302083333333  2.92578125 4.92578125  C 2.8763020833333335 4.975260416666666  2.8177083333333335 5  2.75 5  L 2.25 5  C 2.182291666666667 5  2.123697916666667 4.975260416666666  2.07421875 4.92578125  C 2.0247395833333335 4.876302083333333  2 4.817708333333334  2 4.749999999999999  L 2 4.25  C 2 4.182291666666666  2.0247395833333335 4.123697916666667  2.07421875 4.07421875  C 2.123697916666667 4.024739583333333  2.182291666666667 4  2.25 4  L 2.75 4  C 2.8177083333333335 4  2.8763020833333335 4.024739583333333  2.92578125 4.07421875  Z M 11.92578125 8.07421875  C 11.975260416666666 8.123697916666666  12 8.182291666666666  12 8.25  L 12 8.75  C 12 8.817708333333332  11.975260416666666 8.876302083333332  11.92578125 8.92578125  C 11.876302083333334 8.975260416666666  11.817708333333334 9  11.75 9  L 4.25 9  C 4.182291666666667 9  4.123697916666667 8.975260416666666  4.07421875 8.92578125  C 4.024739583333334 8.876302083333332  4 8.817708333333332  4 8.75  L 4 8.25  C 4 8.182291666666666  4.024739583333334 8.123697916666666  4.07421875 8.07421875  C 4.123697916666667 8.024739583333332  4.182291666666667 8  4.25 8  L 11.75 8  C 11.817708333333334 8  11.876302083333334 8.024739583333332  11.92578125 8.07421875  Z M 11.92578125 6.07421875  C 11.975260416666666 6.123697916666666  12 6.182291666666666  12 6.249999999999999  L 12 6.75  C 12 6.817708333333333  11.975260416666666 6.876302083333332  11.92578125 6.92578125  C 11.876302083333334 6.975260416666666  11.817708333333334 7  11.75 7  L 4.25 7  C 4.182291666666667 7  4.123697916666667 6.975260416666666  4.07421875 6.92578125  C 4.024739583333334 6.876302083333332  4 6.817708333333333  4 6.75  L 4 6.249999999999999  C 4 6.182291666666666  4.024739583333334 6.123697916666666  4.07421875 6.07421875  C 4.123697916666667 6.024739583333332  4.182291666666667 6  4.25 6  L 11.75 6  C 11.817708333333334 6  11.876302083333334 6.024739583333332  11.92578125 6.07421875  Z M 11.92578125 4.07421875  C 11.975260416666666 4.123697916666667  12 4.182291666666666  12 4.25  L 12 4.749999999999999  C 12 4.817708333333334  11.975260416666666 4.876302083333333  11.92578125 4.92578125  C 11.876302083333334 4.975260416666666  11.817708333333334 5  11.75 5  L 4.25 5  C 4.182291666666667 5  4.123697916666667 4.975260416666666  4.07421875 4.92578125  C 4.024739583333334 4.876302083333333  4 4.817708333333334  4 4.749999999999999  L 4 4.25  C 4 4.182291666666666  4.024739583333334 4.123697916666667  4.07421875 4.07421875  C 4.123697916666667 4.024739583333333  4.182291666666667 4  4.25 4  L 11.75 4  C 11.817708333333334 4  11.876302083333334 4.024739583333333  11.92578125 4.07421875  Z M 12.92578125 9.92578125  C 12.975260416666668 9.876302083333334  13 9.817708333333334  13 9.75  L 13 3.2499999999999996  C 13 3.1822916666666656  12.975260416666668 3.123697916666666  12.92578125 3.0742187499999996  C 12.876302083333334 3.0247395833333326  12.817708333333334 3  12.75 3  L 1.25 3  C 1.1822916666666667 3  1.1236979166666667 3.0247395833333326  1.07421875 3.0742187499999996  C 1.0247395833333335 3.123697916666666  1 3.1822916666666656  1 3.2499999999999996  L 1 9.75  C 1 9.817708333333334  1.0247395833333335 9.876302083333334  1.07421875 9.92578125  C 1.1236979166666667 9.975260416666666  1.1822916666666667 10  1.25 10  L 12.75 10  C 12.817708333333334 10  12.876302083333334 9.975260416666666  12.92578125 9.92578125  Z M 13.6328125 0.36718749999999944  C 13.877604166666668 0.6119791666666657  14 0.9062500000000001  14 1.25  L 14 9.75  C 14 10.09375  13.877604166666668 10.388020833333334  13.6328125 10.6328125  C 13.388020833333336 10.877604166666666  13.093750000000002 11  12.75 11  L 1.25 11  C 0.9062500000000001 11  0.6119791666666667 10.877604166666666  0.3671875 10.6328125  C 0.12239583333333334 10.388020833333334  0 10.09375  0 9.75  L 0 1.25  C 0 0.9062500000000001  0.12239583333333334 0.6119791666666657  0.3671875 0.36718749999999944  C 0.6119791666666667 0.12239583333333193  0.9062500000000001 0  1.25 0  L 12.75 0  C 13.093750000000002 0  13.388020833333336 0.12239583333333193  13.6328125 0.36718749999999944  Z " fill-rule="nonzero" fill="rgba(154, 154, 157, 1)" stroke="none" transform="matrix(1 0 0 1 5 12 )" class="fill" />
    <path d="M 2.92578125 8.07421875  C 2.9752604166666665 8.123697916666666  3 8.182291666666666  3 8.25  L 3 8.75  C 3 8.817708333333332  2.9752604166666665 8.876302083333332  2.92578125 8.92578125  C 2.8763020833333335 8.975260416666666  2.8177083333333335 9  2.75 9  L 2.25 9  C 2.182291666666667 9  2.123697916666667 8.975260416666666  2.07421875 8.92578125  C 2.0247395833333335 8.876302083333332  2 8.817708333333332  2 8.75  L 2 8.25  C 2 8.182291666666666  2.0247395833333335 8.123697916666666  2.07421875 8.07421875  C 2.123697916666667 8.024739583333332  2.182291666666667 8  2.25 8  L 2.75 8  C 2.8177083333333335 8  2.8763020833333335 8.024739583333332  2.92578125 8.07421875  Z " stroke-width="0" stroke-dasharray="0" stroke="rgba(255, 255, 255, 0)" fill="none" transform="matrix(1 0 0 1 5 12 )" class="stroke" mask="url(#Clip44)" />
    <path d="M 2.92578125 6.07421875  C 2.9752604166666665 6.123697916666666  3 6.182291666666666  3 6.249999999999999  L 3 6.75  C 3 6.817708333333333  2.9752604166666665 6.876302083333332  2.92578125 6.92578125  C 2.8763020833333335 6.975260416666666  2.8177083333333335 7  2.75 7  L 2.25 7  C 2.182291666666667 7  2.123697916666667 6.975260416666666  2.07421875 6.92578125  C 2.0247395833333335 6.876302083333332  2 6.817708333333333  2 6.75  L 2 6.249999999999999  C 2 6.182291666666666  2.0247395833333335 6.123697916666666  2.07421875 6.07421875  C 2.123697916666667 6.024739583333332  2.182291666666667 6  2.25 6  L 2.75 6  C 2.8177083333333335 6  2.8763020833333335 6.024739583333332  2.92578125 6.07421875  Z " stroke-width="0" stroke-dasharray="0" stroke="rgba(255, 255, 255, 0)" fill="none" transform="matrix(1 0 0 1 5 12 )" class="stroke" mask="url(#Clip44)" />
    <path d="M 2.92578125 4.07421875  C 2.9752604166666665 4.123697916666667  3 4.182291666666666  3 4.25  L 3 4.749999999999999  C 3 4.817708333333334  2.9752604166666665 4.876302083333333  2.92578125 4.92578125  C 2.8763020833333335 4.975260416666666  2.8177083333333335 5  2.75 5  L 2.25 5  C 2.182291666666667 5  2.123697916666667 4.975260416666666  2.07421875 4.92578125  C 2.0247395833333335 4.876302083333333  2 4.817708333333334  2 4.749999999999999  L 2 4.25  C 2 4.182291666666666  2.0247395833333335 4.123697916666667  2.07421875 4.07421875  C 2.123697916666667 4.024739583333333  2.182291666666667 4  2.25 4  L 2.75 4  C 2.8177083333333335 4  2.8763020833333335 4.024739583333333  2.92578125 4.07421875  Z " stroke-width="0" stroke-dasharray="0" stroke="rgba(255, 255, 255, 0)" fill="none" transform="matrix(1 0 0 1 5 12 )" class="stroke" mask="url(#Clip44)" />
    <path d="M 11.92578125 8.07421875  C 11.975260416666666 8.123697916666666  12 8.182291666666666  12 8.25  L 12 8.75  C 12 8.817708333333332  11.975260416666666 8.876302083333332  11.92578125 8.92578125  C 11.876302083333334 8.975260416666666  11.817708333333334 9  11.75 9  L 4.25 9  C 4.182291666666667 9  4.123697916666667 8.975260416666666  4.07421875 8.92578125  C 4.024739583333334 8.876302083333332  4 8.817708333333332  4 8.75  L 4 8.25  C 4 8.182291666666666  4.024739583333334 8.123697916666666  4.07421875 8.07421875  C 4.123697916666667 8.024739583333332  4.182291666666667 8  4.25 8  L 11.75 8  C 11.817708333333334 8  11.876302083333334 8.024739583333332  11.92578125 8.07421875  Z " stroke-width="0" stroke-dasharray="0" stroke="rgba(255, 255, 255, 0)" fill="none" transform="matrix(1 0 0 1 5 12 )" class="stroke" mask="url(#Clip44)" />
    <path d="M 11.92578125 6.07421875  C 11.975260416666666 6.123697916666666  12 6.182291666666666  12 6.249999999999999  L 12 6.75  C 12 6.817708333333333  11.975260416666666 6.876302083333332  11.92578125 6.92578125  C 11.876302083333334 6.975260416666666  11.817708333333334 7  11.75 7  L 4.25 7  C 4.182291666666667 7  4.123697916666667 6.975260416666666  4.07421875 6.92578125  C 4.024739583333334 6.876302083333332  4 6.817708333333333  4 6.75  L 4 6.249999999999999  C 4 6.182291666666666  4.024739583333334 6.123697916666666  4.07421875 6.07421875  C 4.123697916666667 6.024739583333332  4.182291666666667 6  4.25 6  L 11.75 6  C 11.817708333333334 6  11.876302083333334 6.024739583333332  11.92578125 6.07421875  Z " stroke-width="0" stroke-dasharray="0" stroke="rgba(255, 255, 255, 0)" fill="none" transform="matrix(1 0 0 1 5 12 )" class="stroke" mask="url(#Clip44)" />
    <path d="M 11.92578125 4.07421875  C 11.975260416666666 4.123697916666667  12 4.182291666666666  12 4.25  L 12 4.749999999999999  C 12 4.817708333333334  11.975260416666666 4.876302083333333  11.92578125 4.92578125  C 11.876302083333334 4.975260416666666  11.817708333333334 5  11.75 5  L 4.25 5  C 4.182291666666667 5  4.123697916666667 4.975260416666666  4.07421875 4.92578125  C 4.024739583333334 4.876302083333333  4 4.817708333333334  4 4.749999999999999  L 4 4.25  C 4 4.182291666666666  4.024739583333334 4.123697916666667  4.07421875 4.07421875  C 4.123697916666667 4.024739583333333  4.182291666666667 4  4.25 4  L 11.75 4  C 11.817708333333334 4  11.876302083333334 4.024739583333333  11.92578125 4.07421875  Z " stroke-width="0" stroke-dasharray="0" stroke="rgba(255, 255, 255, 0)" fill="none" transform="matrix(1 0 0 1 5 12 )" class="stroke" mask="url(#Clip44)" />
    <path d="M 12.92578125 9.92578125  C 12.975260416666668 9.876302083333334  13 9.817708333333334  13 9.75  L 13 3.2499999999999996  C 13 3.1822916666666656  12.975260416666668 3.123697916666666  12.92578125 3.0742187499999996  C 12.876302083333334 3.0247395833333326  12.817708333333334 3  12.75 3  L 1.25 3  C 1.1822916666666667 3  1.1236979166666667 3.0247395833333326  1.07421875 3.0742187499999996  C 1.0247395833333335 3.123697916666666  1 3.1822916666666656  1 3.2499999999999996  L 1 9.75  C 1 9.817708333333334  1.0247395833333335 9.876302083333334  1.07421875 9.92578125  C 1.1236979166666667 9.975260416666666  1.1822916666666667 10  1.25 10  L 12.75 10  C 12.817708333333334 10  12.876302083333334 9.975260416666666  12.92578125 9.92578125  Z " stroke-width="0" stroke-dasharray="0" stroke="rgba(255, 255, 255, 0)" fill="none" transform="matrix(1 0 0 1 5 12 )" class="stroke" mask="url(#Clip44)" />
    <path d="M 13.6328125 0.36718749999999944  C 13.877604166666668 0.6119791666666657  14 0.9062500000000001  14 1.25  L 14 9.75  C 14 10.09375  13.877604166666668 10.388020833333334  13.6328125 10.6328125  C 13.388020833333336 10.877604166666666  13.093750000000002 11  12.75 11  L 1.25 11  C 0.9062500000000001 11  0.6119791666666667 10.877604166666666  0.3671875 10.6328125  C 0.12239583333333334 10.388020833333334  0 10.09375  0 9.75  L 0 1.25  C 0 0.9062500000000001  0.12239583333333334 0.6119791666666657  0.3671875 0.36718749999999944  C 0.6119791666666667 0.12239583333333193  0.9062500000000001 0  1.25 0  L 12.75 0  C 13.093750000000002 0  13.388020833333336 0.12239583333333193  13.6328125 0.36718749999999944  Z " stroke-width="0" stroke-dasharray="0" stroke="rgba(255, 255, 255, 0)" fill="none" transform="matrix(1 0 0 1 5 12 )" class="stroke" mask="url(#Clip44)" />
  </g>
</svg>