<?xml version="1.0" encoding="utf-8"?>
<svg version="1.1" xmlns:xlink="http://www.w3.org/1999/xlink" width="12px" height="10px" xmlns="http://www.w3.org/2000/svg">
  <defs>
    <pattern id="BGPattern" patternUnits="userSpaceOnUse" alignment="0 0" imageRepeat="None" />
    <mask fill="white" id="Clip62">
      <path d="M 6.944196428571429 4.707792207792208  L 11.698660714285715 0.09740259740259716  C 11.783482142857142 0.015151515151514694  11.854910714285715 -0.012987012987013546  11.912946428571429 0.012987012987012436  C 11.970982142857142 0.03896103896103842  12 0.10822510822510734  12 0.2207792207792203  L 12 9.779220779220779  C 12 9.891774891774892  11.970982142857142 9.961038961038962  11.912946428571429 9.987012987012987  C 11.854910714285715 10.012987012987013  11.783482142857142 9.984848484848484  11.698660714285715 9.902597402597403  L 6.944196428571429 5.292207792207792  C 6.904017857142857 5.253246753246753  6.875000000000001 5.212121212121213  6.857142857142857 5.168831168831169  L 6.857142857142857 9.779220779220779  C 6.857142857142857 9.891774891774892  6.828125000000001 9.961038961038962  6.770089285714285 9.987012987012987  C 6.712053571428572 10.012987012987013  6.640625000000001 9.984848484848484  6.555803571428571 9.902597402597403  L 1.8013392857142858 5.292207792207792  C 1.7611607142857142 5.253246753246753  1.7321428571428572 5.212121212121213  1.7142857142857142 5.168831168831169  L 1.7142857142857142 9.571428571428571  C 1.7142857142857142 9.683982683982684  1.6718750000000002 9.781385281385282  1.5870535714285712 9.863636363636363  C 1.502232142857143 9.945887445887447  1.4017857142857144 9.987012987012987  1.2857142857142856 9.987012987012987  L 0.42857142857142855 9.987012987012987  C 0.3125 9.987012987012987  0.21205357142857142 9.945887445887447  0.12723214285714285 9.863636363636363  C 0.04241071428571429 9.781385281385282  0 9.683982683982684  0 9.571428571428571  L 0 0.42857142857142816  C 0 0.3160173160173152  0.04241071428571429 0.21861471861471804  0.12723214285714285 0.1363636363636367  C 0.21205357142857142 0.05411255411255311  0.3125 0.012987012987012436  0.42857142857142855 0.012987012987012436  L 1.2857142857142856 0.012987012987012436  C 1.4017857142857144 0.012987012987012436  1.502232142857143 0.05411255411255311  1.5870535714285712 0.1363636363636367  C 1.6718750000000002 0.21861471861471804  1.7142857142857142 0.3160173160173152  1.7142857142857142 0.42857142857142816  L 1.7142857142857142 4.8311688311688314  C 1.7321428571428572 4.787878787878787  1.7611607142857142 4.746753246753247  1.8013392857142858 4.707792207792208  L 6.555803571428571 0.09740259740259716  C 6.640625000000001 0.015151515151514694  6.712053571428572 -0.012987012987013546  6.770089285714285 0.012987012987012436  C 6.828125000000001 0.03896103896103842  6.857142857142857 0.10822510822510734  6.857142857142857 0.2207792207792203  L 6.857142857142857 4.8311688311688314  C 6.875000000000001 4.787878787878787  6.904017857142857 4.746753246753247  6.944196428571429 4.707792207792208  Z " fill-rule="evenodd" />
    </mask>
  </defs>
  <g transform="matrix(1 0 0 1 -9 -637 )">
    <path d="M 6.944196428571429 4.707792207792208  L 11.698660714285715 0.09740259740259716  C 11.783482142857142 0.015151515151514694  11.854910714285715 -0.012987012987013546  11.912946428571429 0.012987012987012436  C 11.970982142857142 0.03896103896103842  12 0.10822510822510734  12 0.2207792207792203  L 12 9.779220779220779  C 12 9.891774891774892  11.970982142857142 9.961038961038962  11.912946428571429 9.987012987012987  C 11.854910714285715 10.012987012987013  11.783482142857142 9.984848484848484  11.698660714285715 9.902597402597403  L 6.944196428571429 5.292207792207792  C 6.904017857142857 5.253246753246753  6.875000000000001 5.212121212121213  6.857142857142857 5.168831168831169  L 6.857142857142857 9.779220779220779  C 6.857142857142857 9.891774891774892  6.828125000000001 9.961038961038962  6.770089285714285 9.987012987012987  C 6.712053571428572 10.012987012987013  6.640625000000001 9.984848484848484  6.555803571428571 9.902597402597403  L 1.8013392857142858 5.292207792207792  C 1.7611607142857142 5.253246753246753  1.7321428571428572 5.212121212121213  1.7142857142857142 5.168831168831169  L 1.7142857142857142 9.571428571428571  C 1.7142857142857142 9.683982683982684  1.6718750000000002 9.781385281385282  1.5870535714285712 9.863636363636363  C 1.502232142857143 9.945887445887447  1.4017857142857144 9.987012987012987  1.2857142857142856 9.987012987012987  L 0.42857142857142855 9.987012987012987  C 0.3125 9.987012987012987  0.21205357142857142 9.945887445887447  0.12723214285714285 9.863636363636363  C 0.04241071428571429 9.781385281385282  0 9.683982683982684  0 9.571428571428571  L 0 0.42857142857142816  C 0 0.3160173160173152  0.04241071428571429 0.21861471861471804  0.12723214285714285 0.1363636363636367  C 0.21205357142857142 0.05411255411255311  0.3125 0.012987012987012436  0.42857142857142855 0.012987012987012436  L 1.2857142857142856 0.012987012987012436  C 1.4017857142857144 0.012987012987012436  1.502232142857143 0.05411255411255311  1.5870535714285712 0.1363636363636367  C 1.6718750000000002 0.21861471861471804  1.7142857142857142 0.3160173160173152  1.7142857142857142 0.42857142857142816  L 1.7142857142857142 4.8311688311688314  C 1.7321428571428572 4.787878787878787  1.7611607142857142 4.746753246753247  1.8013392857142858 4.707792207792208  L 6.555803571428571 0.09740259740259716  C 6.640625000000001 0.015151515151514694  6.712053571428572 -0.012987012987013546  6.770089285714285 0.012987012987012436  C 6.828125000000001 0.03896103896103842  6.857142857142857 0.10822510822510734  6.857142857142857 0.2207792207792203  L 6.857142857142857 4.8311688311688314  C 6.875000000000001 4.787878787878787  6.904017857142857 4.746753246753247  6.944196428571429 4.707792207792208  Z " fill-rule="nonzero" fill="rgba(170, 170, 170, 1)" stroke="none" transform="matrix(1 0 0 1 9 637 )" class="fill" />
    <path d="M 6.944196428571429 4.707792207792208  L 11.698660714285715 0.09740259740259716  C 11.783482142857142 0.015151515151514694  11.854910714285715 -0.012987012987013546  11.912946428571429 0.012987012987012436  C 11.970982142857142 0.03896103896103842  12 0.10822510822510734  12 0.2207792207792203  L 12 9.779220779220779  C 12 9.891774891774892  11.970982142857142 9.961038961038962  11.912946428571429 9.987012987012987  C 11.854910714285715 10.012987012987013  11.783482142857142 9.984848484848484  11.698660714285715 9.902597402597403  L 6.944196428571429 5.292207792207792  C 6.904017857142857 5.253246753246753  6.875000000000001 5.212121212121213  6.857142857142857 5.168831168831169  L 6.857142857142857 9.779220779220779  C 6.857142857142857 9.891774891774892  6.828125000000001 9.961038961038962  6.770089285714285 9.987012987012987  C 6.712053571428572 10.012987012987013  6.640625000000001 9.984848484848484  6.555803571428571 9.902597402597403  L 1.8013392857142858 5.292207792207792  C 1.7611607142857142 5.253246753246753  1.7321428571428572 5.212121212121213  1.7142857142857142 5.168831168831169  L 1.7142857142857142 9.571428571428571  C 1.7142857142857142 9.683982683982684  1.6718750000000002 9.781385281385282  1.5870535714285712 9.863636363636363  C 1.502232142857143 9.945887445887447  1.4017857142857144 9.987012987012987  1.2857142857142856 9.987012987012987  L 0.42857142857142855 9.987012987012987  C 0.3125 9.987012987012987  0.21205357142857142 9.945887445887447  0.12723214285714285 9.863636363636363  C 0.04241071428571429 9.781385281385282  0 9.683982683982684  0 9.571428571428571  L 0 0.42857142857142816  C 0 0.3160173160173152  0.04241071428571429 0.21861471861471804  0.12723214285714285 0.1363636363636367  C 0.21205357142857142 0.05411255411255311  0.3125 0.012987012987012436  0.42857142857142855 0.012987012987012436  L 1.2857142857142856 0.012987012987012436  C 1.4017857142857144 0.012987012987012436  1.502232142857143 0.05411255411255311  1.5870535714285712 0.1363636363636367  C 1.6718750000000002 0.21861471861471804  1.7142857142857142 0.3160173160173152  1.7142857142857142 0.42857142857142816  L 1.7142857142857142 4.8311688311688314  C 1.7321428571428572 4.787878787878787  1.7611607142857142 4.746753246753247  1.8013392857142858 4.707792207792208  L 6.555803571428571 0.09740259740259716  C 6.640625000000001 0.015151515151514694  6.712053571428572 -0.012987012987013546  6.770089285714285 0.012987012987012436  C 6.828125000000001 0.03896103896103842  6.857142857142857 0.10822510822510734  6.857142857142857 0.2207792207792203  L 6.857142857142857 4.8311688311688314  C 6.875000000000001 4.787878787878787  6.904017857142857 4.746753246753247  6.944196428571429 4.707792207792208  Z " stroke-width="0" stroke-dasharray="0" stroke="rgba(255, 255, 255, 0)" fill="none" transform="matrix(1 0 0 1 9 637 )" class="stroke" mask="url(#Clip62)" />
  </g>
</svg>