<?xml version="1.0" encoding="utf-8"?>
<svg version="1.1" xmlns:xlink="http://www.w3.org/1999/xlink" width="12px" height="10px" xmlns="http://www.w3.org/2000/svg">
  <defs>
    <pattern id="BGPattern" patternUnits="userSpaceOnUse" alignment="0 0" imageRepeat="None" />
    <mask fill="white" id="Clip26">
      <path d="M 5.055803571428571 5.292207792207792  L 0.3013392857142857 9.902597402597403  C 0.21651785714285715 9.984848484848484  0.14508928571428575 10.012987012987013  0.08705357142857144 9.987012987012987  C 0.029017857142857154 9.961038961038962  0 9.891774891774892  0 9.779220779220779  L 0 0.2207792207792203  C 0 0.10822510822510734  0.029017857142857154 0.03896103896103842  0.08705357142857144 0.012987012987012436  C 0.14508928571428575 -0.012987012987013546  0.21651785714285715 0.015151515151514694  0.3013392857142857 0.09740259740259716  L 5.055803571428571 4.707792207792208  C 5.095982142857142 4.746753246753247  5.125 4.787878787878787  5.142857142857142 4.8311688311688314  L 5.142857142857142 0.2207792207792203  C 5.142857142857142 0.10822510822510734  5.171875 0.03896103896103842  5.229910714285714 0.012987012987012436  C 5.287946428571429 -0.012987012987013546  5.359375 0.015151515151514694  5.444196428571429 0.09740259740259716  L 10.198660714285715 4.707792207792208  C 10.238839285714285 4.746753246753247  10.267857142857144 4.787878787878787  10.285714285714285 4.8311688311688314  L 10.285714285714285 0.42857142857142816  C 10.285714285714285 0.3160173160173152  10.328125 0.21861471861471804  10.412946428571429 0.1363636363636367  C 10.497767857142858 0.05411255411255311  10.598214285714286 0.012987012987012436  10.714285714285715 0.012987012987012436  L 11.571428571428571 0.012987012987012436  C 11.6875 0.012987012987012436  11.78794642857143 0.05411255411255311  11.872767857142858 0.1363636363636367  C 11.957589285714286 0.21861471861471804  12 0.3160173160173152  12 0.42857142857142816  L 12 9.571428571428571  C 12 9.683982683982684  11.957589285714286 9.781385281385282  11.872767857142858 9.863636363636363  C 11.78794642857143 9.945887445887447  11.6875 9.987012987012987  11.571428571428571 9.987012987012987  L 10.714285714285715 9.987012987012987  C 10.598214285714286 9.987012987012987  10.497767857142858 9.945887445887447  10.412946428571429 9.863636363636363  C 10.328125 9.781385281385282  10.285714285714285 9.683982683982684  10.285714285714285 9.571428571428571  L 10.285714285714285 5.168831168831169  C 10.267857142857144 5.212121212121213  10.238839285714285 5.253246753246753  10.198660714285715 5.292207792207792  L 5.444196428571429 9.902597402597403  C 5.359375 9.984848484848484  5.287946428571429 10.012987012987013  5.229910714285714 9.987012987012987  C 5.171875 9.961038961038962  5.142857142857142 9.891774891774892  5.142857142857142 9.779220779220779  L 5.142857142857142 5.168831168831169  C 5.125 5.212121212121213  5.095982142857142 5.253246753246753  5.055803571428571 5.292207792207792  Z " fill-rule="evenodd" />
    </mask>
  </defs>
  <g transform="matrix(1 0 0 1 -139 -637 )">
    <path d="M 5.055803571428571 5.292207792207792  L 0.3013392857142857 9.902597402597403  C 0.21651785714285715 9.984848484848484  0.14508928571428575 10.012987012987013  0.08705357142857144 9.987012987012987  C 0.029017857142857154 9.961038961038962  0 9.891774891774892  0 9.779220779220779  L 0 0.2207792207792203  C 0 0.10822510822510734  0.029017857142857154 0.03896103896103842  0.08705357142857144 0.012987012987012436  C 0.14508928571428575 -0.012987012987013546  0.21651785714285715 0.015151515151514694  0.3013392857142857 0.09740259740259716  L 5.055803571428571 4.707792207792208  C 5.095982142857142 4.746753246753247  5.125 4.787878787878787  5.142857142857142 4.8311688311688314  L 5.142857142857142 0.2207792207792203  C 5.142857142857142 0.10822510822510734  5.171875 0.03896103896103842  5.229910714285714 0.012987012987012436  C 5.287946428571429 -0.012987012987013546  5.359375 0.015151515151514694  5.444196428571429 0.09740259740259716  L 10.198660714285715 4.707792207792208  C 10.238839285714285 4.746753246753247  10.267857142857144 4.787878787878787  10.285714285714285 4.8311688311688314  L 10.285714285714285 0.42857142857142816  C 10.285714285714285 0.3160173160173152  10.328125 0.21861471861471804  10.412946428571429 0.1363636363636367  C 10.497767857142858 0.05411255411255311  10.598214285714286 0.012987012987012436  10.714285714285715 0.012987012987012436  L 11.571428571428571 0.012987012987012436  C 11.6875 0.012987012987012436  11.78794642857143 0.05411255411255311  11.872767857142858 0.1363636363636367  C 11.957589285714286 0.21861471861471804  12 0.3160173160173152  12 0.42857142857142816  L 12 9.571428571428571  C 12 9.683982683982684  11.957589285714286 9.781385281385282  11.872767857142858 9.863636363636363  C 11.78794642857143 9.945887445887447  11.6875 9.987012987012987  11.571428571428571 9.987012987012987  L 10.714285714285715 9.987012987012987  C 10.598214285714286 9.987012987012987  10.497767857142858 9.945887445887447  10.412946428571429 9.863636363636363  C 10.328125 9.781385281385282  10.285714285714285 9.683982683982684  10.285714285714285 9.571428571428571  L 10.285714285714285 5.168831168831169  C 10.267857142857144 5.212121212121213  10.238839285714285 5.253246753246753  10.198660714285715 5.292207792207792  L 5.444196428571429 9.902597402597403  C 5.359375 9.984848484848484  5.287946428571429 10.012987012987013  5.229910714285714 9.987012987012987  C 5.171875 9.961038961038962  5.142857142857142 9.891774891774892  5.142857142857142 9.779220779220779  L 5.142857142857142 5.168831168831169  C 5.125 5.212121212121213  5.095982142857142 5.253246753246753  5.055803571428571 5.292207792207792  Z " fill-rule="nonzero" fill="rgba(170, 170, 170, 1)" stroke="none" transform="matrix(1 0 0 1 139 637 )" class="fill" />
    <path d="M 5.055803571428571 5.292207792207792  L 0.3013392857142857 9.902597402597403  C 0.21651785714285715 9.984848484848484  0.14508928571428575 10.012987012987013  0.08705357142857144 9.987012987012987  C 0.029017857142857154 9.961038961038962  0 9.891774891774892  0 9.779220779220779  L 0 0.2207792207792203  C 0 0.10822510822510734  0.029017857142857154 0.03896103896103842  0.08705357142857144 0.012987012987012436  C 0.14508928571428575 -0.012987012987013546  0.21651785714285715 0.015151515151514694  0.3013392857142857 0.09740259740259716  L 5.055803571428571 4.707792207792208  C 5.095982142857142 4.746753246753247  5.125 4.787878787878787  5.142857142857142 4.8311688311688314  L 5.142857142857142 0.2207792207792203  C 5.142857142857142 0.10822510822510734  5.171875 0.03896103896103842  5.229910714285714 0.012987012987012436  C 5.287946428571429 -0.012987012987013546  5.359375 0.015151515151514694  5.444196428571429 0.09740259740259716  L 10.198660714285715 4.707792207792208  C 10.238839285714285 4.746753246753247  10.267857142857144 4.787878787878787  10.285714285714285 4.8311688311688314  L 10.285714285714285 0.42857142857142816  C 10.285714285714285 0.3160173160173152  10.328125 0.21861471861471804  10.412946428571429 0.1363636363636367  C 10.497767857142858 0.05411255411255311  10.598214285714286 0.012987012987012436  10.714285714285715 0.012987012987012436  L 11.571428571428571 0.012987012987012436  C 11.6875 0.012987012987012436  11.78794642857143 0.05411255411255311  11.872767857142858 0.1363636363636367  C 11.957589285714286 0.21861471861471804  12 0.3160173160173152  12 0.42857142857142816  L 12 9.571428571428571  C 12 9.683982683982684  11.957589285714286 9.781385281385282  11.872767857142858 9.863636363636363  C 11.78794642857143 9.945887445887447  11.6875 9.987012987012987  11.571428571428571 9.987012987012987  L 10.714285714285715 9.987012987012987  C 10.598214285714286 9.987012987012987  10.497767857142858 9.945887445887447  10.412946428571429 9.863636363636363  C 10.328125 9.781385281385282  10.285714285714285 9.683982683982684  10.285714285714285 9.571428571428571  L 10.285714285714285 5.168831168831169  C 10.267857142857144 5.212121212121213  10.238839285714285 5.253246753246753  10.198660714285715 5.292207792207792  L 5.444196428571429 9.902597402597403  C 5.359375 9.984848484848484  5.287946428571429 10.012987012987013  5.229910714285714 9.987012987012987  C 5.171875 9.961038961038962  5.142857142857142 9.891774891774892  5.142857142857142 9.779220779220779  L 5.142857142857142 5.168831168831169  C 5.125 5.212121212121213  5.095982142857142 5.253246753246753  5.055803571428571 5.292207792207792  Z " stroke-width="0" stroke-dasharray="0" stroke="rgba(255, 255, 255, 0)" fill="none" transform="matrix(1 0 0 1 139 637 )" class="stroke" mask="url(#Clip26)" />
  </g>
</svg>