<?xml version="1.0" encoding="utf-8"?>
<svg version="1.1" xmlns:xlink="http://www.w3.org/1999/xlink" width="12px" height="12px" xmlns="http://www.w3.org/2000/svg">
  <defs>
    <pattern id="BGPattern" patternUnits="userSpaceOnUse" alignment="0 0" imageRepeat="None" />
    <mask fill="white" id="Clip415">
      <path d="M 7.105590062111801 10.725450901803608  C 7.188405797101451 10.80561122244489  7.229813664596273 10.897795591182364  7.229813664596273 11.002004008016032  C 7.229813664596273 11.1062124248497  7.188405797101451 11.198396793587174  7.105590062111801 11.278557114228457  L 6.484472049689441 11.879759519038076  C 6.401656314699794 11.959919839679358  6.306418219461699 12  6.198757763975156 12  C 6.091097308488613 12  5.995859213250519 11.959919839679358  5.91304347826087 11.879759519038076  L 0.12422360248447205 6.2765531062124245  C 0.041407867494824044 6.196392785571142  0 6.104208416833666  0 6  C 0 5.895791583166332  0.041407867494824044 5.803607214428857  0.12422360248447205 5.7234468937875755  L 5.91304347826087 0.12024048096192397  C 5.995859213250519 0.04008016032064088  6.091097308488613 0  6.198757763975156 0  C 6.306418219461699 0  6.401656314699794 0.04008016032064088  6.484472049689441 0.12024048096192397  L 7.105590062111801 0.7214428857715425  C 7.188405797101451 0.8016032064128242  7.229813664596273 0.893787575150299  7.229813664596273 0.9979959919839683  C 7.229813664596273 1.1022044088176348  7.188405797101451 1.1943887775551096  7.105590062111801 1.2745490981963927  L 2.2236024844720497 6  L 7.105590062111801 10.725450901803608  Z M 11.875776397515528 10.725450901803608  C 11.958592132505178 10.80561122244489  12.000000000000004 10.897795591182364  12 11.002004008016032  C 12.000000000000004 11.1062124248497  11.958592132505178 11.198396793587174  11.875776397515528 11.278557114228457  L 11.254658385093167 11.879759519038076  C 11.171842650103521 11.959919839679358  11.076604554865426 12  10.96894409937888 12  C 10.861283643892342 12  10.766045548654246 11.959919839679358  10.683229813664596 11.879759519038076  L 4.894409937888199 6.2765531062124245  C 4.811594202898552 6.196392785571142  4.770186335403728 6.104208416833666  4.770186335403727 6  C 4.770186335403728 5.895791583166332  4.811594202898552 5.803607214428857  4.894409937888199 5.7234468937875755  L 10.683229813664596 0.12024048096192397  C 10.766045548654246 0.04008016032064088  10.861283643892342 0  10.96894409937888 0  C 11.076604554865426 0  11.171842650103521 0.04008016032064088  11.254658385093167 0.12024048096192397  L 11.875776397515528 0.7214428857715425  C 11.958592132505178 0.8016032064128242  12.000000000000004 0.893787575150299  12 0.9979959919839683  C 12.000000000000004 1.1022044088176348  11.958592132505178 1.1943887775551096  11.875776397515528 1.2745490981963927  L 6.9937888198757765 6  L 11.875776397515528 10.725450901803608  Z " fill-rule="evenodd" />
    </mask>
  </defs>
  <g transform="matrix(1 0 0 1 -5 -6 )">
    <path d="M 7.105590062111801 10.725450901803608  C 7.188405797101451 10.80561122244489  7.229813664596273 10.897795591182364  7.229813664596273 11.002004008016032  C 7.229813664596273 11.1062124248497  7.188405797101451 11.198396793587174  7.105590062111801 11.278557114228457  L 6.484472049689441 11.879759519038076  C 6.401656314699794 11.959919839679358  6.306418219461699 12  6.198757763975156 12  C 6.091097308488613 12  5.995859213250519 11.959919839679358  5.91304347826087 11.879759519038076  L 0.12422360248447205 6.2765531062124245  C 0.041407867494824044 6.196392785571142  0 6.104208416833666  0 6  C 0 5.895791583166332  0.041407867494824044 5.803607214428857  0.12422360248447205 5.7234468937875755  L 5.91304347826087 0.12024048096192397  C 5.995859213250519 0.04008016032064088  6.091097308488613 0  6.198757763975156 0  C 6.306418219461699 0  6.401656314699794 0.04008016032064088  6.484472049689441 0.12024048096192397  L 7.105590062111801 0.7214428857715425  C 7.188405797101451 0.8016032064128242  7.229813664596273 0.893787575150299  7.229813664596273 0.9979959919839683  C 7.229813664596273 1.1022044088176348  7.188405797101451 1.1943887775551096  7.105590062111801 1.2745490981963927  L 2.2236024844720497 6  L 7.105590062111801 10.725450901803608  Z M 11.875776397515528 10.725450901803608  C 11.958592132505178 10.80561122244489  12.000000000000004 10.897795591182364  12 11.002004008016032  C 12.000000000000004 11.1062124248497  11.958592132505178 11.198396793587174  11.875776397515528 11.278557114228457  L 11.254658385093167 11.879759519038076  C 11.171842650103521 11.959919839679358  11.076604554865426 12  10.96894409937888 12  C 10.861283643892342 12  10.766045548654246 11.959919839679358  10.683229813664596 11.879759519038076  L 4.894409937888199 6.2765531062124245  C 4.811594202898552 6.196392785571142  4.770186335403728 6.104208416833666  4.770186335403727 6  C 4.770186335403728 5.895791583166332  4.811594202898552 5.803607214428857  4.894409937888199 5.7234468937875755  L 10.683229813664596 0.12024048096192397  C 10.766045548654246 0.04008016032064088  10.861283643892342 0  10.96894409937888 0  C 11.076604554865426 0  11.171842650103521 0.04008016032064088  11.254658385093167 0.12024048096192397  L 11.875776397515528 0.7214428857715425  C 11.958592132505178 0.8016032064128242  12.000000000000004 0.893787575150299  12 0.9979959919839683  C 12.000000000000004 1.1022044088176348  11.958592132505178 1.1943887775551096  11.875776397515528 1.2745490981963927  L 6.9937888198757765 6  L 11.875776397515528 10.725450901803608  Z " fill-rule="nonzero" fill="rgba(170, 170, 170, 1)" stroke="none" transform="matrix(1 0 0 1 5 6 )" class="fill" />
    <path d="M 7.105590062111801 10.725450901803608  C 7.188405797101451 10.80561122244489  7.229813664596273 10.897795591182364  7.229813664596273 11.002004008016032  C 7.229813664596273 11.1062124248497  7.188405797101451 11.198396793587174  7.105590062111801 11.278557114228457  L 6.484472049689441 11.879759519038076  C 6.401656314699794 11.959919839679358  6.306418219461699 12  6.198757763975156 12  C 6.091097308488613 12  5.995859213250519 11.959919839679358  5.91304347826087 11.879759519038076  L 0.12422360248447205 6.2765531062124245  C 0.041407867494824044 6.196392785571142  0 6.104208416833666  0 6  C 0 5.895791583166332  0.041407867494824044 5.803607214428857  0.12422360248447205 5.7234468937875755  L 5.91304347826087 0.12024048096192397  C 5.995859213250519 0.04008016032064088  6.091097308488613 0  6.198757763975156 0  C 6.306418219461699 0  6.401656314699794 0.04008016032064088  6.484472049689441 0.12024048096192397  L 7.105590062111801 0.7214428857715425  C 7.188405797101451 0.8016032064128242  7.229813664596273 0.893787575150299  7.229813664596273 0.9979959919839683  C 7.229813664596273 1.1022044088176348  7.188405797101451 1.1943887775551096  7.105590062111801 1.2745490981963927  L 2.2236024844720497 6  L 7.105590062111801 10.725450901803608  Z " stroke-width="0" stroke-dasharray="0" stroke="rgba(255, 255, 255, 0)" fill="none" transform="matrix(1 0 0 1 5 6 )" class="stroke" mask="url(#Clip415)" />
    <path d="M 11.875776397515528 10.725450901803608  C 11.958592132505178 10.80561122244489  12.000000000000004 10.897795591182364  12 11.002004008016032  C 12.000000000000004 11.1062124248497  11.958592132505178 11.198396793587174  11.875776397515528 11.278557114228457  L 11.254658385093167 11.879759519038076  C 11.171842650103521 11.959919839679358  11.076604554865426 12  10.96894409937888 12  C 10.861283643892342 12  10.766045548654246 11.959919839679358  10.683229813664596 11.879759519038076  L 4.894409937888199 6.2765531062124245  C 4.811594202898552 6.196392785571142  4.770186335403728 6.104208416833666  4.770186335403727 6  C 4.770186335403728 5.895791583166332  4.811594202898552 5.803607214428857  4.894409937888199 5.7234468937875755  L 10.683229813664596 0.12024048096192397  C 10.766045548654246 0.04008016032064088  10.861283643892342 0  10.96894409937888 0  C 11.076604554865426 0  11.171842650103521 0.04008016032064088  11.254658385093167 0.12024048096192397  L 11.875776397515528 0.7214428857715425  C 11.958592132505178 0.8016032064128242  12.000000000000004 0.893787575150299  12 0.9979959919839683  C 12.000000000000004 1.1022044088176348  11.958592132505178 1.1943887775551096  11.875776397515528 1.2745490981963927  L 6.9937888198757765 6  L 11.875776397515528 10.725450901803608  Z " stroke-width="0" stroke-dasharray="0" stroke="rgba(255, 255, 255, 0)" fill="none" transform="matrix(1 0 0 1 5 6 )" class="stroke" mask="url(#Clip415)" />
  </g>
</svg>