<?xml version="1.0" encoding="utf-8"?>
<svg version="1.1" xmlns:xlink="http://www.w3.org/1999/xlink" width="12px" height="14px" xmlns="http://www.w3.org/2000/svg">
  <defs>
    <pattern id="BGPattern" patternUnits="userSpaceOnUse" alignment="0 0" imageRepeat="None" />
    <mask fill="white" id="Clip116">
      <path d="M 11.920312500000001 10.121744791666666  C 11.9734375 10.580512152777777  12 11.06814236111111  12 11.584635416666668  C 12 12.246961805555557  11.8046875 12.815104166666668  11.4140625 13.2890625  C 11.0234375 13.763020833333332  10.553125000000001 14  10.003125 14  L 1.9968750000000002 14  C 1.446875 14  0.9765625000000001 13.763020833333332  0.5859375000000001 13.2890625  C 0.19531250000000006 12.815104166666668  0 12.246961805555557  0 11.584635416666668  C 0 11.06814236111111  0.026562500000000062 10.580512152777777  0.07968750000000008 10.121744791666666  C 0.13281250000000006 9.662977430555554  0.23125000000000007 9.201171875  0.3750000000000001 8.736328125  C 0.5187500000000002 8.271484375  0.7015625000000001 7.873480902777779  0.9234374999999999 7.542317708333334  C 1.1453125000000002 7.2111545138888875  1.4390625 6.940755208333333  1.8046875 6.731119791666667  C 2.1703124999999996 6.521484375  2.590625 6.416666666666667  3.0656250000000003 6.416666666666667  C 3.8843750000000004 7.194444444444444  4.862500000000001 7.583333333333334  6 7.583333333333334  C 7.137500000000002 7.583333333333334  8.115625000000001 7.194444444444444  8.934375 6.416666666666667  C 9.409375 6.416666666666667  9.829687499999999 6.521484375  10.1953125 6.731119791666667  C 10.560937500000001 6.940755208333333  10.8546875 7.2111545138888875  11.076562500000001 7.542317708333334  C 11.298437500000002 7.873480902777779  11.48125 8.271484375  11.625 8.736328125  C 11.76875 9.201171875  11.8671875 9.662977430555554  11.920312500000001 10.121744791666666  Z M 8.545312500000001 1.025390625  C 9.248437500000001 1.708984375  9.600000000000001 2.533854166666667  9.600000000000001 3.5  C 9.600000000000001 4.466145833333333  9.248437500000001 5.291015625  8.545312500000001 5.974609375  C 7.8421875000000005 6.658203125  6.9937499999999995 7  6 7  C 5.00625 7  4.1578125 6.658203125  3.4546875000000004 5.974609375  C 2.7515625000000004 5.291015625  2.4000000000000004 4.466145833333333  2.4000000000000004 3.5  C 2.4000000000000004 2.533854166666667  2.7515625000000004 1.708984375  3.4546875000000004 1.025390625  C 4.1578125 0.341796875  5.00625 0  6 0  C 6.9937499999999995 0  7.8421875000000005 0.341796875  8.545312500000001 1.025390625  Z " fill-rule="evenodd" />
    </mask>
  </defs>
  <g transform="matrix(1 0 0 1 -6 -10 )">
    <path d="M 11.920312500000001 10.121744791666666  C 11.9734375 10.580512152777777  12 11.06814236111111  12 11.584635416666668  C 12 12.246961805555557  11.8046875 12.815104166666668  11.4140625 13.2890625  C 11.0234375 13.763020833333332  10.553125000000001 14  10.003125 14  L 1.9968750000000002 14  C 1.446875 14  0.9765625000000001 13.763020833333332  0.5859375000000001 13.2890625  C 0.19531250000000006 12.815104166666668  0 12.246961805555557  0 11.584635416666668  C 0 11.06814236111111  0.026562500000000062 10.580512152777777  0.07968750000000008 10.121744791666666  C 0.13281250000000006 9.662977430555554  0.23125000000000007 9.201171875  0.3750000000000001 8.736328125  C 0.5187500000000002 8.271484375  0.7015625000000001 7.873480902777779  0.9234374999999999 7.542317708333334  C 1.1453125000000002 7.2111545138888875  1.4390625 6.940755208333333  1.8046875 6.731119791666667  C 2.1703124999999996 6.521484375  2.590625 6.416666666666667  3.0656250000000003 6.416666666666667  C 3.8843750000000004 7.194444444444444  4.862500000000001 7.583333333333334  6 7.583333333333334  C 7.137500000000002 7.583333333333334  8.115625000000001 7.194444444444444  8.934375 6.416666666666667  C 9.409375 6.416666666666667  9.829687499999999 6.521484375  10.1953125 6.731119791666667  C 10.560937500000001 6.940755208333333  10.8546875 7.2111545138888875  11.076562500000001 7.542317708333334  C 11.298437500000002 7.873480902777779  11.48125 8.271484375  11.625 8.736328125  C 11.76875 9.201171875  11.8671875 9.662977430555554  11.920312500000001 10.121744791666666  Z M 8.545312500000001 1.025390625  C 9.248437500000001 1.708984375  9.600000000000001 2.533854166666667  9.600000000000001 3.5  C 9.600000000000001 4.466145833333333  9.248437500000001 5.291015625  8.545312500000001 5.974609375  C 7.8421875000000005 6.658203125  6.9937499999999995 7  6 7  C 5.00625 7  4.1578125 6.658203125  3.4546875000000004 5.974609375  C 2.7515625000000004 5.291015625  2.4000000000000004 4.466145833333333  2.4000000000000004 3.5  C 2.4000000000000004 2.533854166666667  2.7515625000000004 1.708984375  3.4546875000000004 1.025390625  C 4.1578125 0.341796875  5.00625 0  6 0  C 6.9937499999999995 0  7.8421875000000005 0.341796875  8.545312500000001 1.025390625  Z " fill-rule="nonzero" fill="rgba(154, 154, 157, 1)" stroke="none" transform="matrix(1 0 0 1 6 10 )" class="fill" />
    <path d="M 11.920312500000001 10.121744791666666  C 11.9734375 10.580512152777777  12 11.06814236111111  12 11.584635416666668  C 12 12.246961805555557  11.8046875 12.815104166666668  11.4140625 13.2890625  C 11.0234375 13.763020833333332  10.553125000000001 14  10.003125 14  L 1.9968750000000002 14  C 1.446875 14  0.9765625000000001 13.763020833333332  0.5859375000000001 13.2890625  C 0.19531250000000006 12.815104166666668  0 12.246961805555557  0 11.584635416666668  C 0 11.06814236111111  0.026562500000000062 10.580512152777777  0.07968750000000008 10.121744791666666  C 0.13281250000000006 9.662977430555554  0.23125000000000007 9.201171875  0.3750000000000001 8.736328125  C 0.5187500000000002 8.271484375  0.7015625000000001 7.873480902777779  0.9234374999999999 7.542317708333334  C 1.1453125000000002 7.2111545138888875  1.4390625 6.940755208333333  1.8046875 6.731119791666667  C 2.1703124999999996 6.521484375  2.590625 6.416666666666667  3.0656250000000003 6.416666666666667  C 3.8843750000000004 7.194444444444444  4.862500000000001 7.583333333333334  6 7.583333333333334  C 7.137500000000002 7.583333333333334  8.115625000000001 7.194444444444444  8.934375 6.416666666666667  C 9.409375 6.416666666666667  9.829687499999999 6.521484375  10.1953125 6.731119791666667  C 10.560937500000001 6.940755208333333  10.8546875 7.2111545138888875  11.076562500000001 7.542317708333334  C 11.298437500000002 7.873480902777779  11.48125 8.271484375  11.625 8.736328125  C 11.76875 9.201171875  11.8671875 9.662977430555554  11.920312500000001 10.121744791666666  Z " stroke-width="0" stroke-dasharray="0" stroke="rgba(255, 255, 255, 0)" fill="none" transform="matrix(1 0 0 1 6 10 )" class="stroke" mask="url(#Clip116)" />
    <path d="M 8.545312500000001 1.025390625  C 9.248437500000001 1.708984375  9.600000000000001 2.533854166666667  9.600000000000001 3.5  C 9.600000000000001 4.466145833333333  9.248437500000001 5.291015625  8.545312500000001 5.974609375  C 7.8421875000000005 6.658203125  6.9937499999999995 7  6 7  C 5.00625 7  4.1578125 6.658203125  3.4546875000000004 5.974609375  C 2.7515625000000004 5.291015625  2.4000000000000004 4.466145833333333  2.4000000000000004 3.5  C 2.4000000000000004 2.533854166666667  2.7515625000000004 1.708984375  3.4546875000000004 1.025390625  C 4.1578125 0.341796875  5.00625 0  6 0  C 6.9937499999999995 0  7.8421875000000005 0.341796875  8.545312500000001 1.025390625  Z " stroke-width="0" stroke-dasharray="0" stroke="rgba(255, 255, 255, 0)" fill="none" transform="matrix(1 0 0 1 6 10 )" class="stroke" mask="url(#Clip116)" />
  </g>
</svg>