<?xml version="1.0" encoding="utf-8"?>
<svg version="1.1" xmlns:xlink="http://www.w3.org/1999/xlink" width="14px" height="12px" xmlns="http://www.w3.org/2000/svg">
  <defs>
    <pattern id="BGPattern" patternUnits="userSpaceOnUse" alignment="0 0" imageRepeat="None" />
    <mask fill="white" id="Clip1438">
      <path d="M 13 0.9986996098829652  L 13 3.9947984395318596  C 13.276041666666668 3.9947984395318596  13.51171875 4.092327698309493  13.70703125 4.2873862158647595  C 13.90234375 4.482444733420026  14 4.717815344603381  14 4.993498049414825  C 14 5.269180754226268  13.90234375 5.504551365409622  13.70703125 5.699609882964889  C 13.51171875 5.894668400520155  13.276041666666668 5.992197659297789  13 5.992197659297789  L 13 8.988296488946684  C 13 9.258777633289986  12.901041666666668 9.492847854356306  12.703125 9.690507152145642  C 12.505208333333334 9.88816644993498  12.270833333333334 9.986996098829648  12 9.986996098829648  C 9.828125 8.182054616384914  7.713541666666668 7.1937581274382305  5.65625 7.0221066319895975  C 5.354166666666667 7.120936280884265  5.1171875 7.2925877763328995  4.9453125 7.537061118335501  C 4.7734375 7.781534460338101  4.692708333333334 8.042912873862157  4.703125 8.321196358907672  C 4.713541666666667 8.599479843953185  4.817708333333334 8.84005201560468  5.015625 9.042912873862159  C 4.911458333333334 9.214564369310793  4.8515625 9.384915474642392  4.8359375 9.553966189856958  C 4.8203125 9.723016905071521  4.8359375 9.873862158647594  4.8828125 10.006501950585175  C 4.9296875 10.139141742522757  5.016927083333334 10.28218465539662  5.14453125 10.43563068920676  C 5.272135416666667 10.589076723016905  5.397135416666667 10.719115734720415  5.51953125 10.825747724317296  C 5.641927083333334 10.932379713914175  5.802083333333334 11.06371911573472  6 11.219765929778934  C 5.848958333333334 11.52145643693108  5.55859375 11.737321196358907  5.12890625 11.867360208062419  C 4.69921875 11.997399219765931  4.260416666666667 12.027308192457737  3.8124999999999996 11.957087126137841  C 3.364583333333334 11.886866059817946  3.020833333333334 11.742522756827048  2.78125 11.524057217165149  C 2.744791666666667 11.40442132639792  2.66796875 11.176853055916775  2.55078125 10.841352405721718  C 2.43359375 10.505851755526658  2.350260416666667 10.260078023407022  2.30078125 10.104031209362809  C 2.2513020833333335 9.947984395318596  2.19140625 9.716514954486346  2.12109375 9.40962288686606  C 2.05078125 9.102730819245773  2.01171875 8.84005201560468  2.00390625 8.621586475942784  C 1.9960937500000004 8.403120936280883  2.0052083333333335 8.146944083224966  2.03125 7.853055916775032  C 2.057291666666667 7.559167750325098  2.1145833333333335 7.271781534460337  2.203125 6.9908972691807545  L 1.25 6.9908972691807545  C 0.9062500000000001 6.9908972691807545  0.6119791666666667 6.868660598179453  0.3671875 6.624187256176853  C 0.12239583333333334 6.379713914174252  0 6.085825747724318  0 5.742522756827048  L 0 4.244473342002601  C 0 3.901170351105332  0.12239583333333334 3.6072821846553955  0.3671875 3.3628088426527953  C 0.6119791666666667 3.118335500650194  0.9062500000000001 2.9960988296488944  1.25 2.9960988296488944  L 5 2.9960988296488944  C 7.265625 2.9960988296488944  9.598958333333334 1.9973992197659292  12 0  C 12.270833333333334 0  12.505208333333334 0.09882964889466717  12.703125 0.2964889466840055  C 12.901041666666668 0.49414824447334116  13 0.7282184655396611  13 0.9986996098829652  Z M 6 6.0468140442132645  C 7.963541666666667 6.265279583875162  9.963541666666668 7.152145643693107  12 8.7074122236671  L 12 1.2639791937581273  C 9.947916666666668 2.8348504551365403  7.947916666666667 3.726918075422626  6 3.9401820546163853  L 6 6.0468140442132645  Z " fill-rule="evenodd" />
    </mask>
  </defs>
  <g transform="matrix(1 0 0 1 -5 -11 )">
    <path d="M 13 0.9986996098829652  L 13 3.9947984395318596  C 13.276041666666668 3.9947984395318596  13.51171875 4.092327698309493  13.70703125 4.2873862158647595  C 13.90234375 4.482444733420026  14 4.717815344603381  14 4.993498049414825  C 14 5.269180754226268  13.90234375 5.504551365409622  13.70703125 5.699609882964889  C 13.51171875 5.894668400520155  13.276041666666668 5.992197659297789  13 5.992197659297789  L 13 8.988296488946684  C 13 9.258777633289986  12.901041666666668 9.492847854356306  12.703125 9.690507152145642  C 12.505208333333334 9.88816644993498  12.270833333333334 9.986996098829648  12 9.986996098829648  C 9.828125 8.182054616384914  7.713541666666668 7.1937581274382305  5.65625 7.0221066319895975  C 5.354166666666667 7.120936280884265  5.1171875 7.2925877763328995  4.9453125 7.537061118335501  C 4.7734375 7.781534460338101  4.692708333333334 8.042912873862157  4.703125 8.321196358907672  C 4.713541666666667 8.599479843953185  4.817708333333334 8.84005201560468  5.015625 9.042912873862159  C 4.911458333333334 9.214564369310793  4.8515625 9.384915474642392  4.8359375 9.553966189856958  C 4.8203125 9.723016905071521  4.8359375 9.873862158647594  4.8828125 10.006501950585175  C 4.9296875 10.139141742522757  5.016927083333334 10.28218465539662  5.14453125 10.43563068920676  C 5.272135416666667 10.589076723016905  5.397135416666667 10.719115734720415  5.51953125 10.825747724317296  C 5.641927083333334 10.932379713914175  5.802083333333334 11.06371911573472  6 11.219765929778934  C 5.848958333333334 11.52145643693108  5.55859375 11.737321196358907  5.12890625 11.867360208062419  C 4.69921875 11.997399219765931  4.260416666666667 12.027308192457737  3.8124999999999996 11.957087126137841  C 3.364583333333334 11.886866059817946  3.020833333333334 11.742522756827048  2.78125 11.524057217165149  C 2.744791666666667 11.40442132639792  2.66796875 11.176853055916775  2.55078125 10.841352405721718  C 2.43359375 10.505851755526658  2.350260416666667 10.260078023407022  2.30078125 10.104031209362809  C 2.2513020833333335 9.947984395318596  2.19140625 9.716514954486346  2.12109375 9.40962288686606  C 2.05078125 9.102730819245773  2.01171875 8.84005201560468  2.00390625 8.621586475942784  C 1.9960937500000004 8.403120936280883  2.0052083333333335 8.146944083224966  2.03125 7.853055916775032  C 2.057291666666667 7.559167750325098  2.1145833333333335 7.271781534460337  2.203125 6.9908972691807545  L 1.25 6.9908972691807545  C 0.9062500000000001 6.9908972691807545  0.6119791666666667 6.868660598179453  0.3671875 6.624187256176853  C 0.12239583333333334 6.379713914174252  0 6.085825747724318  0 5.742522756827048  L 0 4.244473342002601  C 0 3.901170351105332  0.12239583333333334 3.6072821846553955  0.3671875 3.3628088426527953  C 0.6119791666666667 3.118335500650194  0.9062500000000001 2.9960988296488944  1.25 2.9960988296488944  L 5 2.9960988296488944  C 7.265625 2.9960988296488944  9.598958333333334 1.9973992197659292  12 0  C 12.270833333333334 0  12.505208333333334 0.09882964889466717  12.703125 0.2964889466840055  C 12.901041666666668 0.49414824447334116  13 0.7282184655396611  13 0.9986996098829652  Z M 6 6.0468140442132645  C 7.963541666666667 6.265279583875162  9.963541666666668 7.152145643693107  12 8.7074122236671  L 12 1.2639791937581273  C 9.947916666666668 2.8348504551365403  7.947916666666667 3.726918075422626  6 3.9401820546163853  L 6 6.0468140442132645  Z " fill-rule="nonzero" fill="rgba(154, 154, 157, 1)" stroke="none" transform="matrix(1 0 0 1 5 11 )" class="fill" />
    <path d="M 13 0.9986996098829652  L 13 3.9947984395318596  C 13.276041666666668 3.9947984395318596  13.51171875 4.092327698309493  13.70703125 4.2873862158647595  C 13.90234375 4.482444733420026  14 4.717815344603381  14 4.993498049414825  C 14 5.269180754226268  13.90234375 5.504551365409622  13.70703125 5.699609882964889  C 13.51171875 5.894668400520155  13.276041666666668 5.992197659297789  13 5.992197659297789  L 13 8.988296488946684  C 13 9.258777633289986  12.901041666666668 9.492847854356306  12.703125 9.690507152145642  C 12.505208333333334 9.88816644993498  12.270833333333334 9.986996098829648  12 9.986996098829648  C 9.828125 8.182054616384914  7.713541666666668 7.1937581274382305  5.65625 7.0221066319895975  C 5.354166666666667 7.120936280884265  5.1171875 7.2925877763328995  4.9453125 7.537061118335501  C 4.7734375 7.781534460338101  4.692708333333334 8.042912873862157  4.703125 8.321196358907672  C 4.713541666666667 8.599479843953185  4.817708333333334 8.84005201560468  5.015625 9.042912873862159  C 4.911458333333334 9.214564369310793  4.8515625 9.384915474642392  4.8359375 9.553966189856958  C 4.8203125 9.723016905071521  4.8359375 9.873862158647594  4.8828125 10.006501950585175  C 4.9296875 10.139141742522757  5.016927083333334 10.28218465539662  5.14453125 10.43563068920676  C 5.272135416666667 10.589076723016905  5.397135416666667 10.719115734720415  5.51953125 10.825747724317296  C 5.641927083333334 10.932379713914175  5.802083333333334 11.06371911573472  6 11.219765929778934  C 5.848958333333334 11.52145643693108  5.55859375 11.737321196358907  5.12890625 11.867360208062419  C 4.69921875 11.997399219765931  4.260416666666667 12.027308192457737  3.8124999999999996 11.957087126137841  C 3.364583333333334 11.886866059817946  3.020833333333334 11.742522756827048  2.78125 11.524057217165149  C 2.744791666666667 11.40442132639792  2.66796875 11.176853055916775  2.55078125 10.841352405721718  C 2.43359375 10.505851755526658  2.350260416666667 10.260078023407022  2.30078125 10.104031209362809  C 2.2513020833333335 9.947984395318596  2.19140625 9.716514954486346  2.12109375 9.40962288686606  C 2.05078125 9.102730819245773  2.01171875 8.84005201560468  2.00390625 8.621586475942784  C 1.9960937500000004 8.403120936280883  2.0052083333333335 8.146944083224966  2.03125 7.853055916775032  C 2.057291666666667 7.559167750325098  2.1145833333333335 7.271781534460337  2.203125 6.9908972691807545  L 1.25 6.9908972691807545  C 0.9062500000000001 6.9908972691807545  0.6119791666666667 6.868660598179453  0.3671875 6.624187256176853  C 0.12239583333333334 6.379713914174252  0 6.085825747724318  0 5.742522756827048  L 0 4.244473342002601  C 0 3.901170351105332  0.12239583333333334 3.6072821846553955  0.3671875 3.3628088426527953  C 0.6119791666666667 3.118335500650194  0.9062500000000001 2.9960988296488944  1.25 2.9960988296488944  L 5 2.9960988296488944  C 7.265625 2.9960988296488944  9.598958333333334 1.9973992197659292  12 0  C 12.270833333333334 0  12.505208333333334 0.09882964889466717  12.703125 0.2964889466840055  C 12.901041666666668 0.49414824447334116  13 0.7282184655396611  13 0.9986996098829652  Z " stroke-width="0" stroke-dasharray="0" stroke="rgba(255, 255, 255, 0)" fill="none" transform="matrix(1 0 0 1 5 11 )" class="stroke" mask="url(#Clip1438)" />
    <path d="M 6 6.0468140442132645  C 7.963541666666667 6.265279583875162  9.963541666666668 7.152145643693107  12 8.7074122236671  L 12 1.2639791937581273  C 9.947916666666668 2.8348504551365403  7.947916666666667 3.726918075422626  6 3.9401820546163853  L 6 6.0468140442132645  Z " stroke-width="0" stroke-dasharray="0" stroke="rgba(255, 255, 255, 0)" fill="none" transform="matrix(1 0 0 1 5 11 )" class="stroke" mask="url(#Clip1438)" />
  </g>
</svg>