<?xml version="1.0" encoding="utf-8"?>
<svg version="1.1" xmlns:xlink="http://www.w3.org/1999/xlink" width="10px" height="14px" xmlns="http://www.w3.org/2000/svg">
  <defs>
    <pattern id="BGPattern" patternUnits="userSpaceOnUse" alignment="0 0" imageRepeat="None" />
    <mask fill="white" id="Clip124">
      <path d="M 6.0905550146056475 13.905539772727273  C 6.028886725089258 13.968513257575756  5.955858487504058 14  5.871470301850049 14  L 4.196689386562804 14  C 4.112301200908796 14  4.039272963323597 13.970170454545455  3.977604673807206 13.910511363636363  C 3.915936384290815 13.850852272727273  3.8851022395326194 13.774621212121211  3.885102239532619 13.681818181818182  L 3.885102239532619 10.400568181818182  L 1.0808179162609541 10.400568181818182  C 0.9964297306069458 10.400568181818182  0.9234014930217462 10.370738636363637  0.8617332035053554 10.311079545454547  C 0.8000649139889647 10.251420454545453  0.7692307692307693 10.175189393939394  0.7692307692307693 10.082386363636363  L 0.7692307692307693 9.058238636363637  C 0.7692307692307693 8.972064393939394  0.8000649139889647 8.89749053030303  0.8617332035053554 8.834517045454547  C 0.9234014930217462 8.771543560606059  0.9964297306069458 8.740056818181818  1.0808179162609541 8.740056818181818  L 3.885102239532619 8.740056818181818  L 3.885102239532619 7.894886363636364  L 1.0808179162609541 7.894886363636364  C 0.9964297306069458 7.894886363636364  0.9234014930217462 7.865056818181818  0.8617332035053554 7.805397727272728  C 0.8000649139889647 7.745738636363636  0.7692307692307693 7.669507575757576  0.7692307692307693 7.576704545454547  L 0.7692307692307693 6.542613636363636  C 0.7692307692307693 6.456439393939393  0.8000649139889647 6.381865530303029  0.8617332035053554 6.318892045454545  C 0.9234014930217462 6.25591856060606  0.9964297306069458 6.224431818181818  1.0808179162609541 6.224431818181818  L 3.1645569620253164 6.224431818181818  L 0.03894839337877313 0.47727272727272685  C -0.01298279779292438 0.3712121212121209  -0.01298279779292438 0.26515151515151336  0.03894839337877313 0.15909090909090895  C 0.10386238234339501 0.05303030303030298  0.19474196689386564 0  0.31158714703018503 0  L 2.200584225900682 0  C 2.323920804933463 0  2.418046088932165 0.05965909090909105  2.4829600778967866 0.17897727272727315  L 4.576436222005842 4.404829545454545  C 4.699772801038625 4.6567234848484835  4.881531970139566 5.071022727272727  5.121713729308666 5.647727272727273  C 5.186627718273289 5.488636363636362  5.285621551444336 5.263257575757574  5.418695228821812 4.971590909090909  C 5.551768906199287 4.679924242424242  5.6410256410256405 4.477746212121212  5.686465433300877 4.365056818181818  L 7.546251217137293 0.18892045454545525  C 7.598182408308992 0.06297348484848353  7.692307692307693 0  7.828627069133399 0  L 9.688412852969815 0  C 9.798766634209672 0  9.886400519311913 0.05303030303030298  9.951314508276534 0.15909090909090895  C 10.009737098344694 0.2518939393939388  10.012982797792926 0.3546401515151507  9.961051606621227 0.46732954545454475  L 6.91333982473223 6.224431818181818  L 9.006815968841286 6.224431818181818  C 9.091204154495294 6.224431818181818  9.164232392080493 6.25591856060606  9.225900681596883 6.318892045454545  C 9.287568971113275 6.381865530303029  9.31840311587147 6.456439393939393  9.31840311587147 6.542613636363636  L 9.31840311587147 7.576704545454547  C 9.31840311587147 7.669507575757576  9.287568971113275 7.745738636363636  9.225900681596883 7.805397727272728  C 9.164232392080493 7.865056818181818  9.091204154495294 7.894886363636364  9.006815968841286 7.894886363636364  L 6.183057448880234 7.894886363636364  L 6.183057448880234 8.740056818181818  L 9.006815968841286 8.740056818181818  C 9.091204154495294 8.740056818181818  9.164232392080493 8.771543560606059  9.225900681596883 8.834517045454547  C 9.287568971113275 8.89749053030303  9.31840311587147 8.972064393939394  9.31840311587147 9.058238636363637  L 9.31840311587147 10.082386363636363  C 9.31840311587147 10.175189393939394  9.287568971113275 10.251420454545453  9.225900681596883 10.311079545454547  C 9.164232392080493 10.370738636363637  9.091204154495294 10.400568181818182  9.006815968841286 10.400568181818182  L 6.183057448880234 10.400568181818182  L 6.183057448880234 13.681818181818182  C 6.183057448880234 13.767992424242426  6.152223304122039 13.842566287878789  6.0905550146056475 13.905539772727273  Z " fill-rule="evenodd" />
    </mask>
  </defs>
  <g transform="matrix(1 0 0 1 -7 -10 )">
    <path d="M 6.0905550146056475 13.905539772727273  C 6.028886725089258 13.968513257575756  5.955858487504058 14  5.871470301850049 14  L 4.196689386562804 14  C 4.112301200908796 14  4.039272963323597 13.970170454545455  3.977604673807206 13.910511363636363  C 3.915936384290815 13.850852272727273  3.8851022395326194 13.774621212121211  3.885102239532619 13.681818181818182  L 3.885102239532619 10.400568181818182  L 1.0808179162609541 10.400568181818182  C 0.9964297306069458 10.400568181818182  0.9234014930217462 10.370738636363637  0.8617332035053554 10.311079545454547  C 0.8000649139889647 10.251420454545453  0.7692307692307693 10.175189393939394  0.7692307692307693 10.082386363636363  L 0.7692307692307693 9.058238636363637  C 0.7692307692307693 8.972064393939394  0.8000649139889647 8.89749053030303  0.8617332035053554 8.834517045454547  C 0.9234014930217462 8.771543560606059  0.9964297306069458 8.740056818181818  1.0808179162609541 8.740056818181818  L 3.885102239532619 8.740056818181818  L 3.885102239532619 7.894886363636364  L 1.0808179162609541 7.894886363636364  C 0.9964297306069458 7.894886363636364  0.9234014930217462 7.865056818181818  0.8617332035053554 7.805397727272728  C 0.8000649139889647 7.745738636363636  0.7692307692307693 7.669507575757576  0.7692307692307693 7.576704545454547  L 0.7692307692307693 6.542613636363636  C 0.7692307692307693 6.456439393939393  0.8000649139889647 6.381865530303029  0.8617332035053554 6.318892045454545  C 0.9234014930217462 6.25591856060606  0.9964297306069458 6.224431818181818  1.0808179162609541 6.224431818181818  L 3.1645569620253164 6.224431818181818  L 0.03894839337877313 0.47727272727272685  C -0.01298279779292438 0.3712121212121209  -0.01298279779292438 0.26515151515151336  0.03894839337877313 0.15909090909090895  C 0.10386238234339501 0.05303030303030298  0.19474196689386564 0  0.31158714703018503 0  L 2.200584225900682 0  C 2.323920804933463 0  2.418046088932165 0.05965909090909105  2.4829600778967866 0.17897727272727315  L 4.576436222005842 4.404829545454545  C 4.699772801038625 4.6567234848484835  4.881531970139566 5.071022727272727  5.121713729308666 5.647727272727273  C 5.186627718273289 5.488636363636362  5.285621551444336 5.263257575757574  5.418695228821812 4.971590909090909  C 5.551768906199287 4.679924242424242  5.6410256410256405 4.477746212121212  5.686465433300877 4.365056818181818  L 7.546251217137293 0.18892045454545525  C 7.598182408308992 0.06297348484848353  7.692307692307693 0  7.828627069133399 0  L 9.688412852969815 0  C 9.798766634209672 0  9.886400519311913 0.05303030303030298  9.951314508276534 0.15909090909090895  C 10.009737098344694 0.2518939393939388  10.012982797792926 0.3546401515151507  9.961051606621227 0.46732954545454475  L 6.91333982473223 6.224431818181818  L 9.006815968841286 6.224431818181818  C 9.091204154495294 6.224431818181818  9.164232392080493 6.25591856060606  9.225900681596883 6.318892045454545  C 9.287568971113275 6.381865530303029  9.31840311587147 6.456439393939393  9.31840311587147 6.542613636363636  L 9.31840311587147 7.576704545454547  C 9.31840311587147 7.669507575757576  9.287568971113275 7.745738636363636  9.225900681596883 7.805397727272728  C 9.164232392080493 7.865056818181818  9.091204154495294 7.894886363636364  9.006815968841286 7.894886363636364  L 6.183057448880234 7.894886363636364  L 6.183057448880234 8.740056818181818  L 9.006815968841286 8.740056818181818  C 9.091204154495294 8.740056818181818  9.164232392080493 8.771543560606059  9.225900681596883 8.834517045454547  C 9.287568971113275 8.89749053030303  9.31840311587147 8.972064393939394  9.31840311587147 9.058238636363637  L 9.31840311587147 10.082386363636363  C 9.31840311587147 10.175189393939394  9.287568971113275 10.251420454545453  9.225900681596883 10.311079545454547  C 9.164232392080493 10.370738636363637  9.091204154495294 10.400568181818182  9.006815968841286 10.400568181818182  L 6.183057448880234 10.400568181818182  L 6.183057448880234 13.681818181818182  C 6.183057448880234 13.767992424242426  6.152223304122039 13.842566287878789  6.0905550146056475 13.905539772727273  Z " fill-rule="nonzero" fill="rgba(154, 154, 157, 1)" stroke="none" transform="matrix(1 0 0 1 7 10 )" class="fill" />
    <path d="M 6.0905550146056475 13.905539772727273  C 6.028886725089258 13.968513257575756  5.955858487504058 14  5.871470301850049 14  L 4.196689386562804 14  C 4.112301200908796 14  4.039272963323597 13.970170454545455  3.977604673807206 13.910511363636363  C 3.915936384290815 13.850852272727273  3.8851022395326194 13.774621212121211  3.885102239532619 13.681818181818182  L 3.885102239532619 10.400568181818182  L 1.0808179162609541 10.400568181818182  C 0.9964297306069458 10.400568181818182  0.9234014930217462 10.370738636363637  0.8617332035053554 10.311079545454547  C 0.8000649139889647 10.251420454545453  0.7692307692307693 10.175189393939394  0.7692307692307693 10.082386363636363  L 0.7692307692307693 9.058238636363637  C 0.7692307692307693 8.972064393939394  0.8000649139889647 8.89749053030303  0.8617332035053554 8.834517045454547  C 0.9234014930217462 8.771543560606059  0.9964297306069458 8.740056818181818  1.0808179162609541 8.740056818181818  L 3.885102239532619 8.740056818181818  L 3.885102239532619 7.894886363636364  L 1.0808179162609541 7.894886363636364  C 0.9964297306069458 7.894886363636364  0.9234014930217462 7.865056818181818  0.8617332035053554 7.805397727272728  C 0.8000649139889647 7.745738636363636  0.7692307692307693 7.669507575757576  0.7692307692307693 7.576704545454547  L 0.7692307692307693 6.542613636363636  C 0.7692307692307693 6.456439393939393  0.8000649139889647 6.381865530303029  0.8617332035053554 6.318892045454545  C 0.9234014930217462 6.25591856060606  0.9964297306069458 6.224431818181818  1.0808179162609541 6.224431818181818  L 3.1645569620253164 6.224431818181818  L 0.03894839337877313 0.47727272727272685  C -0.01298279779292438 0.3712121212121209  -0.01298279779292438 0.26515151515151336  0.03894839337877313 0.15909090909090895  C 0.10386238234339501 0.05303030303030298  0.19474196689386564 0  0.31158714703018503 0  L 2.200584225900682 0  C 2.323920804933463 0  2.418046088932165 0.05965909090909105  2.4829600778967866 0.17897727272727315  L 4.576436222005842 4.404829545454545  C 4.699772801038625 4.6567234848484835  4.881531970139566 5.071022727272727  5.121713729308666 5.647727272727273  C 5.186627718273289 5.488636363636362  5.285621551444336 5.263257575757574  5.418695228821812 4.971590909090909  C 5.551768906199287 4.679924242424242  5.6410256410256405 4.477746212121212  5.686465433300877 4.365056818181818  L 7.546251217137293 0.18892045454545525  C 7.598182408308992 0.06297348484848353  7.692307692307693 0  7.828627069133399 0  L 9.688412852969815 0  C 9.798766634209672 0  9.886400519311913 0.05303030303030298  9.951314508276534 0.15909090909090895  C 10.009737098344694 0.2518939393939388  10.012982797792926 0.3546401515151507  9.961051606621227 0.46732954545454475  L 6.91333982473223 6.224431818181818  L 9.006815968841286 6.224431818181818  C 9.091204154495294 6.224431818181818  9.164232392080493 6.25591856060606  9.225900681596883 6.318892045454545  C 9.287568971113275 6.381865530303029  9.31840311587147 6.456439393939393  9.31840311587147 6.542613636363636  L 9.31840311587147 7.576704545454547  C 9.31840311587147 7.669507575757576  9.287568971113275 7.745738636363636  9.225900681596883 7.805397727272728  C 9.164232392080493 7.865056818181818  9.091204154495294 7.894886363636364  9.006815968841286 7.894886363636364  L 6.183057448880234 7.894886363636364  L 6.183057448880234 8.740056818181818  L 9.006815968841286 8.740056818181818  C 9.091204154495294 8.740056818181818  9.164232392080493 8.771543560606059  9.225900681596883 8.834517045454547  C 9.287568971113275 8.89749053030303  9.31840311587147 8.972064393939394  9.31840311587147 9.058238636363637  L 9.31840311587147 10.082386363636363  C 9.31840311587147 10.175189393939394  9.287568971113275 10.251420454545453  9.225900681596883 10.311079545454547  C 9.164232392080493 10.370738636363637  9.091204154495294 10.400568181818182  9.006815968841286 10.400568181818182  L 6.183057448880234 10.400568181818182  L 6.183057448880234 13.681818181818182  C 6.183057448880234 13.767992424242426  6.152223304122039 13.842566287878789  6.0905550146056475 13.905539772727273  Z " stroke-width="0" stroke-dasharray="0" stroke="rgba(255, 255, 255, 0)" fill="none" transform="matrix(1 0 0 1 7 10 )" class="stroke" mask="url(#Clip124)" />
  </g>
</svg>