<?xml version="1.0" encoding="utf-8"?>
<svg version="1.1" xmlns:xlink="http://www.w3.org/1999/xlink" width="14px" height="10px" xmlns="http://www.w3.org/2000/svg">
  <defs>
    <pattern id="BGPattern" patternUnits="userSpaceOnUse" alignment="0 0" imageRepeat="None" />
    <mask fill="white" id="Clip1444">
      <path d="M 7 5.454545454545454  L 7 2.727272727272727  L 4.375 2.727272727272727  L 4.375 5.454545454545454  L 7 5.454545454545454  Z M 3.5 7.272727272727273  L 7.875 7.272727272727273  L 7.875 8.181818181818182  L 3.5 8.181818181818182  L 3.5 7.272727272727273  Z M 3.5 1.8181818181818177  L 7.875 1.8181818181818177  L 7.875 6.363636363636363  L 3.5 6.363636363636363  L 3.5 1.8181818181818177  Z M 8.75 7.272727272727273  L 12.25 7.272727272727273  L 12.25 8.181818181818182  L 8.75 8.181818181818182  L 8.75 7.272727272727273  Z M 8.75 5.454545454545454  L 12.25 5.454545454545454  L 12.25 6.363636363636363  L 8.75 6.363636363636363  L 8.75 5.454545454545454  Z M 8.75 3.6363636363636367  L 12.25 3.6363636363636367  L 12.25 4.545454545454546  L 8.75 4.545454545454546  L 8.75 3.6363636363636367  Z M 8.75 1.8181818181818177  L 12.25 1.8181818181818177  L 12.25 2.727272727272727  L 8.75 2.727272727272727  L 8.75 1.8181818181818177  Z M 1.6201171875 8.95596590909091  C 1.7067057291666667 8.866003787878787  1.75 8.759469696969695  1.75 8.636363636363637  L 1.75 1.8181818181818177  L 0.875 1.8181818181818177  L 0.875 8.636363636363637  C 0.875 8.759469696969695  0.9182942708333334 8.866003787878787  1.0048828125 8.95596590909091  C 1.0914713541666667 9.045928030303031  1.1940104166666667 9.09090909090909  1.3125 9.09090909090909  C 1.4309895833333335 9.09090909090909  1.5335286458333335 9.045928030303031  1.6201171875 8.95596590909091  Z M 12.9951171875 8.95596590909091  C 13.081705729166668 8.866003787878787  13.125000000000002 8.759469696969695  13.125 8.636363636363637  L 13.125 1  L 2.625 1  L 2.625 8.636363636363637  C 2.625 8.792613636363637  2.599934895833333 8.944128787878787  2.5498046875 9  L 12.6875 9  C 12.805989583333334 9.09090909090909  12.908528645833334 9.045928030303031  12.9951171875 8.95596590909091  Z M 1.75 0  L 14 0  L 14 8.636363636363637  C 14 9.015151515151516  13.872395833333334 9.337121212121213  13.6171875 9.602272727272727  C 13.361979166666668 9.867424242424242  13.052083333333334 10  12.6875 10  L 1.3125 10  C 0.9479166666666667 10  0.6380208333333334 9.867424242424242  0.3828125 9.602272727272727  C 0.12760416666666666 9.337121212121213  0 9.015151515151516  0 8.636363636363637  L 0 0.9090909090909094  L 1.75 0.9090909090909094  L 1.75 0  Z " fill-rule="evenodd" />
    </mask>
  </defs>
  <g transform="matrix(1 0 0 1 -5 -14 )">
    <path d="M 7 5.454545454545454  L 7 2.727272727272727  L 4.375 2.727272727272727  L 4.375 5.454545454545454  L 7 5.454545454545454  Z M 3.5 7.272727272727273  L 7.875 7.272727272727273  L 7.875 8.181818181818182  L 3.5 8.181818181818182  L 3.5 7.272727272727273  Z M 3.5 1.8181818181818177  L 7.875 1.8181818181818177  L 7.875 6.363636363636363  L 3.5 6.363636363636363  L 3.5 1.8181818181818177  Z M 8.75 7.272727272727273  L 12.25 7.272727272727273  L 12.25 8.181818181818182  L 8.75 8.181818181818182  L 8.75 7.272727272727273  Z M 8.75 5.454545454545454  L 12.25 5.454545454545454  L 12.25 6.363636363636363  L 8.75 6.363636363636363  L 8.75 5.454545454545454  Z M 8.75 3.6363636363636367  L 12.25 3.6363636363636367  L 12.25 4.545454545454546  L 8.75 4.545454545454546  L 8.75 3.6363636363636367  Z M 8.75 1.8181818181818177  L 12.25 1.8181818181818177  L 12.25 2.727272727272727  L 8.75 2.727272727272727  L 8.75 1.8181818181818177  Z M 1.6201171875 8.95596590909091  C 1.7067057291666667 8.866003787878787  1.75 8.759469696969695  1.75 8.636363636363637  L 1.75 1.8181818181818177  L 0.875 1.8181818181818177  L 0.875 8.636363636363637  C 0.875 8.759469696969695  0.9182942708333334 8.866003787878787  1.0048828125 8.95596590909091  C 1.0914713541666667 9.045928030303031  1.1940104166666667 9.09090909090909  1.3125 9.09090909090909  C 1.4309895833333335 9.09090909090909  1.5335286458333335 9.045928030303031  1.6201171875 8.95596590909091  Z M 12.9951171875 8.95596590909091  C 13.081705729166668 8.866003787878787  13.125000000000002 8.759469696969695  13.125 8.636363636363637  L 13.125 1  L 2.625 1  L 2.625 8.636363636363637  C 2.625 8.792613636363637  2.599934895833333 8.944128787878787  2.5498046875 9  L 12.6875 9  C 12.805989583333334 9.09090909090909  12.908528645833334 9.045928030303031  12.9951171875 8.95596590909091  Z M 1.75 0  L 14 0  L 14 8.636363636363637  C 14 9.015151515151516  13.872395833333334 9.337121212121213  13.6171875 9.602272727272727  C 13.361979166666668 9.867424242424242  13.052083333333334 10  12.6875 10  L 1.3125 10  C 0.9479166666666667 10  0.6380208333333334 9.867424242424242  0.3828125 9.602272727272727  C 0.12760416666666666 9.337121212121213  0 9.015151515151516  0 8.636363636363637  L 0 0.9090909090909094  L 1.75 0.9090909090909094  L 1.75 0  Z " fill-rule="nonzero" fill="rgba(215, 215, 215, 1)" stroke="none" transform="matrix(1 0 0 1 5 14 )" class="fill" />
    <path d="M 7 5.454545454545454  L 7 2.727272727272727  L 4.375 2.727272727272727  L 4.375 5.454545454545454  L 7 5.454545454545454  Z " stroke-width="0" stroke-dasharray="0" stroke="rgba(255, 255, 255, 0)" fill="none" transform="matrix(1 0 0 1 5 14 )" class="stroke" mask="url(#Clip1444)" />
    <path d="M 3.5 7.272727272727273  L 7.875 7.272727272727273  L 7.875 8.181818181818182  L 3.5 8.181818181818182  L 3.5 7.272727272727273  Z " stroke-width="0" stroke-dasharray="0" stroke="rgba(255, 255, 255, 0)" fill="none" transform="matrix(1 0 0 1 5 14 )" class="stroke" mask="url(#Clip1444)" />
    <path d="M 3.5 1.8181818181818177  L 7.875 1.8181818181818177  L 7.875 6.363636363636363  L 3.5 6.363636363636363  L 3.5 1.8181818181818177  Z " stroke-width="0" stroke-dasharray="0" stroke="rgba(255, 255, 255, 0)" fill="none" transform="matrix(1 0 0 1 5 14 )" class="stroke" mask="url(#Clip1444)" />
    <path d="M 8.75 7.272727272727273  L 12.25 7.272727272727273  L 12.25 8.181818181818182  L 8.75 8.181818181818182  L 8.75 7.272727272727273  Z " stroke-width="0" stroke-dasharray="0" stroke="rgba(255, 255, 255, 0)" fill="none" transform="matrix(1 0 0 1 5 14 )" class="stroke" mask="url(#Clip1444)" />
    <path d="M 8.75 5.454545454545454  L 12.25 5.454545454545454  L 12.25 6.363636363636363  L 8.75 6.363636363636363  L 8.75 5.454545454545454  Z " stroke-width="0" stroke-dasharray="0" stroke="rgba(255, 255, 255, 0)" fill="none" transform="matrix(1 0 0 1 5 14 )" class="stroke" mask="url(#Clip1444)" />
    <path d="M 8.75 3.6363636363636367  L 12.25 3.6363636363636367  L 12.25 4.545454545454546  L 8.75 4.545454545454546  L 8.75 3.6363636363636367  Z " stroke-width="0" stroke-dasharray="0" stroke="rgba(255, 255, 255, 0)" fill="none" transform="matrix(1 0 0 1 5 14 )" class="stroke" mask="url(#Clip1444)" />
    <path d="M 8.75 1.8181818181818177  L 12.25 1.8181818181818177  L 12.25 2.727272727272727  L 8.75 2.727272727272727  L 8.75 1.8181818181818177  Z " stroke-width="0" stroke-dasharray="0" stroke="rgba(255, 255, 255, 0)" fill="none" transform="matrix(1 0 0 1 5 14 )" class="stroke" mask="url(#Clip1444)" />
    <path d="M 1.6201171875 8.95596590909091  C 1.7067057291666667 8.866003787878787  1.75 8.759469696969695  1.75 8.636363636363637  L 1.75 1.8181818181818177  L 0.875 1.8181818181818177  L 0.875 8.636363636363637  C 0.875 8.759469696969695  0.9182942708333334 8.866003787878787  1.0048828125 8.95596590909091  C 1.0914713541666667 9.045928030303031  1.1940104166666667 9.09090909090909  1.3125 9.09090909090909  C 1.4309895833333335 9.09090909090909  1.5335286458333335 9.045928030303031  1.6201171875 8.95596590909091  Z " stroke-width="0" stroke-dasharray="0" stroke="rgba(255, 255, 255, 0)" fill="none" transform="matrix(1 0 0 1 5 14 )" class="stroke" mask="url(#Clip1444)" />
    <path d="M 12.9951171875 8.95596590909091  C 13.081705729166668 8.866003787878787  13.125000000000002 8.759469696969695  13.125 8.636363636363637  L 13.125 1  L 2.625 1  L 2.625 8.636363636363637  C 2.625 8.792613636363637  2.599934895833333 8.944128787878787  2.5498046875 9  L 12.6875 9  C 12.805989583333334 9.09090909090909  12.908528645833334 9.045928030303031  12.9951171875 8.95596590909091  Z " stroke-width="0" stroke-dasharray="0" stroke="rgba(255, 255, 255, 0)" fill="none" transform="matrix(1 0 0 1 5 14 )" class="stroke" mask="url(#Clip1444)" />
    <path d="M 1.75 0  L 14 0  L 14 8.636363636363637  C 14 9.015151515151516  13.872395833333334 9.337121212121213  13.6171875 9.602272727272727  C 13.361979166666668 9.867424242424242  13.052083333333334 10  12.6875 10  L 1.3125 10  C 0.9479166666666667 10  0.6380208333333334 9.867424242424242  0.3828125 9.602272727272727  C 0.12760416666666666 9.337121212121213  0 9.015151515151516  0 8.636363636363637  L 0 0.9090909090909094  L 1.75 0.9090909090909094  L 1.75 0  Z " stroke-width="0" stroke-dasharray="0" stroke="rgba(255, 255, 255, 0)" fill="none" transform="matrix(1 0 0 1 5 14 )" class="stroke" mask="url(#Clip1444)" />
  </g>
</svg>