<?xml version="1.0" encoding="utf-8"?>
<svg version="1.1" xmlns:xlink="http://www.w3.org/1999/xlink" width="16px" height="14px" xmlns="http://www.w3.org/2000/svg">
  <defs>
    <pattern id="BGPattern" patternUnits="userSpaceOnUse" alignment="0 0" imageRepeat="None" />
    <mask fill="white" id="Clip7">
      <path d="M 5.379464285714286 5.008463541666667  C 5.602678571428571 5.236328125  5.714285714285714 5.511284722222221  5.714285714285714 5.833333333333333  C 5.714285714285714 6.155381944444444  5.602678571428571 6.430338541666667  5.379464285714286 6.658203125  C 5.15625 6.886067708333333  4.886904761904762 7  4.571428571428571 7  C 4.255952380952381 7  3.9866071428571432 6.886067708333333  3.763392857142857 6.658203125  C 3.5401785714285716 6.430338541666667  3.4285714285714284 6.155381944444444  3.4285714285714284 5.833333333333333  C 3.4285714285714284 5.511284722222221  3.5401785714285716 5.236328125  3.763392857142857 5.008463541666667  C 3.9866071428571432 4.780598958333333  4.255952380952381 4.666666666666667  4.571428571428571 4.666666666666667  C 4.886904761904762 4.666666666666667  5.15625 4.780598958333333  5.379464285714286 5.008463541666667  Z M 8.808035714285714 5.008463541666667  C 9.03125 5.236328125  9.142857142857142 5.511284722222221  9.142857142857142 5.833333333333333  C 9.142857142857142 6.155381944444444  9.03125 6.430338541666667  8.808035714285714 6.658203125  C 8.584821428571429 6.886067708333333  8.315476190476192 7  8 7  C 7.68452380952381 7  7.415178571428572 6.886067708333333  7.191964285714286 6.658203125  C 6.96875 6.430338541666667  6.857142857142857 6.155381944444444  6.857142857142857 5.833333333333333  C 6.857142857142857 5.511284722222221  6.96875 5.236328125  7.191964285714286 5.008463541666667  C 7.415178571428572 4.780598958333333  7.68452380952381 4.666666666666667  8 4.666666666666667  C 8.315476190476192 4.666666666666667  8.584821428571429 4.780598958333333  8.808035714285714 5.008463541666667  Z M 12.236607142857142 5.008463541666667  C 12.459821428571429 5.236328125  12.571428571428571 5.511284722222221  12.571428571428571 5.833333333333333  C 12.571428571428571 6.155381944444444  12.459821428571429 6.430338541666667  12.236607142857142 6.658203125  C 12.013392857142858 6.886067708333333  11.74404761904762 7  11.428571428571429 7  C 11.113095238095239 7  10.84375 6.886067708333333  10.620535714285714 6.658203125  C 10.397321428571429 6.430338541666667  10.285714285714286 6.155381944444444  10.285714285714286 5.833333333333333  C 10.285714285714286 5.511284722222221  10.397321428571429 5.236328125  10.620535714285714 5.008463541666667  C 10.84375 4.780598958333333  11.113095238095239 4.666666666666667  11.428571428571429 4.666666666666667  C 11.74404761904762 4.666666666666667  12.013392857142858 4.780598958333333  12.236607142857142 5.008463541666667  Z M 11.40625 1.8001302083333328  C 10.349702380952381 1.3778211805555547  9.214285714285714 1.1666666666666672  8 1.1666666666666672  C 6.785714285714286 1.1666666666666672  5.6502976190476195 1.3778211805555547  4.59375 1.8001302083333328  C 3.537202380952381 2.2224392361111107  2.697916666666667 2.7921006944444438  2.075892857142857 3.509114583333333  C 1.4538690476190477 4.2261284722222205  1.1428571428571428 5.0008680555555545  1.1428571428571428 5.833333333333333  C 1.1428571428571428 6.513888888888889  1.355654761904762 7.162543402777779  1.78125 7.779296875  C 2.206845238095238 8.396050347222221  2.8065476190476195 8.929253472222221  3.580357142857143 9.37890625  L 4.357142857142857 9.834635416666666  L 4.116071428571429 10.709635416666668  C 3.9732142857142856 11.262586805555557  3.7648809523809526 11.78515625  3.4910714285714284 12.27734375  C 4.395833333333334 11.89453125  5.214285714285714 11.375  5.946428571428571 10.71875  L 6.330357142857143 10.372395833333334  L 6.839285714285714 10.427083333333334  C 7.25 10.475694444444443  7.636904761904762 10.5  8 10.5  C 9.214285714285714 10.5  10.349702380952381 10.288845486111109  11.40625 9.866536458333334  C 12.46279761904762 9.444227430555554  13.302083333333334 8.874565972222221  13.924107142857142 8.157552083333334  C 14.546130952380953 7.440538194444444  14.857142857142858 6.665798611111111  14.857142857142858 5.833333333333333  C 14.857142857142858 5.0008680555555545  14.546130952380953 4.2261284722222205  13.924107142857142 3.509114583333333  C 13.302083333333334 2.7921006944444438  12.46279761904762 2.2224392361111107  11.40625 1.8001302083333328  Z M 15.366071428571429 3.568359375  C 15.788690476190478 4.288411458333333  16 5.043402777777777  16 5.833333333333333  C 16 6.890625  15.642857142857142 7.8674045138888875  14.928571428571429 8.763671875  C 14.214285714285714 9.659939236111109  13.24404761904762 10.367838541666666  12.017857142857142 10.887369791666668  C 10.791666666666668 11.406901041666668  9.452380952380953 11.666666666666668  8 11.666666666666668  C 7.583333333333334 11.666666666666668  7.151785714285714 11.64236111111111  6.705357142857143 11.59375  C 5.526785714285714 12.657118055555557  4.157738095238096 13.39236111111111  2.5982142857142856 13.799479166666668  C 2.3065476190476195 13.88454861111111  1.9672619047619049 13.95138888888889  1.5803571428571428 14  L 1.5357142857142858 14  C 1.4464285714285714 14  1.3660714285714286 13.968098958333332  1.2946428571428572 13.904296875  C 1.2232142857142858 13.840494791666668  1.1755952380952384 13.756944444444443  1.1517857142857142 13.653645833333332  L 1.1517857142857142 13.64453125  C 1.1339285714285716 13.620225694444445  1.1324404761904763 13.583767361111112  1.1473214285714286 13.53515625  C 1.1622023809523812 13.48654513888889  1.168154761904762 13.456163194444443  1.1651785714285714 13.444010416666668  C 1.1622023809523812 13.43185763888889  1.1755952380952384 13.402994791666668  1.2053571428571428 13.357421875  L 1.2589285714285714 13.275390625  C 1.2589285714285714 13.275390625  1.2797619047619049 13.249565972222223  1.3214285714285714 13.197916666666668  C 1.3630952380952384 13.14626736111111  1.386904761904762 13.11892361111111  1.3928571428571428 13.115885416666668  C 1.4345238095238098 13.067274305555557  1.5267857142857142 12.962456597222223  1.6696428571428572 12.801432291666668  C 1.8125 12.64040798611111  1.9151785714285714 12.524956597222223  1.9776785714285714 12.455078125  C 2.0401785714285716 12.385199652777777  2.1324404761904763 12.265190972222223  2.2544642857142856 12.095052083333332  C 2.3764880952380953 11.924913194444443  2.4732142857142856 11.769965277777777  2.544642857142857 11.630208333333332  C 2.6160714285714284 11.49045138888889  2.6964285714285716 11.311197916666668  2.7857142857142856 11.092447916666668  C 2.875 10.873697916666668  2.9523809523809526 10.64279513888889  3.017857142857143 10.399739583333334  C 2.0833333333333335 9.858940972222221  1.3467261904761905 9.190538194444443  0.8080357142857143 8.39453125  C 0.2693452380952381 7.598524305555554  0 6.744791666666667  0 5.833333333333333  C 0 5.043402777777777  0.21130952380952378 4.288411458333333  0.6339285714285714 3.568359375  C 1.056547619047619 2.848307291666667  1.625 2.226996527777777  2.3392857142857144 1.7044270833333328  C 3.0535714285714284 1.1818576388888875  3.904761904761905 0.7671440972222203  4.892857142857143 0.4602864583333328  C 5.880952380952381 0.15342881944444375  6.916666666666667 0  8 0  C 9.083333333333334 0  10.11904761904762 0.15342881944444375  11.107142857142858 0.4602864583333328  C 12.095238095238097 0.7671440972222203  12.946428571428571 1.1818576388888875  13.660714285714286 1.7044270833333328  C 14.375000000000002 2.226996527777777  14.943452380952383 2.848307291666667  15.366071428571429 3.568359375  Z " fill-rule="evenodd" />
    </mask>
  </defs>
  <g transform="matrix(1 0 0 1 -4 -10 )">
    <path d="M 5.379464285714286 5.008463541666667  C 5.602678571428571 5.236328125  5.714285714285714 5.511284722222221  5.714285714285714 5.833333333333333  C 5.714285714285714 6.155381944444444  5.602678571428571 6.430338541666667  5.379464285714286 6.658203125  C 5.15625 6.886067708333333  4.886904761904762 7  4.571428571428571 7  C 4.255952380952381 7  3.9866071428571432 6.886067708333333  3.763392857142857 6.658203125  C 3.5401785714285716 6.430338541666667  3.4285714285714284 6.155381944444444  3.4285714285714284 5.833333333333333  C 3.4285714285714284 5.511284722222221  3.5401785714285716 5.236328125  3.763392857142857 5.008463541666667  C 3.9866071428571432 4.780598958333333  4.255952380952381 4.666666666666667  4.571428571428571 4.666666666666667  C 4.886904761904762 4.666666666666667  5.15625 4.780598958333333  5.379464285714286 5.008463541666667  Z M 8.808035714285714 5.008463541666667  C 9.03125 5.236328125  9.142857142857142 5.511284722222221  9.142857142857142 5.833333333333333  C 9.142857142857142 6.155381944444444  9.03125 6.430338541666667  8.808035714285714 6.658203125  C 8.584821428571429 6.886067708333333  8.315476190476192 7  8 7  C 7.68452380952381 7  7.415178571428572 6.886067708333333  7.191964285714286 6.658203125  C 6.96875 6.430338541666667  6.857142857142857 6.155381944444444  6.857142857142857 5.833333333333333  C 6.857142857142857 5.511284722222221  6.96875 5.236328125  7.191964285714286 5.008463541666667  C 7.415178571428572 4.780598958333333  7.68452380952381 4.666666666666667  8 4.666666666666667  C 8.315476190476192 4.666666666666667  8.584821428571429 4.780598958333333  8.808035714285714 5.008463541666667  Z M 12.236607142857142 5.008463541666667  C 12.459821428571429 5.236328125  12.571428571428571 5.511284722222221  12.571428571428571 5.833333333333333  C 12.571428571428571 6.155381944444444  12.459821428571429 6.430338541666667  12.236607142857142 6.658203125  C 12.013392857142858 6.886067708333333  11.74404761904762 7  11.428571428571429 7  C 11.113095238095239 7  10.84375 6.886067708333333  10.620535714285714 6.658203125  C 10.397321428571429 6.430338541666667  10.285714285714286 6.155381944444444  10.285714285714286 5.833333333333333  C 10.285714285714286 5.511284722222221  10.397321428571429 5.236328125  10.620535714285714 5.008463541666667  C 10.84375 4.780598958333333  11.113095238095239 4.666666666666667  11.428571428571429 4.666666666666667  C 11.74404761904762 4.666666666666667  12.013392857142858 4.780598958333333  12.236607142857142 5.008463541666667  Z M 11.40625 1.8001302083333328  C 10.349702380952381 1.3778211805555547  9.214285714285714 1.1666666666666672  8 1.1666666666666672  C 6.785714285714286 1.1666666666666672  5.6502976190476195 1.3778211805555547  4.59375 1.8001302083333328  C 3.537202380952381 2.2224392361111107  2.697916666666667 2.7921006944444438  2.075892857142857 3.509114583333333  C 1.4538690476190477 4.2261284722222205  1.1428571428571428 5.0008680555555545  1.1428571428571428 5.833333333333333  C 1.1428571428571428 6.513888888888889  1.355654761904762 7.162543402777779  1.78125 7.779296875  C 2.206845238095238 8.396050347222221  2.8065476190476195 8.929253472222221  3.580357142857143 9.37890625  L 4.357142857142857 9.834635416666666  L 4.116071428571429 10.709635416666668  C 3.9732142857142856 11.262586805555557  3.7648809523809526 11.78515625  3.4910714285714284 12.27734375  C 4.395833333333334 11.89453125  5.214285714285714 11.375  5.946428571428571 10.71875  L 6.330357142857143 10.372395833333334  L 6.839285714285714 10.427083333333334  C 7.25 10.475694444444443  7.636904761904762 10.5  8 10.5  C 9.214285714285714 10.5  10.349702380952381 10.288845486111109  11.40625 9.866536458333334  C 12.46279761904762 9.444227430555554  13.302083333333334 8.874565972222221  13.924107142857142 8.157552083333334  C 14.546130952380953 7.440538194444444  14.857142857142858 6.665798611111111  14.857142857142858 5.833333333333333  C 14.857142857142858 5.0008680555555545  14.546130952380953 4.2261284722222205  13.924107142857142 3.509114583333333  C 13.302083333333334 2.7921006944444438  12.46279761904762 2.2224392361111107  11.40625 1.8001302083333328  Z M 15.366071428571429 3.568359375  C 15.788690476190478 4.288411458333333  16 5.043402777777777  16 5.833333333333333  C 16 6.890625  15.642857142857142 7.8674045138888875  14.928571428571429 8.763671875  C 14.214285714285714 9.659939236111109  13.24404761904762 10.367838541666666  12.017857142857142 10.887369791666668  C 10.791666666666668 11.406901041666668  9.452380952380953 11.666666666666668  8 11.666666666666668  C 7.583333333333334 11.666666666666668  7.151785714285714 11.64236111111111  6.705357142857143 11.59375  C 5.526785714285714 12.657118055555557  4.157738095238096 13.39236111111111  2.5982142857142856 13.799479166666668  C 2.3065476190476195 13.88454861111111  1.9672619047619049 13.95138888888889  1.5803571428571428 14  L 1.5357142857142858 14  C 1.4464285714285714 14  1.3660714285714286 13.968098958333332  1.2946428571428572 13.904296875  C 1.2232142857142858 13.840494791666668  1.1755952380952384 13.756944444444443  1.1517857142857142 13.653645833333332  L 1.1517857142857142 13.64453125  C 1.1339285714285716 13.620225694444445  1.1324404761904763 13.583767361111112  1.1473214285714286 13.53515625  C 1.1622023809523812 13.48654513888889  1.168154761904762 13.456163194444443  1.1651785714285714 13.444010416666668  C 1.1622023809523812 13.43185763888889  1.1755952380952384 13.402994791666668  1.2053571428571428 13.357421875  L 1.2589285714285714 13.275390625  C 1.2589285714285714 13.275390625  1.2797619047619049 13.249565972222223  1.3214285714285714 13.197916666666668  C 1.3630952380952384 13.14626736111111  1.386904761904762 13.11892361111111  1.3928571428571428 13.115885416666668  C 1.4345238095238098 13.067274305555557  1.5267857142857142 12.962456597222223  1.6696428571428572 12.801432291666668  C 1.8125 12.64040798611111  1.9151785714285714 12.524956597222223  1.9776785714285714 12.455078125  C 2.0401785714285716 12.385199652777777  2.1324404761904763 12.265190972222223  2.2544642857142856 12.095052083333332  C 2.3764880952380953 11.924913194444443  2.4732142857142856 11.769965277777777  2.544642857142857 11.630208333333332  C 2.6160714285714284 11.49045138888889  2.6964285714285716 11.311197916666668  2.7857142857142856 11.092447916666668  C 2.875 10.873697916666668  2.9523809523809526 10.64279513888889  3.017857142857143 10.399739583333334  C 2.0833333333333335 9.858940972222221  1.3467261904761905 9.190538194444443  0.8080357142857143 8.39453125  C 0.2693452380952381 7.598524305555554  0 6.744791666666667  0 5.833333333333333  C 0 5.043402777777777  0.21130952380952378 4.288411458333333  0.6339285714285714 3.568359375  C 1.056547619047619 2.848307291666667  1.625 2.226996527777777  2.3392857142857144 1.7044270833333328  C 3.0535714285714284 1.1818576388888875  3.904761904761905 0.7671440972222203  4.892857142857143 0.4602864583333328  C 5.880952380952381 0.15342881944444375  6.916666666666667 0  8 0  C 9.083333333333334 0  10.11904761904762 0.15342881944444375  11.107142857142858 0.4602864583333328  C 12.095238095238097 0.7671440972222203  12.946428571428571 1.1818576388888875  13.660714285714286 1.7044270833333328  C 14.375000000000002 2.226996527777777  14.943452380952383 2.848307291666667  15.366071428571429 3.568359375  Z " fill-rule="nonzero" fill="rgba(154, 154, 157, 1)" stroke="none" transform="matrix(1 0 0 1 4 10 )" class="fill" />
    <path d="M 5.379464285714286 5.008463541666667  C 5.602678571428571 5.236328125  5.714285714285714 5.511284722222221  5.714285714285714 5.833333333333333  C 5.714285714285714 6.155381944444444  5.602678571428571 6.430338541666667  5.379464285714286 6.658203125  C 5.15625 6.886067708333333  4.886904761904762 7  4.571428571428571 7  C 4.255952380952381 7  3.9866071428571432 6.886067708333333  3.763392857142857 6.658203125  C 3.5401785714285716 6.430338541666667  3.4285714285714284 6.155381944444444  3.4285714285714284 5.833333333333333  C 3.4285714285714284 5.511284722222221  3.5401785714285716 5.236328125  3.763392857142857 5.008463541666667  C 3.9866071428571432 4.780598958333333  4.255952380952381 4.666666666666667  4.571428571428571 4.666666666666667  C 4.886904761904762 4.666666666666667  5.15625 4.780598958333333  5.379464285714286 5.008463541666667  Z " stroke-width="0" stroke-dasharray="0" stroke="rgba(255, 255, 255, 0)" fill="none" transform="matrix(1 0 0 1 4 10 )" class="stroke" mask="url(#Clip7)" />
    <path d="M 8.808035714285714 5.008463541666667  C 9.03125 5.236328125  9.142857142857142 5.511284722222221  9.142857142857142 5.833333333333333  C 9.142857142857142 6.155381944444444  9.03125 6.430338541666667  8.808035714285714 6.658203125  C 8.584821428571429 6.886067708333333  8.315476190476192 7  8 7  C 7.68452380952381 7  7.415178571428572 6.886067708333333  7.191964285714286 6.658203125  C 6.96875 6.430338541666667  6.857142857142857 6.155381944444444  6.857142857142857 5.833333333333333  C 6.857142857142857 5.511284722222221  6.96875 5.236328125  7.191964285714286 5.008463541666667  C 7.415178571428572 4.780598958333333  7.68452380952381 4.666666666666667  8 4.666666666666667  C 8.315476190476192 4.666666666666667  8.584821428571429 4.780598958333333  8.808035714285714 5.008463541666667  Z " stroke-width="0" stroke-dasharray="0" stroke="rgba(255, 255, 255, 0)" fill="none" transform="matrix(1 0 0 1 4 10 )" class="stroke" mask="url(#Clip7)" />
    <path d="M 12.236607142857142 5.008463541666667  C 12.459821428571429 5.236328125  12.571428571428571 5.511284722222221  12.571428571428571 5.833333333333333  C 12.571428571428571 6.155381944444444  12.459821428571429 6.430338541666667  12.236607142857142 6.658203125  C 12.013392857142858 6.886067708333333  11.74404761904762 7  11.428571428571429 7  C 11.113095238095239 7  10.84375 6.886067708333333  10.620535714285714 6.658203125  C 10.397321428571429 6.430338541666667  10.285714285714286 6.155381944444444  10.285714285714286 5.833333333333333  C 10.285714285714286 5.511284722222221  10.397321428571429 5.236328125  10.620535714285714 5.008463541666667  C 10.84375 4.780598958333333  11.113095238095239 4.666666666666667  11.428571428571429 4.666666666666667  C 11.74404761904762 4.666666666666667  12.013392857142858 4.780598958333333  12.236607142857142 5.008463541666667  Z " stroke-width="0" stroke-dasharray="0" stroke="rgba(255, 255, 255, 0)" fill="none" transform="matrix(1 0 0 1 4 10 )" class="stroke" mask="url(#Clip7)" />
    <path d="M 11.40625 1.8001302083333328  C 10.349702380952381 1.3778211805555547  9.214285714285714 1.1666666666666672  8 1.1666666666666672  C 6.785714285714286 1.1666666666666672  5.6502976190476195 1.3778211805555547  4.59375 1.8001302083333328  C 3.537202380952381 2.2224392361111107  2.697916666666667 2.7921006944444438  2.075892857142857 3.509114583333333  C 1.4538690476190477 4.2261284722222205  1.1428571428571428 5.0008680555555545  1.1428571428571428 5.833333333333333  C 1.1428571428571428 6.513888888888889  1.355654761904762 7.162543402777779  1.78125 7.779296875  C 2.206845238095238 8.396050347222221  2.8065476190476195 8.929253472222221  3.580357142857143 9.37890625  L 4.357142857142857 9.834635416666666  L 4.116071428571429 10.709635416666668  C 3.9732142857142856 11.262586805555557  3.7648809523809526 11.78515625  3.4910714285714284 12.27734375  C 4.395833333333334 11.89453125  5.214285714285714 11.375  5.946428571428571 10.71875  L 6.330357142857143 10.372395833333334  L 6.839285714285714 10.427083333333334  C 7.25 10.475694444444443  7.636904761904762 10.5  8 10.5  C 9.214285714285714 10.5  10.349702380952381 10.288845486111109  11.40625 9.866536458333334  C 12.46279761904762 9.444227430555554  13.302083333333334 8.874565972222221  13.924107142857142 8.157552083333334  C 14.546130952380953 7.440538194444444  14.857142857142858 6.665798611111111  14.857142857142858 5.833333333333333  C 14.857142857142858 5.0008680555555545  14.546130952380953 4.2261284722222205  13.924107142857142 3.509114583333333  C 13.302083333333334 2.7921006944444438  12.46279761904762 2.2224392361111107  11.40625 1.8001302083333328  Z " stroke-width="0" stroke-dasharray="0" stroke="rgba(255, 255, 255, 0)" fill="none" transform="matrix(1 0 0 1 4 10 )" class="stroke" mask="url(#Clip7)" />
    <path d="M 15.366071428571429 3.568359375  C 15.788690476190478 4.288411458333333  16 5.043402777777777  16 5.833333333333333  C 16 6.890625  15.642857142857142 7.8674045138888875  14.928571428571429 8.763671875  C 14.214285714285714 9.659939236111109  13.24404761904762 10.367838541666666  12.017857142857142 10.887369791666668  C 10.791666666666668 11.406901041666668  9.452380952380953 11.666666666666668  8 11.666666666666668  C 7.583333333333334 11.666666666666668  7.151785714285714 11.64236111111111  6.705357142857143 11.59375  C 5.526785714285714 12.657118055555557  4.157738095238096 13.39236111111111  2.5982142857142856 13.799479166666668  C 2.3065476190476195 13.88454861111111  1.9672619047619049 13.95138888888889  1.5803571428571428 14  L 1.5357142857142858 14  C 1.4464285714285714 14  1.3660714285714286 13.968098958333332  1.2946428571428572 13.904296875  C 1.2232142857142858 13.840494791666668  1.1755952380952384 13.756944444444443  1.1517857142857142 13.653645833333332  L 1.1517857142857142 13.64453125  C 1.1339285714285716 13.620225694444445  1.1324404761904763 13.583767361111112  1.1473214285714286 13.53515625  C 1.1622023809523812 13.48654513888889  1.168154761904762 13.456163194444443  1.1651785714285714 13.444010416666668  C 1.1622023809523812 13.43185763888889  1.1755952380952384 13.402994791666668  1.2053571428571428 13.357421875  L 1.2589285714285714 13.275390625  C 1.2589285714285714 13.275390625  1.2797619047619049 13.249565972222223  1.3214285714285714 13.197916666666668  C 1.3630952380952384 13.14626736111111  1.386904761904762 13.11892361111111  1.3928571428571428 13.115885416666668  C 1.4345238095238098 13.067274305555557  1.5267857142857142 12.962456597222223  1.6696428571428572 12.801432291666668  C 1.8125 12.64040798611111  1.9151785714285714 12.524956597222223  1.9776785714285714 12.455078125  C 2.0401785714285716 12.385199652777777  2.1324404761904763 12.265190972222223  2.2544642857142856 12.095052083333332  C 2.3764880952380953 11.924913194444443  2.4732142857142856 11.769965277777777  2.544642857142857 11.630208333333332  C 2.6160714285714284 11.49045138888889  2.6964285714285716 11.311197916666668  2.7857142857142856 11.092447916666668  C 2.875 10.873697916666668  2.9523809523809526 10.64279513888889  3.017857142857143 10.399739583333334  C 2.0833333333333335 9.858940972222221  1.3467261904761905 9.190538194444443  0.8080357142857143 8.39453125  C 0.2693452380952381 7.598524305555554  0 6.744791666666667  0 5.833333333333333  C 0 5.043402777777777  0.21130952380952378 4.288411458333333  0.6339285714285714 3.568359375  C 1.056547619047619 2.848307291666667  1.625 2.226996527777777  2.3392857142857144 1.7044270833333328  C 3.0535714285714284 1.1818576388888875  3.904761904761905 0.7671440972222203  4.892857142857143 0.4602864583333328  C 5.880952380952381 0.15342881944444375  6.916666666666667 0  8 0  C 9.083333333333334 0  10.11904761904762 0.15342881944444375  11.107142857142858 0.4602864583333328  C 12.095238095238097 0.7671440972222203  12.946428571428571 1.1818576388888875  13.660714285714286 1.7044270833333328  C 14.375000000000002 2.226996527777777  14.943452380952383 2.848307291666667  15.366071428571429 3.568359375  Z " stroke-width="0" stroke-dasharray="0" stroke="rgba(255, 255, 255, 0)" fill="none" transform="matrix(1 0 0 1 4 10 )" class="stroke" mask="url(#Clip7)" />
  </g>
</svg>