<?xml version="1.0" encoding="utf-8"?>
<svg version="1.1" xmlns:xlink="http://www.w3.org/1999/xlink" width="15px" height="18px" xmlns="http://www.w3.org/2000/svg">
  <defs>
    <pattern id="BGPattern" patternUnits="userSpaceOnUse" alignment="0 0" imageRepeat="None" />
    <mask fill="white" id="Clip135">
      <path d="M 11.2890625 0.6830357142857149  L 14.3359375 3.816964285714285  C 14.518229166666668 4.004464285714285  14.674479166666668 4.258928571428572  14.8046875 4.580357142857142  C 14.934895833333334 4.901785714285715  15 5.196428571428571  15 5.464285714285715  L 15 17.035714285714285  C 15 17.30357142857143  14.908854166666666 17.53125  14.7265625 17.71875  C 14.544270833333336 17.90625  14.322916666666668 18  14.0625 18  L 0.9375 18  C 0.6770833333333335 18  0.45572916666666674 17.90625  0.2734375 17.71875  C 0.09114583333333331 17.53125  0 17.30357142857143  0 17.035714285714285  L 0 0.9642857142857149  C 0 0.696428571428571  0.09114583333333331 0.46874999999999933  0.2734375 0.28125  C 0.45572916666666674 0.09375000000000067  0.6770833333333335 0  0.9375 0  L 9.6875 0  C 9.947916666666668 0  10.234375 0.06696428571428648  10.546875 0.20089285714285743  C 10.859375 0.3348214285714284  11.106770833333334 0.4955357142857135  11.2890625 0.6830357142857149  Z M 10.400390625 1.5870535714285723  C 10.322265625 1.5066964285714277  10.188802083333336 1.4330357142857122  10 1.3660714285714277  L 10 5.142857142857142  L 13.671875 5.142857142857142  C 13.606770833333336 4.948660714285712  13.53515625 4.811383928571428  13.45703125 4.731026785714285  L 10.400390625 1.5870535714285723  Z M 1.25 16.714285714285715  L 13.75 16.714285714285715  L 13.75 6.428571428571428  L 9.6875 6.428571428571428  C 9.427083333333334 6.428571428571428  9.205729166666666 6.334821428571427  9.0234375 6.147321428571428  C 8.841145833333334 5.959821428571429  8.75 5.732142857142855  8.75 5.464285714285715  L 8.75 1.2857142857142851  L 1.25 1.2857142857142851  L 1.25 16.714285714285715  Z M 4.853515625 14.363839285714285  L 4.189453125 14.363839285714285  L 4.189453125 15.42857142857143  L 6.93359375 15.42857142857143  L 6.93359375 14.363839285714285  L 6.201171875 14.363839285714285  L 7.20703125 12.746651785714285  C 7.239583333333333 12.699776785714285  7.272135416666668 12.644531249999998  7.3046875 12.58091517857143  C 7.337239583333334 12.517299107142858  7.361653645833334 12.472098214285712  7.3779296875 12.4453125  C 7.394205729166668 12.418526785714285  7.405598958333334 12.40513392857143  7.412109375 12.40513392857143  L 7.431640625 12.40513392857143  C 7.438151041666668 12.431919642857142  7.454427083333334 12.465401785714285  7.48046875 12.505580357142858  C 7.493489583333332 12.53236607142857  7.508138020833333 12.557477678571427  7.524414062499999 12.58091517857143  C 7.540690104166668 12.604352678571429  7.560221354166668 12.631138392857142  7.583007812499999 12.66127232142857  C 7.605794270833334 12.69140625  7.626953125000001 12.719866071428571  7.646484375 12.746651785714285  L 8.69140625 14.363839285714285  L 7.949218749999999 14.363839285714285  L 7.949218749999999 15.42857142857143  L 10.791015625 15.42857142857143  L 10.791015625 14.363839285714285  L 10.126953125 14.363839285714285  L 8.251953125 11.621651785714285  L 10.15625 8.7890625  L 10.810546875 8.7890625  L 10.810546875 7.714285714285715  L 8.0859375 7.714285714285715  L 8.0859375 8.7890625  L 8.80859375 8.7890625  L 7.802734374999999 10.386160714285715  C 7.776692708333336 10.433035714285714  7.744140625000001 10.48828125  7.705078125 10.55189732142857  C 7.666015625000001 10.615513392857142  7.636718750000001 10.660714285714285  7.6171875 10.6875  L 7.597656249999999 10.71763392857143  L 7.578125000000001 10.71763392857143  C 7.571614583333334 10.690848214285714  7.555338541666668 10.65736607142857  7.529296875 10.6171875  C 7.490234375 10.543526785714286  7.434895833333334 10.466517857142858  7.36328125 10.386160714285715  L 6.328125 8.7890625  L 7.0703125 8.7890625  L 7.0703125 7.714285714285715  L 4.23828125 7.714285714285715  L 4.23828125 8.7890625  L 4.90234375 8.7890625  L 6.748046875 11.521205357142858  L 4.853515625 14.363839285714285  Z " fill-rule="evenodd" />
    </mask>
  </defs>
  <g transform="matrix(1 0 0 1 -11 -6 )">
    <path d="M 11.2890625 0.6830357142857149  L 14.3359375 3.816964285714285  C 14.518229166666668 4.004464285714285  14.674479166666668 4.258928571428572  14.8046875 4.580357142857142  C 14.934895833333334 4.901785714285715  15 5.196428571428571  15 5.464285714285715  L 15 17.035714285714285  C 15 17.30357142857143  14.908854166666666 17.53125  14.7265625 17.71875  C 14.544270833333336 17.90625  14.322916666666668 18  14.0625 18  L 0.9375 18  C 0.6770833333333335 18  0.45572916666666674 17.90625  0.2734375 17.71875  C 0.09114583333333331 17.53125  0 17.30357142857143  0 17.035714285714285  L 0 0.9642857142857149  C 0 0.696428571428571  0.09114583333333331 0.46874999999999933  0.2734375 0.28125  C 0.45572916666666674 0.09375000000000067  0.6770833333333335 0  0.9375 0  L 9.6875 0  C 9.947916666666668 0  10.234375 0.06696428571428648  10.546875 0.20089285714285743  C 10.859375 0.3348214285714284  11.106770833333334 0.4955357142857135  11.2890625 0.6830357142857149  Z M 10.400390625 1.5870535714285723  C 10.322265625 1.5066964285714277  10.188802083333336 1.4330357142857122  10 1.3660714285714277  L 10 5.142857142857142  L 13.671875 5.142857142857142  C 13.606770833333336 4.948660714285712  13.53515625 4.811383928571428  13.45703125 4.731026785714285  L 10.400390625 1.5870535714285723  Z M 1.25 16.714285714285715  L 13.75 16.714285714285715  L 13.75 6.428571428571428  L 9.6875 6.428571428571428  C 9.427083333333334 6.428571428571428  9.205729166666666 6.334821428571427  9.0234375 6.147321428571428  C 8.841145833333334 5.959821428571429  8.75 5.732142857142855  8.75 5.464285714285715  L 8.75 1.2857142857142851  L 1.25 1.2857142857142851  L 1.25 16.714285714285715  Z M 4.853515625 14.363839285714285  L 4.189453125 14.363839285714285  L 4.189453125 15.42857142857143  L 6.93359375 15.42857142857143  L 6.93359375 14.363839285714285  L 6.201171875 14.363839285714285  L 7.20703125 12.746651785714285  C 7.239583333333333 12.699776785714285  7.272135416666668 12.644531249999998  7.3046875 12.58091517857143  C 7.337239583333334 12.517299107142858  7.361653645833334 12.472098214285712  7.3779296875 12.4453125  C 7.394205729166668 12.418526785714285  7.405598958333334 12.40513392857143  7.412109375 12.40513392857143  L 7.431640625 12.40513392857143  C 7.438151041666668 12.431919642857142  7.454427083333334 12.465401785714285  7.48046875 12.505580357142858  C 7.493489583333332 12.53236607142857  7.508138020833333 12.557477678571427  7.524414062499999 12.58091517857143  C 7.540690104166668 12.604352678571429  7.560221354166668 12.631138392857142  7.583007812499999 12.66127232142857  C 7.605794270833334 12.69140625  7.626953125000001 12.719866071428571  7.646484375 12.746651785714285  L 8.69140625 14.363839285714285  L 7.949218749999999 14.363839285714285  L 7.949218749999999 15.42857142857143  L 10.791015625 15.42857142857143  L 10.791015625 14.363839285714285  L 10.126953125 14.363839285714285  L 8.251953125 11.621651785714285  L 10.15625 8.7890625  L 10.810546875 8.7890625  L 10.810546875 7.714285714285715  L 8.0859375 7.714285714285715  L 8.0859375 8.7890625  L 8.80859375 8.7890625  L 7.802734374999999 10.386160714285715  C 7.776692708333336 10.433035714285714  7.744140625000001 10.48828125  7.705078125 10.55189732142857  C 7.666015625000001 10.615513392857142  7.636718750000001 10.660714285714285  7.6171875 10.6875  L 7.597656249999999 10.71763392857143  L 7.578125000000001 10.71763392857143  C 7.571614583333334 10.690848214285714  7.555338541666668 10.65736607142857  7.529296875 10.6171875  C 7.490234375 10.543526785714286  7.434895833333334 10.466517857142858  7.36328125 10.386160714285715  L 6.328125 8.7890625  L 7.0703125 8.7890625  L 7.0703125 7.714285714285715  L 4.23828125 7.714285714285715  L 4.23828125 8.7890625  L 4.90234375 8.7890625  L 6.748046875 11.521205357142858  L 4.853515625 14.363839285714285  Z " fill-rule="nonzero" fill="rgba(255, 255, 255, 1)" stroke="none" transform="matrix(1 0 0 1 11 6 )" class="fill" />
    <path d="M 11.2890625 0.6830357142857149  L 14.3359375 3.816964285714285  C 14.518229166666668 4.004464285714285  14.674479166666668 4.258928571428572  14.8046875 4.580357142857142  C 14.934895833333334 4.901785714285715  15 5.196428571428571  15 5.464285714285715  L 15 17.035714285714285  C 15 17.30357142857143  14.908854166666666 17.53125  14.7265625 17.71875  C 14.544270833333336 17.90625  14.322916666666668 18  14.0625 18  L 0.9375 18  C 0.6770833333333335 18  0.45572916666666674 17.90625  0.2734375 17.71875  C 0.09114583333333331 17.53125  0 17.30357142857143  0 17.035714285714285  L 0 0.9642857142857149  C 0 0.696428571428571  0.09114583333333331 0.46874999999999933  0.2734375 0.28125  C 0.45572916666666674 0.09375000000000067  0.6770833333333335 0  0.9375 0  L 9.6875 0  C 9.947916666666668 0  10.234375 0.06696428571428648  10.546875 0.20089285714285743  C 10.859375 0.3348214285714284  11.106770833333334 0.4955357142857135  11.2890625 0.6830357142857149  Z " stroke-width="0" stroke-dasharray="0" stroke="rgba(255, 255, 255, 0)" fill="none" transform="matrix(1 0 0 1 11 6 )" class="stroke" mask="url(#Clip135)" />
    <path d="M 10.400390625 1.5870535714285723  C 10.322265625 1.5066964285714277  10.188802083333336 1.4330357142857122  10 1.3660714285714277  L 10 5.142857142857142  L 13.671875 5.142857142857142  C 13.606770833333336 4.948660714285712  13.53515625 4.811383928571428  13.45703125 4.731026785714285  L 10.400390625 1.5870535714285723  Z " stroke-width="0" stroke-dasharray="0" stroke="rgba(255, 255, 255, 0)" fill="none" transform="matrix(1 0 0 1 11 6 )" class="stroke" mask="url(#Clip135)" />
    <path d="M 1.25 16.714285714285715  L 13.75 16.714285714285715  L 13.75 6.428571428571428  L 9.6875 6.428571428571428  C 9.427083333333334 6.428571428571428  9.205729166666666 6.334821428571427  9.0234375 6.147321428571428  C 8.841145833333334 5.959821428571429  8.75 5.732142857142855  8.75 5.464285714285715  L 8.75 1.2857142857142851  L 1.25 1.2857142857142851  L 1.25 16.714285714285715  Z " stroke-width="0" stroke-dasharray="0" stroke="rgba(255, 255, 255, 0)" fill="none" transform="matrix(1 0 0 1 11 6 )" class="stroke" mask="url(#Clip135)" />
    <path d="M 4.853515625 14.363839285714285  L 4.189453125 14.363839285714285  L 4.189453125 15.42857142857143  L 6.93359375 15.42857142857143  L 6.93359375 14.363839285714285  L 6.201171875 14.363839285714285  L 7.20703125 12.746651785714285  C 7.239583333333333 12.699776785714285  7.272135416666668 12.644531249999998  7.3046875 12.58091517857143  C 7.337239583333334 12.517299107142858  7.361653645833334 12.472098214285712  7.3779296875 12.4453125  C 7.394205729166668 12.418526785714285  7.405598958333334 12.40513392857143  7.412109375 12.40513392857143  L 7.431640625 12.40513392857143  C 7.438151041666668 12.431919642857142  7.454427083333334 12.465401785714285  7.48046875 12.505580357142858  C 7.493489583333332 12.53236607142857  7.508138020833333 12.557477678571427  7.524414062499999 12.58091517857143  C 7.540690104166668 12.604352678571429  7.560221354166668 12.631138392857142  7.583007812499999 12.66127232142857  C 7.605794270833334 12.69140625  7.626953125000001 12.719866071428571  7.646484375 12.746651785714285  L 8.69140625 14.363839285714285  L 7.949218749999999 14.363839285714285  L 7.949218749999999 15.42857142857143  L 10.791015625 15.42857142857143  L 10.791015625 14.363839285714285  L 10.126953125 14.363839285714285  L 8.251953125 11.621651785714285  L 10.15625 8.7890625  L 10.810546875 8.7890625  L 10.810546875 7.714285714285715  L 8.0859375 7.714285714285715  L 8.0859375 8.7890625  L 8.80859375 8.7890625  L 7.802734374999999 10.386160714285715  C 7.776692708333336 10.433035714285714  7.744140625000001 10.48828125  7.705078125 10.55189732142857  C 7.666015625000001 10.615513392857142  7.636718750000001 10.660714285714285  7.6171875 10.6875  L 7.597656249999999 10.71763392857143  L 7.578125000000001 10.71763392857143  C 7.571614583333334 10.690848214285714  7.555338541666668 10.65736607142857  7.529296875 10.6171875  C 7.490234375 10.543526785714286  7.434895833333334 10.466517857142858  7.36328125 10.386160714285715  L 6.328125 8.7890625  L 7.0703125 8.7890625  L 7.0703125 7.714285714285715  L 4.23828125 7.714285714285715  L 4.23828125 8.7890625  L 4.90234375 8.7890625  L 6.748046875 11.521205357142858  L 4.853515625 14.363839285714285  Z " stroke-width="0" stroke-dasharray="0" stroke="rgba(255, 255, 255, 0)" fill="none" transform="matrix(1 0 0 1 11 6 )" class="stroke" mask="url(#Clip135)" />
  </g>
</svg>