<?xml version="1.0" encoding="utf-8"?>
<svg version="1.1" xmlns:xlink="http://www.w3.org/1999/xlink" width="10px" height="10px" xmlns="http://www.w3.org/2000/svg">
  <defs>
    <pattern id="BGPattern" patternUnits="userSpaceOnUse" alignment="0 0" imageRepeat="None" />
    <mask fill="white" id="Clip137">
      <path d="M 5.103761348897535 4.707792207792208  L 9.70817120622568 0.09740259740259716  C 9.790315607436233 0.015151515151514694  9.859489840034588 -0.012987012987013546  9.915693904020753 0.012987012987012436  C 9.971897968006918 0.03896103896103842  10 0.10822510822510734  10 0.2207792207792203  L 10 9.779220779220779  C 10 9.891774891774892  9.971897968006918 9.961038961038962  9.915693904020753 9.987012987012987  C 9.859489840034588 10.012987012987013  9.790315607436233 9.984848484848484  9.70817120622568 9.902597402597403  L 5.103761348897535 5.292207792207792  C 5.0648508430609605 5.253246753246753  5.036748811067878 5.212121212121213  5.019455252918288 5.168831168831169  L 5.019455252918288 9.779220779220779  C 5.019455252918288 9.891774891774892  4.991353220925206 9.961038961038962  4.93514915693904 9.987012987012987  C 4.878945092952876 10.012987012987013  4.809770860354519 9.984848484848484  4.727626459143969 9.902597402597403  L 0.1232166018158236 5.292207792207792  C 0.0410722006052746 5.209956709956709  0 5.112554112554112  0 5  C 0 4.887445887445887  0.0410722006052746 4.79004329004329  0.1232166018158236 4.707792207792208  L 4.727626459143969 0.09740259740259716  C 4.809770860354519 0.015151515151514694  4.878945092952876 -0.012987012987013546  4.93514915693904 0.012987012987012436  C 4.991353220925206 0.03896103896103842  5.019455252918288 0.10822510822510734  5.019455252918288 0.2207792207792203  L 5.019455252918288 4.8311688311688314  C 5.036748811067878 4.787878787878787  5.0648508430609605 4.746753246753247  5.103761348897535 4.707792207792208  Z " fill-rule="evenodd" />
    </mask>
  </defs>
  <g transform="matrix(1 0 0 1 -27 -637 )">
    <path d="M 5.103761348897535 4.707792207792208  L 9.70817120622568 0.09740259740259716  C 9.790315607436233 0.015151515151514694  9.859489840034588 -0.012987012987013546  9.915693904020753 0.012987012987012436  C 9.971897968006918 0.03896103896103842  10 0.10822510822510734  10 0.2207792207792203  L 10 9.779220779220779  C 10 9.891774891774892  9.971897968006918 9.961038961038962  9.915693904020753 9.987012987012987  C 9.859489840034588 10.012987012987013  9.790315607436233 9.984848484848484  9.70817120622568 9.902597402597403  L 5.103761348897535 5.292207792207792  C 5.0648508430609605 5.253246753246753  5.036748811067878 5.212121212121213  5.019455252918288 5.168831168831169  L 5.019455252918288 9.779220779220779  C 5.019455252918288 9.891774891774892  4.991353220925206 9.961038961038962  4.93514915693904 9.987012987012987  C 4.878945092952876 10.012987012987013  4.809770860354519 9.984848484848484  4.727626459143969 9.902597402597403  L 0.1232166018158236 5.292207792207792  C 0.0410722006052746 5.209956709956709  0 5.112554112554112  0 5  C 0 4.887445887445887  0.0410722006052746 4.79004329004329  0.1232166018158236 4.707792207792208  L 4.727626459143969 0.09740259740259716  C 4.809770860354519 0.015151515151514694  4.878945092952876 -0.012987012987013546  4.93514915693904 0.012987012987012436  C 4.991353220925206 0.03896103896103842  5.019455252918288 0.10822510822510734  5.019455252918288 0.2207792207792203  L 5.019455252918288 4.8311688311688314  C 5.036748811067878 4.787878787878787  5.0648508430609605 4.746753246753247  5.103761348897535 4.707792207792208  Z " fill-rule="nonzero" fill="rgba(170, 170, 170, 1)" stroke="none" transform="matrix(1 0 0 1 27 637 )" class="fill" />
    <path d="M 5.103761348897535 4.707792207792208  L 9.70817120622568 0.09740259740259716  C 9.790315607436233 0.015151515151514694  9.859489840034588 -0.012987012987013546  9.915693904020753 0.012987012987012436  C 9.971897968006918 0.03896103896103842  10 0.10822510822510734  10 0.2207792207792203  L 10 9.779220779220779  C 10 9.891774891774892  9.971897968006918 9.961038961038962  9.915693904020753 9.987012987012987  C 9.859489840034588 10.012987012987013  9.790315607436233 9.984848484848484  9.70817120622568 9.902597402597403  L 5.103761348897535 5.292207792207792  C 5.0648508430609605 5.253246753246753  5.036748811067878 5.212121212121213  5.019455252918288 5.168831168831169  L 5.019455252918288 9.779220779220779  C 5.019455252918288 9.891774891774892  4.991353220925206 9.961038961038962  4.93514915693904 9.987012987012987  C 4.878945092952876 10.012987012987013  4.809770860354519 9.984848484848484  4.727626459143969 9.902597402597403  L 0.1232166018158236 5.292207792207792  C 0.0410722006052746 5.209956709956709  0 5.112554112554112  0 5  C 0 4.887445887445887  0.0410722006052746 4.79004329004329  0.1232166018158236 4.707792207792208  L 4.727626459143969 0.09740259740259716  C 4.809770860354519 0.015151515151514694  4.878945092952876 -0.012987012987013546  4.93514915693904 0.012987012987012436  C 4.991353220925206 0.03896103896103842  5.019455252918288 0.10822510822510734  5.019455252918288 0.2207792207792203  L 5.019455252918288 4.8311688311688314  C 5.036748811067878 4.787878787878787  5.0648508430609605 4.746753246753247  5.103761348897535 4.707792207792208  Z " stroke-width="0" stroke-dasharray="0" stroke="rgba(255, 255, 255, 0)" fill="none" transform="matrix(1 0 0 1 27 637 )" class="stroke" mask="url(#Clip137)" />
  </g>
</svg>