<?xml version="1.0" encoding="utf-8"?>
<svg version="1.1" xmlns:xlink="http://www.w3.org/1999/xlink" width="10px" height="10px" xmlns="http://www.w3.org/2000/svg">
  <defs>
    <pattern id="BGPattern" patternUnits="userSpaceOnUse" alignment="0 0" imageRepeat="None" />
    <mask fill="white" id="Clip138">
      <path d="M 4.896238651102464 5.292207792207792  L 0.2918287937743191 9.902597402597403  C 0.20968439256377003 9.984848484848484  0.1405101599654129 10.012987012987013  0.08430609597924774 9.987012987012987  C 0.028102031993082584 9.961038961038962  0 9.891774891774892  0 9.779220779220779  L 0 0.2207792207792203  C 0 0.10822510822510734  0.028102031993082584 0.03896103896103842  0.08430609597924774 0.012987012987012436  C 0.1405101599654129 -0.012987012987013546  0.20968439256377003 0.015151515151514694  0.2918287937743191 0.09740259740259716  L 4.896238651102464 4.707792207792208  C 4.93514915693904 4.746753246753247  4.963251188932123 4.787878787878787  4.980544747081712 4.8311688311688314  L 4.980544747081712 0.2207792207792203  C 4.980544747081712 0.10822510822510734  5.008646779074795 0.03896103896103842  5.06485084306096 0.012987012987012436  C 5.121054907047125 -0.012987012987013546  5.190229139645482 0.015151515151514694  5.272373540856031 0.09740259740259716  L 9.876783398184177 4.707792207792208  C 9.958927799394727 4.79004329004329  10.000000000000002 4.887445887445887  10 5  C 10.000000000000002 5.112554112554112  9.958927799394727 5.209956709956709  9.876783398184177 5.292207792207792  L 5.272373540856031 9.902597402597403  C 5.190229139645482 9.984848484848484  5.121054907047125 10.012987012987013  5.06485084306096 9.987012987012987  C 5.008646779074795 9.961038961038962  4.980544747081712 9.891774891774892  4.980544747081712 9.779220779220779  L 4.980544747081712 5.168831168831169  C 4.963251188932123 5.212121212121213  4.93514915693904 5.253246753246753  4.896238651102464 5.292207792207792  Z " fill-rule="evenodd" />
    </mask>
  </defs>
  <g transform="matrix(1 0 0 1 -122 -637 )">
    <path d="M 4.896238651102464 5.292207792207792  L 0.2918287937743191 9.902597402597403  C 0.20968439256377003 9.984848484848484  0.1405101599654129 10.012987012987013  0.08430609597924774 9.987012987012987  C 0.028102031993082584 9.961038961038962  0 9.891774891774892  0 9.779220779220779  L 0 0.2207792207792203  C 0 0.10822510822510734  0.028102031993082584 0.03896103896103842  0.08430609597924774 0.012987012987012436  C 0.1405101599654129 -0.012987012987013546  0.20968439256377003 0.015151515151514694  0.2918287937743191 0.09740259740259716  L 4.896238651102464 4.707792207792208  C 4.93514915693904 4.746753246753247  4.963251188932123 4.787878787878787  4.980544747081712 4.8311688311688314  L 4.980544747081712 0.2207792207792203  C 4.980544747081712 0.10822510822510734  5.008646779074795 0.03896103896103842  5.06485084306096 0.012987012987012436  C 5.121054907047125 -0.012987012987013546  5.190229139645482 0.015151515151514694  5.272373540856031 0.09740259740259716  L 9.876783398184177 4.707792207792208  C 9.958927799394727 4.79004329004329  10.000000000000002 4.887445887445887  10 5  C 10.000000000000002 5.112554112554112  9.958927799394727 5.209956709956709  9.876783398184177 5.292207792207792  L 5.272373540856031 9.902597402597403  C 5.190229139645482 9.984848484848484  5.121054907047125 10.012987012987013  5.06485084306096 9.987012987012987  C 5.008646779074795 9.961038961038962  4.980544747081712 9.891774891774892  4.980544747081712 9.779220779220779  L 4.980544747081712 5.168831168831169  C 4.963251188932123 5.212121212121213  4.93514915693904 5.253246753246753  4.896238651102464 5.292207792207792  Z " fill-rule="nonzero" fill="rgba(170, 170, 170, 1)" stroke="none" transform="matrix(1 0 0 1 122 637 )" class="fill" />
    <path d="M 4.896238651102464 5.292207792207792  L 0.2918287937743191 9.902597402597403  C 0.20968439256377003 9.984848484848484  0.1405101599654129 10.012987012987013  0.08430609597924774 9.987012987012987  C 0.028102031993082584 9.961038961038962  0 9.891774891774892  0 9.779220779220779  L 0 0.2207792207792203  C 0 0.10822510822510734  0.028102031993082584 0.03896103896103842  0.08430609597924774 0.012987012987012436  C 0.1405101599654129 -0.012987012987013546  0.20968439256377003 0.015151515151514694  0.2918287937743191 0.09740259740259716  L 4.896238651102464 4.707792207792208  C 4.93514915693904 4.746753246753247  4.963251188932123 4.787878787878787  4.980544747081712 4.8311688311688314  L 4.980544747081712 0.2207792207792203  C 4.980544747081712 0.10822510822510734  5.008646779074795 0.03896103896103842  5.06485084306096 0.012987012987012436  C 5.121054907047125 -0.012987012987013546  5.190229139645482 0.015151515151514694  5.272373540856031 0.09740259740259716  L 9.876783398184177 4.707792207792208  C 9.958927799394727 4.79004329004329  10.000000000000002 4.887445887445887  10 5  C 10.000000000000002 5.112554112554112  9.958927799394727 5.209956709956709  9.876783398184177 5.292207792207792  L 5.272373540856031 9.902597402597403  C 5.190229139645482 9.984848484848484  5.121054907047125 10.012987012987013  5.06485084306096 9.987012987012987  C 5.008646779074795 9.961038961038962  4.980544747081712 9.891774891774892  4.980544747081712 9.779220779220779  L 4.980544747081712 5.168831168831169  C 4.963251188932123 5.212121212121213  4.93514915693904 5.253246753246753  4.896238651102464 5.292207792207792  Z " stroke-width="0" stroke-dasharray="0" stroke="rgba(255, 255, 255, 0)" fill="none" transform="matrix(1 0 0 1 122 637 )" class="stroke" mask="url(#Clip138)" />
  </g>
</svg>