<?xml version="1.0" encoding="utf-8"?>
<svg version="1.1" xmlns:xlink="http://www.w3.org/1999/xlink" width="50px" height="39px" xmlns="http://www.w3.org/2000/svg">
  <defs>
    <pattern id="BGPattern" patternUnits="userSpaceOnUse" alignment="0 0" imageRepeat="None" />
    <mask fill="white" id="Clip134">
      <path d="M 9.66796875 27.32492897727273  C 10.365513392857142 26.632457386363637  10.714285714285714 25.796874999999996  10.714285714285714 24.818181818181817  C 10.714285714285714 23.83948863636363  10.365513392857142 23.00390625  9.66796875 22.311434659090907  C 8.970424107142858 21.618963068181817  8.128720238095239 21.27272727272727  7.142857142857142 21.27272727272727  C 6.156994047619048 21.27272727272727  5.315290178571429 21.618963068181817  4.617745535714286 22.311434659090907  C 3.9202008928571432 23.00390625  3.571428571428571 23.83948863636363  3.571428571428571 24.818181818181817  C 3.571428571428571 25.796874999999996  3.9202008928571432 26.632457386363637  4.617745535714286 27.32492897727273  C 5.315290178571429 28.017400568181817  6.156994047619048 28.363636363636363  7.142857142857142 28.363636363636363  C 8.128720238095239 28.363636363636363  8.970424107142858 28.017400568181817  9.66796875 27.32492897727273  Z M 15.025111607142858 14.915838068181818  C 15.72265625 14.223366477272728  16.071428571428573 13.38778409090909  16.071428571428573 12.409090909090912  C 16.071428571428573 11.430397727272723  15.72265625 10.594815340909088  15.025111607142858 9.90234375  C 14.327566964285715 9.209872159090912  13.485863095238097 8.863636363636365  12.5 8.863636363636365  C 11.514136904761905 8.863636363636365  10.672433035714286 9.209872159090912  9.974888392857142 9.90234375  C 9.27734375 10.594815340909088  8.928571428571429 11.430397727272723  8.928571428571429 12.409090909090912  C 8.928571428571429 13.38778409090909  9.27734375 14.223366477272728  9.974888392857142 14.915838068181818  C 10.672433035714286 15.608309659090912  11.514136904761905 15.954545454545453  12.5 15.954545454545453  C 13.485863095238097 15.954545454545453  14.327566964285715 15.608309659090912  15.025111607142858 14.915838068181818  Z M 30.02232142857143 28.252840909090907  C 29.613095238095244 27.200284090909093  28.943452380952383 26.360085227272723  28.013392857142854 25.732244318181817  L 30.831473214285715 15.151278409090912  C 30.943080357142854 14.67116477272727  30.873325892857146 14.223366477272728  30.62220982142857 13.807883522727272  C 30.37109375 13.392400568181813  30.013020833333336 13.120028409090905  29.54799107142857 12.990767045454547  C 29.082961309523814 12.86150568181818  28.636532738095244 12.921519886363635  28.208705357142854 13.170809659090912  C 27.780877976190478 13.420099431818182  27.50186011904762 13.784801136363635  27.371651785714285 14.264914772727272  L 24.553571428571427 24.845880681818183  C 23.4375 24.938210227272727  22.44233630952381 25.339843749999996  21.568080357142858 26.05078125  C 20.693824404761905 26.761718749999993  20.107886904761905 27.67116477272727  19.810267857142858 28.779119318181817  C 19.43824404761905 30.200994318181817  19.624255952380953 31.549005681818183  20.368303571428573 32.82315340909091  C 21.112351190476193 34.09730113636363  22.200520833333336 34.91903409090909  23.6328125 35.28835227272727  C 25.065104166666668 35.65767045454545  26.422991071428577 35.47301136363637  27.706473214285715 34.734375  C 28.989955357142854 33.99573863636363  29.817708333333336 32.91548295454545  30.189732142857146 31.493607954545453  C 30.487351190476193 30.385653409090907  30.43154761904762 29.30539772727273  30.02232142857143 28.252840909090907  Z M 45.382254464285715 27.32492897727273  C 46.079799107142854 26.632457386363637  46.42857142857143 25.796874999999996  46.42857142857143 24.818181818181817  C 46.42857142857143 23.83948863636363  46.079799107142854 23.00390625  45.382254464285715 22.311434659090907  C 44.68470982142857 21.618963068181817  43.843005952380956 21.27272727272727  42.857142857142854 21.27272727272727  C 41.87127976190476 21.27272727272727  41.029575892857146 21.618963068181817  40.33203125 22.311434659090907  C 39.634486607142854 23.00390625  39.285714285714285 23.83948863636363  39.285714285714285 24.818181818181817  C 39.285714285714285 25.796874999999996  39.634486607142854 26.632457386363637  40.33203125 27.32492897727273  C 41.029575892857146 28.017400568181817  41.87127976190476 28.363636363636363  42.857142857142854 28.363636363636363  C 43.843005952380956 28.363636363636363  44.68470982142857 28.017400568181817  45.382254464285715 27.32492897727273  Z M 27.525111607142854 9.59765625  C 28.22265625 8.905184659090912  28.57142857142857 8.069602272727273  28.57142857142857 7.090909090909089  C 28.57142857142857 6.112215909090906  28.22265625 5.276633522727272  27.525111607142854 4.5841619318181825  C 26.827566964285715 3.891690340909089  25.9858630952381 3.5454545454545467  25 3.5454545454545467  C 24.014136904761905 3.5454545454545467  23.17243303571429 3.891690340909089  22.474888392857142 4.5841619318181825  C 21.77734375 5.276633522727272  21.428571428571427 6.112215909090906  21.428571428571427 7.090909090909089  C 21.428571428571427 8.069602272727273  21.77734375 8.905184659090912  22.474888392857142 9.59765625  C 23.17243303571429 10.290127840909088  24.014136904761905 10.636363636363635  25 10.636363636363635  C 25.9858630952381 10.636363636363635  26.827566964285715 10.290127840909088  27.525111607142854 9.59765625  Z M 40.025111607142854 14.915838068181818  C 40.72265625 14.223366477272728  41.07142857142857 13.38778409090909  41.07142857142857 12.409090909090912  C 41.07142857142857 11.430397727272723  40.72265625 10.594815340909088  40.025111607142854 9.90234375  C 39.327566964285715 9.209872159090912  38.4858630952381 8.863636363636365  37.5 8.863636363636365  C 36.514136904761905 8.863636363636365  35.672433035714285 9.209872159090912  34.974888392857146 9.90234375  C 34.27734375 10.594815340909088  33.92857142857143 11.430397727272723  33.92857142857143 12.409090909090912  C 33.92857142857143 13.38778409090909  34.27734375 14.223366477272728  34.974888392857146 14.915838068181818  C 35.672433035714285 15.608309659090912  36.514136904761905 15.954545454545453  37.5 15.954545454545453  C 38.4858630952381 15.954545454545453  39.327566964285715 15.608309659090912  40.025111607142854 14.915838068181818  Z M 48.018973214285715 15.178977272727272  C 49.33965773809524 18.24431818181818  50 21.457386363636363  50 24.818181818181817  C 50 29.637784090909093  48.68861607142857 34.09730113636363  46.065848214285715 38.19673295454545  C 45.7124255952381 38.73224431818181  45.210193452380956 39  44.559151785714285 39  L 5.440848214285714 39  C 4.789806547619048 39  4.287574404761905 38.73224431818181  3.9341517857142856 38.19673295454545  C 1.3113839285714286 34.11576704545455  0 29.656250000000004  0 24.818181818181817  C 0 21.457386363636363  0.6603422619047619 18.24431818181818  1.9810267857142856 15.178977272727272  C 3.3017113095238098 12.113636363636362  5.078125 9.473011363636365  7.310267857142858 7.257102272727272  C 9.542410714285714 5.0411931818181825  12.202380952380953 3.2776988636363615  15.290178571428573 1.966619318181818  C 18.377976190476193 0.6555397727272697  21.614583333333336 0  25 0  C 28.385416666666668 0  31.622023809523814 0.6555397727272697  34.70982142857143 1.966619318181818  C 37.79761904761905 3.2776988636363615  40.457589285714285 5.0411931818181825  42.689732142857146 7.257102272727272  C 44.92187500000001 9.473011363636365  46.6982886904762 12.113636363636362  48.018973214285715 15.178977272727272  Z " fill-rule="evenodd" />
    </mask>
  </defs>
  <g transform="matrix(1 0 0 1 -296 -419 )">
    <path d="M 9.66796875 27.32492897727273  C 10.365513392857142 26.632457386363637  10.714285714285714 25.796874999999996  10.714285714285714 24.818181818181817  C 10.714285714285714 23.83948863636363  10.365513392857142 23.00390625  9.66796875 22.311434659090907  C 8.970424107142858 21.618963068181817  8.128720238095239 21.27272727272727  7.142857142857142 21.27272727272727  C 6.156994047619048 21.27272727272727  5.315290178571429 21.618963068181817  4.617745535714286 22.311434659090907  C 3.9202008928571432 23.00390625  3.571428571428571 23.83948863636363  3.571428571428571 24.818181818181817  C 3.571428571428571 25.796874999999996  3.9202008928571432 26.632457386363637  4.617745535714286 27.32492897727273  C 5.315290178571429 28.017400568181817  6.156994047619048 28.363636363636363  7.142857142857142 28.363636363636363  C 8.128720238095239 28.363636363636363  8.970424107142858 28.017400568181817  9.66796875 27.32492897727273  Z M 15.025111607142858 14.915838068181818  C 15.72265625 14.223366477272728  16.071428571428573 13.38778409090909  16.071428571428573 12.409090909090912  C 16.071428571428573 11.430397727272723  15.72265625 10.594815340909088  15.025111607142858 9.90234375  C 14.327566964285715 9.209872159090912  13.485863095238097 8.863636363636365  12.5 8.863636363636365  C 11.514136904761905 8.863636363636365  10.672433035714286 9.209872159090912  9.974888392857142 9.90234375  C 9.27734375 10.594815340909088  8.928571428571429 11.430397727272723  8.928571428571429 12.409090909090912  C 8.928571428571429 13.38778409090909  9.27734375 14.223366477272728  9.974888392857142 14.915838068181818  C 10.672433035714286 15.608309659090912  11.514136904761905 15.954545454545453  12.5 15.954545454545453  C 13.485863095238097 15.954545454545453  14.327566964285715 15.608309659090912  15.025111607142858 14.915838068181818  Z M 30.02232142857143 28.252840909090907  C 29.613095238095244 27.200284090909093  28.943452380952383 26.360085227272723  28.013392857142854 25.732244318181817  L 30.831473214285715 15.151278409090912  C 30.943080357142854 14.67116477272727  30.873325892857146 14.223366477272728  30.62220982142857 13.807883522727272  C 30.37109375 13.392400568181813  30.013020833333336 13.120028409090905  29.54799107142857 12.990767045454547  C 29.082961309523814 12.86150568181818  28.636532738095244 12.921519886363635  28.208705357142854 13.170809659090912  C 27.780877976190478 13.420099431818182  27.50186011904762 13.784801136363635  27.371651785714285 14.264914772727272  L 24.553571428571427 24.845880681818183  C 23.4375 24.938210227272727  22.44233630952381 25.339843749999996  21.568080357142858 26.05078125  C 20.693824404761905 26.761718749999993  20.107886904761905 27.67116477272727  19.810267857142858 28.779119318181817  C 19.43824404761905 30.200994318181817  19.624255952380953 31.549005681818183  20.368303571428573 32.82315340909091  C 21.112351190476193 34.09730113636363  22.200520833333336 34.91903409090909  23.6328125 35.28835227272727  C 25.065104166666668 35.65767045454545  26.422991071428577 35.47301136363637  27.706473214285715 34.734375  C 28.989955357142854 33.99573863636363  29.817708333333336 32.91548295454545  30.189732142857146 31.493607954545453  C 30.487351190476193 30.385653409090907  30.43154761904762 29.30539772727273  30.02232142857143 28.252840909090907  Z M 45.382254464285715 27.32492897727273  C 46.079799107142854 26.632457386363637  46.42857142857143 25.796874999999996  46.42857142857143 24.818181818181817  C 46.42857142857143 23.83948863636363  46.079799107142854 23.00390625  45.382254464285715 22.311434659090907  C 44.68470982142857 21.618963068181817  43.843005952380956 21.27272727272727  42.857142857142854 21.27272727272727  C 41.87127976190476 21.27272727272727  41.029575892857146 21.618963068181817  40.33203125 22.311434659090907  C 39.634486607142854 23.00390625  39.285714285714285 23.83948863636363  39.285714285714285 24.818181818181817  C 39.285714285714285 25.796874999999996  39.634486607142854 26.632457386363637  40.33203125 27.32492897727273  C 41.029575892857146 28.017400568181817  41.87127976190476 28.363636363636363  42.857142857142854 28.363636363636363  C 43.843005952380956 28.363636363636363  44.68470982142857 28.017400568181817  45.382254464285715 27.32492897727273  Z M 27.525111607142854 9.59765625  C 28.22265625 8.905184659090912  28.57142857142857 8.069602272727273  28.57142857142857 7.090909090909089  C 28.57142857142857 6.112215909090906  28.22265625 5.276633522727272  27.525111607142854 4.5841619318181825  C 26.827566964285715 3.891690340909089  25.9858630952381 3.5454545454545467  25 3.5454545454545467  C 24.014136904761905 3.5454545454545467  23.17243303571429 3.891690340909089  22.474888392857142 4.5841619318181825  C 21.77734375 5.276633522727272  21.428571428571427 6.112215909090906  21.428571428571427 7.090909090909089  C 21.428571428571427 8.069602272727273  21.77734375 8.905184659090912  22.474888392857142 9.59765625  C 23.17243303571429 10.290127840909088  24.014136904761905 10.636363636363635  25 10.636363636363635  C 25.9858630952381 10.636363636363635  26.827566964285715 10.290127840909088  27.525111607142854 9.59765625  Z M 40.025111607142854 14.915838068181818  C 40.72265625 14.223366477272728  41.07142857142857 13.38778409090909  41.07142857142857 12.409090909090912  C 41.07142857142857 11.430397727272723  40.72265625 10.594815340909088  40.025111607142854 9.90234375  C 39.327566964285715 9.209872159090912  38.4858630952381 8.863636363636365  37.5 8.863636363636365  C 36.514136904761905 8.863636363636365  35.672433035714285 9.209872159090912  34.974888392857146 9.90234375  C 34.27734375 10.594815340909088  33.92857142857143 11.430397727272723  33.92857142857143 12.409090909090912  C 33.92857142857143 13.38778409090909  34.27734375 14.223366477272728  34.974888392857146 14.915838068181818  C 35.672433035714285 15.608309659090912  36.514136904761905 15.954545454545453  37.5 15.954545454545453  C 38.4858630952381 15.954545454545453  39.327566964285715 15.608309659090912  40.025111607142854 14.915838068181818  Z M 48.018973214285715 15.178977272727272  C 49.33965773809524 18.24431818181818  50 21.457386363636363  50 24.818181818181817  C 50 29.637784090909093  48.68861607142857 34.09730113636363  46.065848214285715 38.19673295454545  C 45.7124255952381 38.73224431818181  45.210193452380956 39  44.559151785714285 39  L 5.440848214285714 39  C 4.789806547619048 39  4.287574404761905 38.73224431818181  3.9341517857142856 38.19673295454545  C 1.3113839285714286 34.11576704545455  0 29.656250000000004  0 24.818181818181817  C 0 21.457386363636363  0.6603422619047619 18.24431818181818  1.9810267857142856 15.178977272727272  C 3.3017113095238098 12.113636363636362  5.078125 9.473011363636365  7.310267857142858 7.257102272727272  C 9.542410714285714 5.0411931818181825  12.202380952380953 3.2776988636363615  15.290178571428573 1.966619318181818  C 18.377976190476193 0.6555397727272697  21.614583333333336 0  25 0  C 28.385416666666668 0  31.622023809523814 0.6555397727272697  34.70982142857143 1.966619318181818  C 37.79761904761905 3.2776988636363615  40.457589285714285 5.0411931818181825  42.689732142857146 7.257102272727272  C 44.92187500000001 9.473011363636365  46.6982886904762 12.113636363636362  48.018973214285715 15.178977272727272  Z " fill-rule="nonzero" fill="rgba(0, 0, 0, 1)" stroke="none" transform="matrix(1 0 0 1 296 419 )" class="fill" />
    <path d="M 9.66796875 27.32492897727273  C 10.365513392857142 26.632457386363637  10.714285714285714 25.796874999999996  10.714285714285714 24.818181818181817  C 10.714285714285714 23.83948863636363  10.365513392857142 23.00390625  9.66796875 22.311434659090907  C 8.970424107142858 21.618963068181817  8.128720238095239 21.27272727272727  7.142857142857142 21.27272727272727  C 6.156994047619048 21.27272727272727  5.315290178571429 21.618963068181817  4.617745535714286 22.311434659090907  C 3.9202008928571432 23.00390625  3.571428571428571 23.83948863636363  3.571428571428571 24.818181818181817  C 3.571428571428571 25.796874999999996  3.9202008928571432 26.632457386363637  4.617745535714286 27.32492897727273  C 5.315290178571429 28.017400568181817  6.156994047619048 28.363636363636363  7.142857142857142 28.363636363636363  C 8.128720238095239 28.363636363636363  8.970424107142858 28.017400568181817  9.66796875 27.32492897727273  Z " stroke-width="0" stroke-dasharray="0" stroke="rgba(255, 255, 255, 0)" fill="none" transform="matrix(1 0 0 1 296 419 )" class="stroke" mask="url(#Clip134)" />
    <path d="M 15.025111607142858 14.915838068181818  C 15.72265625 14.223366477272728  16.071428571428573 13.38778409090909  16.071428571428573 12.409090909090912  C 16.071428571428573 11.430397727272723  15.72265625 10.594815340909088  15.025111607142858 9.90234375  C 14.327566964285715 9.209872159090912  13.485863095238097 8.863636363636365  12.5 8.863636363636365  C 11.514136904761905 8.863636363636365  10.672433035714286 9.209872159090912  9.974888392857142 9.90234375  C 9.27734375 10.594815340909088  8.928571428571429 11.430397727272723  8.928571428571429 12.409090909090912  C 8.928571428571429 13.38778409090909  9.27734375 14.223366477272728  9.974888392857142 14.915838068181818  C 10.672433035714286 15.608309659090912  11.514136904761905 15.954545454545453  12.5 15.954545454545453  C 13.485863095238097 15.954545454545453  14.327566964285715 15.608309659090912  15.025111607142858 14.915838068181818  Z " stroke-width="0" stroke-dasharray="0" stroke="rgba(255, 255, 255, 0)" fill="none" transform="matrix(1 0 0 1 296 419 )" class="stroke" mask="url(#Clip134)" />
    <path d="M 30.02232142857143 28.252840909090907  C 29.613095238095244 27.200284090909093  28.943452380952383 26.360085227272723  28.013392857142854 25.732244318181817  L 30.831473214285715 15.151278409090912  C 30.943080357142854 14.67116477272727  30.873325892857146 14.223366477272728  30.62220982142857 13.807883522727272  C 30.37109375 13.392400568181813  30.013020833333336 13.120028409090905  29.54799107142857 12.990767045454547  C 29.082961309523814 12.86150568181818  28.636532738095244 12.921519886363635  28.208705357142854 13.170809659090912  C 27.780877976190478 13.420099431818182  27.50186011904762 13.784801136363635  27.371651785714285 14.264914772727272  L 24.553571428571427 24.845880681818183  C 23.4375 24.938210227272727  22.44233630952381 25.339843749999996  21.568080357142858 26.05078125  C 20.693824404761905 26.761718749999993  20.107886904761905 27.67116477272727  19.810267857142858 28.779119318181817  C 19.43824404761905 30.200994318181817  19.624255952380953 31.549005681818183  20.368303571428573 32.82315340909091  C 21.112351190476193 34.09730113636363  22.200520833333336 34.91903409090909  23.6328125 35.28835227272727  C 25.065104166666668 35.65767045454545  26.422991071428577 35.47301136363637  27.706473214285715 34.734375  C 28.989955357142854 33.99573863636363  29.817708333333336 32.91548295454545  30.189732142857146 31.493607954545453  C 30.487351190476193 30.385653409090907  30.43154761904762 29.30539772727273  30.02232142857143 28.252840909090907  Z " stroke-width="0" stroke-dasharray="0" stroke="rgba(255, 255, 255, 0)" fill="none" transform="matrix(1 0 0 1 296 419 )" class="stroke" mask="url(#Clip134)" />
    <path d="M 45.382254464285715 27.32492897727273  C 46.079799107142854 26.632457386363637  46.42857142857143 25.796874999999996  46.42857142857143 24.818181818181817  C 46.42857142857143 23.83948863636363  46.079799107142854 23.00390625  45.382254464285715 22.311434659090907  C 44.68470982142857 21.618963068181817  43.843005952380956 21.27272727272727  42.857142857142854 21.27272727272727  C 41.87127976190476 21.27272727272727  41.029575892857146 21.618963068181817  40.33203125 22.311434659090907  C 39.634486607142854 23.00390625  39.285714285714285 23.83948863636363  39.285714285714285 24.818181818181817  C 39.285714285714285 25.796874999999996  39.634486607142854 26.632457386363637  40.33203125 27.32492897727273  C 41.029575892857146 28.017400568181817  41.87127976190476 28.363636363636363  42.857142857142854 28.363636363636363  C 43.843005952380956 28.363636363636363  44.68470982142857 28.017400568181817  45.382254464285715 27.32492897727273  Z " stroke-width="0" stroke-dasharray="0" stroke="rgba(255, 255, 255, 0)" fill="none" transform="matrix(1 0 0 1 296 419 )" class="stroke" mask="url(#Clip134)" />
    <path d="M 27.525111607142854 9.59765625  C 28.22265625 8.905184659090912  28.57142857142857 8.069602272727273  28.57142857142857 7.090909090909089  C 28.57142857142857 6.112215909090906  28.22265625 5.276633522727272  27.525111607142854 4.5841619318181825  C 26.827566964285715 3.891690340909089  25.9858630952381 3.5454545454545467  25 3.5454545454545467  C 24.014136904761905 3.5454545454545467  23.17243303571429 3.891690340909089  22.474888392857142 4.5841619318181825  C 21.77734375 5.276633522727272  21.428571428571427 6.112215909090906  21.428571428571427 7.090909090909089  C 21.428571428571427 8.069602272727273  21.77734375 8.905184659090912  22.474888392857142 9.59765625  C 23.17243303571429 10.290127840909088  24.014136904761905 10.636363636363635  25 10.636363636363635  C 25.9858630952381 10.636363636363635  26.827566964285715 10.290127840909088  27.525111607142854 9.59765625  Z " stroke-width="0" stroke-dasharray="0" stroke="rgba(255, 255, 255, 0)" fill="none" transform="matrix(1 0 0 1 296 419 )" class="stroke" mask="url(#Clip134)" />
    <path d="M 40.025111607142854 14.915838068181818  C 40.72265625 14.223366477272728  41.07142857142857 13.38778409090909  41.07142857142857 12.409090909090912  C 41.07142857142857 11.430397727272723  40.72265625 10.594815340909088  40.025111607142854 9.90234375  C 39.327566964285715 9.209872159090912  38.4858630952381 8.863636363636365  37.5 8.863636363636365  C 36.514136904761905 8.863636363636365  35.672433035714285 9.209872159090912  34.974888392857146 9.90234375  C 34.27734375 10.594815340909088  33.92857142857143 11.430397727272723  33.92857142857143 12.409090909090912  C 33.92857142857143 13.38778409090909  34.27734375 14.223366477272728  34.974888392857146 14.915838068181818  C 35.672433035714285 15.608309659090912  36.514136904761905 15.954545454545453  37.5 15.954545454545453  C 38.4858630952381 15.954545454545453  39.327566964285715 15.608309659090912  40.025111607142854 14.915838068181818  Z " stroke-width="0" stroke-dasharray="0" stroke="rgba(255, 255, 255, 0)" fill="none" transform="matrix(1 0 0 1 296 419 )" class="stroke" mask="url(#Clip134)" />
    <path d="M 48.018973214285715 15.178977272727272  C 49.33965773809524 18.24431818181818  50 21.457386363636363  50 24.818181818181817  C 50 29.637784090909093  48.68861607142857 34.09730113636363  46.065848214285715 38.19673295454545  C 45.7124255952381 38.73224431818181  45.210193452380956 39  44.559151785714285 39  L 5.440848214285714 39  C 4.789806547619048 39  4.287574404761905 38.73224431818181  3.9341517857142856 38.19673295454545  C 1.3113839285714286 34.11576704545455  0 29.656250000000004  0 24.818181818181817  C 0 21.457386363636363  0.6603422619047619 18.24431818181818  1.9810267857142856 15.178977272727272  C 3.3017113095238098 12.113636363636362  5.078125 9.473011363636365  7.310267857142858 7.257102272727272  C 9.542410714285714 5.0411931818181825  12.202380952380953 3.2776988636363615  15.290178571428573 1.966619318181818  C 18.377976190476193 0.6555397727272697  21.614583333333336 0  25 0  C 28.385416666666668 0  31.622023809523814 0.6555397727272697  34.70982142857143 1.966619318181818  C 37.79761904761905 3.2776988636363615  40.457589285714285 5.0411931818181825  42.689732142857146 7.257102272727272  C 44.92187500000001 9.473011363636365  46.6982886904762 12.113636363636362  48.018973214285715 15.178977272727272  Z " stroke-width="0" stroke-dasharray="0" stroke="rgba(255, 255, 255, 0)" fill="none" transform="matrix(1 0 0 1 296 419 )" class="stroke" mask="url(#Clip134)" />
  </g>
</svg>