<?xml version="1.0" encoding="utf-8"?>
<svg version="1.1" xmlns:xlink="http://www.w3.org/1999/xlink" width="13px" height="13px" xmlns="http://www.w3.org/2000/svg">
  <defs>
    <pattern id="BGPattern" patternUnits="userSpaceOnUse" alignment="0 0" imageRepeat="None" />
    <mask fill="white" id="Clip223">
      <path d="M 7.697722567287785 11.619238476953909  C 7.787439613526572 11.706078824315298  7.832298136645963 11.805945223780894  7.832298136645963 11.918837675350701  C 7.832298136645963 12.031730126920507  7.787439613526572 12.131596526386105  7.697722567287785 12.218436873747496  L 7.024844720496895 12.869739478957916  C 6.93512767425811 12.956579826319306  6.8319530710835075 13  6.715320910973085 13  C 6.598688750862664 13  6.495514147688062 12.956579826319306  6.405797101449275 12.869739478957916  L 0.13457556935817805 6.799599198396793  C 0.044858523119392715 6.712758851035403  0 6.612892451569805  0 6.5  C 0 6.387107548430193  0.044858523119392715 6.287241148964595  0.13457556935817805 6.200400801603207  L 6.405797101449275 0.1302605210420843  C 6.495514147688062 0.043420173680694285  6.598688750862664 0  6.715320910973085 0  C 6.8319530710835075 0  6.93512767425811 0.043420173680694285  7.024844720496895 0.1302605210420843  L 7.697722567287785 0.7815631262525043  C 7.787439613526572 0.8684034736138929  7.832298136645963 0.9682698730794906  7.832298136645963 1.081162324649299  C 7.832298136645963 1.1940547762191045  7.787439613526572 1.293921175684702  7.697722567287785 1.3807615230460921  L 2.408902691511387 6.5  L 7.697722567287785 11.619238476953909  Z M 12.865424430641822 11.619238476953909  C 12.955141476880609 11.706078824315298  13.000000000000004 11.805945223780894  13 11.918837675350701  C 13.000000000000004 12.031730126920507  12.955141476880609 12.131596526386105  12.865424430641822 12.218436873747496  L 12.192546583850932 12.869739478957916  C 12.102829537612147 12.956579826319306  11.999654934437544 13  11.883022774327122 13  C 11.766390614216704 13  11.663216011042099 12.956579826319306  11.573498964803314 12.869739478957916  L 5.3022774327122155 6.799599198396793  C 5.212560386473431 6.712758851035403  5.167701863354038 6.612892451569805  5.167701863354037 6.5  C 5.167701863354038 6.387107548430193  5.212560386473431 6.287241148964595  5.3022774327122155 6.200400801603207  L 11.573498964803314 0.1302605210420843  C 11.663216011042099 0.043420173680694285  11.766390614216704 0  11.883022774327122 0  C 11.999654934437544 0  12.102829537612147 0.043420173680694285  12.192546583850932 0.1302605210420843  L 12.865424430641822 0.7815631262525043  C 12.955141476880609 0.8684034736138929  13.000000000000004 0.9682698730794906  13 1.081162324649299  C 13.000000000000004 1.1940547762191045  12.955141476880609 1.293921175684702  12.865424430641822 1.3807615230460921  L 7.576604554865424 6.5  L 12.865424430641822 11.619238476953909  Z " fill-rule="evenodd" />
    </mask>
  </defs>
  <g transform="matrix(1 0 0 1 -217 -659 )">
    <path d="M 7.697722567287785 11.619238476953909  C 7.787439613526572 11.706078824315298  7.832298136645963 11.805945223780894  7.832298136645963 11.918837675350701  C 7.832298136645963 12.031730126920507  7.787439613526572 12.131596526386105  7.697722567287785 12.218436873747496  L 7.024844720496895 12.869739478957916  C 6.93512767425811 12.956579826319306  6.8319530710835075 13  6.715320910973085 13  C 6.598688750862664 13  6.495514147688062 12.956579826319306  6.405797101449275 12.869739478957916  L 0.13457556935817805 6.799599198396793  C 0.044858523119392715 6.712758851035403  0 6.612892451569805  0 6.5  C 0 6.387107548430193  0.044858523119392715 6.287241148964595  0.13457556935817805 6.200400801603207  L 6.405797101449275 0.1302605210420843  C 6.495514147688062 0.043420173680694285  6.598688750862664 0  6.715320910973085 0  C 6.8319530710835075 0  6.93512767425811 0.043420173680694285  7.024844720496895 0.1302605210420843  L 7.697722567287785 0.7815631262525043  C 7.787439613526572 0.8684034736138929  7.832298136645963 0.9682698730794906  7.832298136645963 1.081162324649299  C 7.832298136645963 1.1940547762191045  7.787439613526572 1.293921175684702  7.697722567287785 1.3807615230460921  L 2.408902691511387 6.5  L 7.697722567287785 11.619238476953909  Z M 12.865424430641822 11.619238476953909  C 12.955141476880609 11.706078824315298  13.000000000000004 11.805945223780894  13 11.918837675350701  C 13.000000000000004 12.031730126920507  12.955141476880609 12.131596526386105  12.865424430641822 12.218436873747496  L 12.192546583850932 12.869739478957916  C 12.102829537612147 12.956579826319306  11.999654934437544 13  11.883022774327122 13  C 11.766390614216704 13  11.663216011042099 12.956579826319306  11.573498964803314 12.869739478957916  L 5.3022774327122155 6.799599198396793  C 5.212560386473431 6.712758851035403  5.167701863354038 6.612892451569805  5.167701863354037 6.5  C 5.167701863354038 6.387107548430193  5.212560386473431 6.287241148964595  5.3022774327122155 6.200400801603207  L 11.573498964803314 0.1302605210420843  C 11.663216011042099 0.043420173680694285  11.766390614216704 0  11.883022774327122 0  C 11.999654934437544 0  12.102829537612147 0.043420173680694285  12.192546583850932 0.1302605210420843  L 12.865424430641822 0.7815631262525043  C 12.955141476880609 0.8684034736138929  13.000000000000004 0.9682698730794906  13 1.081162324649299  C 13.000000000000004 1.1940547762191045  12.955141476880609 1.293921175684702  12.865424430641822 1.3807615230460921  L 7.576604554865424 6.5  L 12.865424430641822 11.619238476953909  Z " fill-rule="nonzero" fill="rgba(51, 51, 51, 1)" stroke="none" transform="matrix(1 0 0 1 217 659 )" class="fill" />
    <path d="M 7.697722567287785 11.619238476953909  C 7.787439613526572 11.706078824315298  7.832298136645963 11.805945223780894  7.832298136645963 11.918837675350701  C 7.832298136645963 12.031730126920507  7.787439613526572 12.131596526386105  7.697722567287785 12.218436873747496  L 7.024844720496895 12.869739478957916  C 6.93512767425811 12.956579826319306  6.8319530710835075 13  6.715320910973085 13  C 6.598688750862664 13  6.495514147688062 12.956579826319306  6.405797101449275 12.869739478957916  L 0.13457556935817805 6.799599198396793  C 0.044858523119392715 6.712758851035403  0 6.612892451569805  0 6.5  C 0 6.387107548430193  0.044858523119392715 6.287241148964595  0.13457556935817805 6.200400801603207  L 6.405797101449275 0.1302605210420843  C 6.495514147688062 0.043420173680694285  6.598688750862664 0  6.715320910973085 0  C 6.8319530710835075 0  6.93512767425811 0.043420173680694285  7.024844720496895 0.1302605210420843  L 7.697722567287785 0.7815631262525043  C 7.787439613526572 0.8684034736138929  7.832298136645963 0.9682698730794906  7.832298136645963 1.081162324649299  C 7.832298136645963 1.1940547762191045  7.787439613526572 1.293921175684702  7.697722567287785 1.3807615230460921  L 2.408902691511387 6.5  L 7.697722567287785 11.619238476953909  Z " stroke-width="0" stroke-dasharray="0" stroke="rgba(255, 255, 255, 0)" fill="none" transform="matrix(1 0 0 1 217 659 )" class="stroke" mask="url(#Clip223)" />
    <path d="M 12.865424430641822 11.619238476953909  C 12.955141476880609 11.706078824315298  13.000000000000004 11.805945223780894  13 11.918837675350701  C 13.000000000000004 12.031730126920507  12.955141476880609 12.131596526386105  12.865424430641822 12.218436873747496  L 12.192546583850932 12.869739478957916  C 12.102829537612147 12.956579826319306  11.999654934437544 13  11.883022774327122 13  C 11.766390614216704 13  11.663216011042099 12.956579826319306  11.573498964803314 12.869739478957916  L 5.3022774327122155 6.799599198396793  C 5.212560386473431 6.712758851035403  5.167701863354038 6.612892451569805  5.167701863354037 6.5  C 5.167701863354038 6.387107548430193  5.212560386473431 6.287241148964595  5.3022774327122155 6.200400801603207  L 11.573498964803314 0.1302605210420843  C 11.663216011042099 0.043420173680694285  11.766390614216704 0  11.883022774327122 0  C 11.999654934437544 0  12.102829537612147 0.043420173680694285  12.192546583850932 0.1302605210420843  L 12.865424430641822 0.7815631262525043  C 12.955141476880609 0.8684034736138929  13.000000000000004 0.9682698730794906  13 1.081162324649299  C 13.000000000000004 1.1940547762191045  12.955141476880609 1.293921175684702  12.865424430641822 1.3807615230460921  L 7.576604554865424 6.5  L 12.865424430641822 11.619238476953909  Z " stroke-width="0" stroke-dasharray="0" stroke="rgba(255, 255, 255, 0)" fill="none" transform="matrix(1 0 0 1 217 659 )" class="stroke" mask="url(#Clip223)" />
  </g>
</svg>