<?xml version="1.0" encoding="utf-8"?>
<svg version="1.1" xmlns:xlink="http://www.w3.org/1999/xlink" width="15px" height="15px" xmlns="http://www.w3.org/2000/svg">
  <defs>
    <pattern id="BGPattern" patternUnits="userSpaceOnUse" alignment="0 0" imageRepeat="None" />
    <mask fill="white" id="Clip379">
      <path d="M 8.881987577639752 7.154308617234469  C 8.985507246376812 7.254509018036072  9.037267080745343 7.369739478957915  9.037267080745343 7.5  C 9.037267080745343 7.630260521042083  8.985507246376812 7.745490981963926  8.881987577639752 7.845691382765531  L 1.6459627329192548 14.849699398797595  C 1.5424430641821947 14.9498997995992  1.4233954451345758 15  1.2888198757763976 15  C 1.1542443064182197 15  1.0351966873706004 14.9498997995992  0.9316770186335404 14.849699398797595  L 0.15527950310559005 14.098196392785573  C 0.05175983436853006 13.997995991983966  0 13.882765531062125  0 13.75250501002004  C 0 13.622244488977955  0.05175983436853006 13.507014028056114  0.15527950310559005 13.40681362725451  L 6.257763975155279 7.5  L 0.15527950310559005 1.593186372745491  C 0.05175983436853006 1.4929859719438872  0 1.3777555110220434  0 1.2474949899799603  C 0 1.1172344689378737  0.05175983436853006 1.0020040080160304  0.15527950310559005 0.9018036072144281  L 0.9316770186335404 0.15030060120240496  C 1.0351966873706004 0.0501002004008011  1.1542443064182197 0  1.2888198757763976 0  C 1.4233954451345758 0  1.5424430641821947 0.0501002004008011  1.6459627329192548 0.15030060120240496  L 8.881987577639752 7.154308617234469  Z M 14.84472049689441 7.154308617234469  C 14.948240165631471 7.254509018036072  15 7.369739478957915  15 7.5  C 15 7.630260521042083  14.948240165631471 7.745490981963926  14.84472049689441 7.845691382765531  L 7.608695652173914 14.849699398797595  C 7.505175983436854 14.9498997995992  7.386128364389234 15  7.251552795031056 15  C 7.116977225672878 15  6.997929606625259 14.9498997995992  6.894409937888199 14.849699398797595  L 6.118012422360248 14.098196392785573  C 6.014492753623189 13.997995991983966  5.962732919254658 13.882765531062125  5.962732919254658 13.75250501002004  C 5.962732919254658 13.622244488977955  6.014492753623189 13.507014028056114  6.118012422360248 13.40681362725451  L 12.220496894409937 7.5  L 6.118012422360248 1.593186372745491  C 6.014492753623189 1.4929859719438872  5.962732919254658 1.3777555110220434  5.962732919254658 1.2474949899799603  C 5.962732919254658 1.1172344689378737  6.014492753623189 1.0020040080160304  6.118012422360248 0.9018036072144281  L 6.894409937888199 0.15030060120240496  C 6.997929606625259 0.0501002004008011  7.116977225672878 0  7.251552795031056 0  C 7.386128364389234 0  7.505175983436854 0.0501002004008011  7.608695652173914 0.15030060120240496  L 14.84472049689441 7.154308617234469  Z " fill-rule="evenodd" />
    </mask>
  </defs>
  <g transform="matrix(1 0 0 1 -1128 -658 )">
    <path d="M 8.881987577639752 7.154308617234469  C 8.985507246376812 7.254509018036072  9.037267080745343 7.369739478957915  9.037267080745343 7.5  C 9.037267080745343 7.630260521042083  8.985507246376812 7.745490981963926  8.881987577639752 7.845691382765531  L 1.6459627329192548 14.849699398797595  C 1.5424430641821947 14.9498997995992  1.4233954451345758 15  1.2888198757763976 15  C 1.1542443064182197 15  1.0351966873706004 14.9498997995992  0.9316770186335404 14.849699398797595  L 0.15527950310559005 14.098196392785573  C 0.05175983436853006 13.997995991983966  0 13.882765531062125  0 13.75250501002004  C 0 13.622244488977955  0.05175983436853006 13.507014028056114  0.15527950310559005 13.40681362725451  L 6.257763975155279 7.5  L 0.15527950310559005 1.593186372745491  C 0.05175983436853006 1.4929859719438872  0 1.3777555110220434  0 1.2474949899799603  C 0 1.1172344689378737  0.05175983436853006 1.0020040080160304  0.15527950310559005 0.9018036072144281  L 0.9316770186335404 0.15030060120240496  C 1.0351966873706004 0.0501002004008011  1.1542443064182197 0  1.2888198757763976 0  C 1.4233954451345758 0  1.5424430641821947 0.0501002004008011  1.6459627329192548 0.15030060120240496  L 8.881987577639752 7.154308617234469  Z M 14.84472049689441 7.154308617234469  C 14.948240165631471 7.254509018036072  15 7.369739478957915  15 7.5  C 15 7.630260521042083  14.948240165631471 7.745490981963926  14.84472049689441 7.845691382765531  L 7.608695652173914 14.849699398797595  C 7.505175983436854 14.9498997995992  7.386128364389234 15  7.251552795031056 15  C 7.116977225672878 15  6.997929606625259 14.9498997995992  6.894409937888199 14.849699398797595  L 6.118012422360248 14.098196392785573  C 6.014492753623189 13.997995991983966  5.962732919254658 13.882765531062125  5.962732919254658 13.75250501002004  C 5.962732919254658 13.622244488977955  6.014492753623189 13.507014028056114  6.118012422360248 13.40681362725451  L 12.220496894409937 7.5  L 6.118012422360248 1.593186372745491  C 6.014492753623189 1.4929859719438872  5.962732919254658 1.3777555110220434  5.962732919254658 1.2474949899799603  C 5.962732919254658 1.1172344689378737  6.014492753623189 1.0020040080160304  6.118012422360248 0.9018036072144281  L 6.894409937888199 0.15030060120240496  C 6.997929606625259 0.0501002004008011  7.116977225672878 0  7.251552795031056 0  C 7.386128364389234 0  7.505175983436854 0.0501002004008011  7.608695652173914 0.15030060120240496  L 14.84472049689441 7.154308617234469  Z " fill-rule="nonzero" fill="rgba(85, 85, 85, 1)" stroke="none" transform="matrix(1 0 0 1 1128 658 )" class="fill" />
    <path d="M 8.881987577639752 7.154308617234469  C 8.985507246376812 7.254509018036072  9.037267080745343 7.369739478957915  9.037267080745343 7.5  C 9.037267080745343 7.630260521042083  8.985507246376812 7.745490981963926  8.881987577639752 7.845691382765531  L 1.6459627329192548 14.849699398797595  C 1.5424430641821947 14.9498997995992  1.4233954451345758 15  1.2888198757763976 15  C 1.1542443064182197 15  1.0351966873706004 14.9498997995992  0.9316770186335404 14.849699398797595  L 0.15527950310559005 14.098196392785573  C 0.05175983436853006 13.997995991983966  0 13.882765531062125  0 13.75250501002004  C 0 13.622244488977955  0.05175983436853006 13.507014028056114  0.15527950310559005 13.40681362725451  L 6.257763975155279 7.5  L 0.15527950310559005 1.593186372745491  C 0.05175983436853006 1.4929859719438872  0 1.3777555110220434  0 1.2474949899799603  C 0 1.1172344689378737  0.05175983436853006 1.0020040080160304  0.15527950310559005 0.9018036072144281  L 0.9316770186335404 0.15030060120240496  C 1.0351966873706004 0.0501002004008011  1.1542443064182197 0  1.2888198757763976 0  C 1.4233954451345758 0  1.5424430641821947 0.0501002004008011  1.6459627329192548 0.15030060120240496  L 8.881987577639752 7.154308617234469  Z " stroke-width="0" stroke-dasharray="0" stroke="rgba(255, 255, 255, 0)" fill="none" transform="matrix(1 0 0 1 1128 658 )" class="stroke" mask="url(#Clip379)" />
    <path d="M 14.84472049689441 7.154308617234469  C 14.948240165631471 7.254509018036072  15 7.369739478957915  15 7.5  C 15 7.630260521042083  14.948240165631471 7.745490981963926  14.84472049689441 7.845691382765531  L 7.608695652173914 14.849699398797595  C 7.505175983436854 14.9498997995992  7.386128364389234 15  7.251552795031056 15  C 7.116977225672878 15  6.997929606625259 14.9498997995992  6.894409937888199 14.849699398797595  L 6.118012422360248 14.098196392785573  C 6.014492753623189 13.997995991983966  5.962732919254658 13.882765531062125  5.962732919254658 13.75250501002004  C 5.962732919254658 13.622244488977955  6.014492753623189 13.507014028056114  6.118012422360248 13.40681362725451  L 12.220496894409937 7.5  L 6.118012422360248 1.593186372745491  C 6.014492753623189 1.4929859719438872  5.962732919254658 1.3777555110220434  5.962732919254658 1.2474949899799603  C 5.962732919254658 1.1172344689378737  6.014492753623189 1.0020040080160304  6.118012422360248 0.9018036072144281  L 6.894409937888199 0.15030060120240496  C 6.997929606625259 0.0501002004008011  7.116977225672878 0  7.251552795031056 0  C 7.386128364389234 0  7.505175983436854 0.0501002004008011  7.608695652173914 0.15030060120240496  L 14.84472049689441 7.154308617234469  Z " stroke-width="0" stroke-dasharray="0" stroke="rgba(255, 255, 255, 0)" fill="none" transform="matrix(1 0 0 1 1128 658 )" class="stroke" mask="url(#Clip379)" />
  </g>
</svg>